<svg xmlns="http://www.w3.org/2000/svg" xmlns:xlink="http://www.w3.org/1999/xlink" width="375" height="334" viewBox="0 0 375 334">
  <defs>
    <clipPath id="clip-path">
      <rect id="Rectangle_367" data-name="Rectangle 367" width="375" height="334" transform="translate(0 109)" fill="#fadf12" stroke="#707070" stroke-width="1"/>
    </clipPath>
  </defs>
  <g id="Mask_Group_1" data-name="Mask Group 1" transform="translate(0 -109)" clip-path="url(#clip-path)">
    <g id="Revenue-bro" transform="translate(-6.356 74.555)">
      <g id="freepik--Shadow--inject-62">
        <ellipse id="Ellipse_157" data-name="Ellipse 157" cx="142.231" cy="38.308" rx="142.231" ry="38.308" transform="translate(75.957 291.83)" fill="#7e57c2"/>
        <ellipse id="Ellipse_158" data-name="Ellipse 158" cx="142.231" cy="38.308" rx="142.231" ry="38.308" transform="translate(75.957 291.83)" fill="#fff" opacity="0.5"/>
      </g>
      <g id="freepik--Window--inject-62">
        <rect id="Rectangle_368" data-name="Rectangle 368" width="181.411" height="107.936" rx="7.098" transform="translate(61.213 54.17)" fill="#fff"/>
        <path id="Path_1737" data-name="Path 1737" d="M242.624,61.269v2.808H61.213V61.269a7.138,7.138,0,0,1,7.1-7.138H235.558a7.09,7.09,0,0,1,7.067,7.138Z" fill="#7e57c2"/>
        <rect id="Rectangle_369" data-name="Rectangle 369" width="181.411" height="107.936" rx="7.098" transform="translate(61.213 54.17)" fill="none" stroke="#263238" stroke-linecap="round" stroke-linejoin="round" stroke-width="0.793"/>
        <path id="Path_1738" data-name="Path 1738" d="M242.624,61.269v2.808H61.213V61.269a7.138,7.138,0,0,1,7.1-7.138H235.558a7.09,7.09,0,0,1,7.067,7.138Z" fill="none" stroke="#263238" stroke-linecap="round" stroke-linejoin="round" stroke-width="0.793"/>
        <path id="Path_1739" data-name="Path 1739" d="M81.589,59.119a1.816,1.816,0,1,1-1.816-1.808,1.816,1.816,0,0,1,1.816,1.808Z" fill="#263238"/>
        <path id="Path_1740" data-name="Path 1740" d="M91.066,59.119a1.816,1.816,0,1,1-1.816-1.808,1.816,1.816,0,0,1,1.816,1.808Z" fill="#263238"/>
        <circle id="Ellipse_159" data-name="Ellipse 159" cx="1.816" cy="1.816" r="1.816" transform="translate(96.912 57.303)" fill="#263238"/>
        <rect id="Rectangle_370" data-name="Rectangle 370" width="57.145" height="30.527" rx="2.927" transform="translate(71.968 71.936)" fill="none" stroke="#263238" stroke-linecap="round" stroke-linejoin="round" stroke-width="0.793"/>
        <line id="Line_36" data-name="Line 36" x2="49.546" transform="translate(75.331 98.625)" fill="none" stroke="#263238" stroke-linecap="round" stroke-linejoin="round" stroke-width="0.793"/>
        <rect id="Rectangle_371" data-name="Rectangle 371" width="5.75" height="5.75" transform="translate(79.011 92.795)" fill="#7e57c2" stroke="#263238" stroke-miterlimit="10" stroke-width="0.793"/>
        <rect id="Rectangle_372" data-name="Rectangle 372" width="5.75" height="13.388" transform="translate(87.426 85.237)" fill="#7e57c2" stroke="#263238" stroke-miterlimit="10" stroke-width="0.793"/>
        <rect id="Rectangle_373" data-name="Rectangle 373" width="5.75" height="11.223" transform="translate(96.904 87.537)" fill="#7e57c2" stroke="#263238" stroke-miterlimit="10" stroke-width="0.793"/>
        <rect id="Rectangle_374" data-name="Rectangle 374" width="5.75" height="22.009" transform="translate(106.865 76.362)" fill="#7e57c2" stroke="#263238" stroke-miterlimit="10" stroke-width="0.793"/>
        <rect id="Rectangle_375" data-name="Rectangle 375" width="5.75" height="22.009" transform="translate(116.819 76.536)" fill="#7e57c2" stroke="#263238" stroke-miterlimit="10" stroke-width="0.793"/>
        <circle id="Ellipse_160" data-name="Ellipse 160" cx="16.077" cy="16.077" r="16.077" transform="translate(183.886 71.889)" fill="#7e57c2" stroke="#263238" stroke-miterlimit="10" stroke-width="0.793"/>
        <path id="Path_1741" data-name="Path 1741" d="M201.279,97.99v1.65h-2.7V97.99a4.9,4.9,0,0,1-3.744-5v-.746l3.054-.333v.793c0,1.531.793,2.459,2.038,2.459a1.88,1.88,0,0,0,2.03-2.007c0-1.467-1.372-2.728-2.99-4.069-1.919-1.586-3.831-3.474-3.831-6.139s1.253-4.465,3.442-5V76.291h2.7v1.642c2.213.516,3.5,2.379,3.5,5.036v.539l-3.054.325v-.555c0-1.586-.627-2.459-1.737-2.459s-1.737.69-1.737,2.007c0,1.467,1.412,2.7,3,4.069,1.888,1.586,3.831,3.474,3.831,6.139a4.878,4.878,0,0,1-3.8,4.957Z" fill="#263238"/>
        <line id="Line_37" data-name="Line 37" x2="4.695" transform="translate(70.636 118.056)" fill="none" stroke="#263238" stroke-linecap="round" stroke-linejoin="round" stroke-width="0.793"/>
        <line id="Line_38" data-name="Line 38" x2="4.695" transform="translate(70.636 127.13)" fill="none" stroke="#263238" stroke-linecap="round" stroke-linejoin="round" stroke-width="0.793"/>
        <line id="Line_39" data-name="Line 39" x2="4.695" transform="translate(70.636 136.211)" fill="none" stroke="#263238" stroke-linecap="round" stroke-linejoin="round" stroke-width="0.793"/>
        <line id="Line_40" data-name="Line 40" x2="4.695" transform="translate(70.636 145.284)" fill="none" stroke="#263238" stroke-linecap="round" stroke-linejoin="round" stroke-width="0.793"/>
        <line id="Line_41" data-name="Line 41" y1="3.648" transform="translate(85.681 148.488)" fill="none" stroke="#263238" stroke-linecap="round" stroke-linejoin="round" stroke-width="0.793"/>
        <line id="Line_42" data-name="Line 42" y1="3.648" transform="translate(93.121 148.488)" fill="none" stroke="#263238" stroke-linecap="round" stroke-linejoin="round" stroke-width="0.793"/>
        <line id="Line_43" data-name="Line 43" y1="3.648" transform="translate(100.56 148.488)" fill="none" stroke="#263238" stroke-linecap="round" stroke-linejoin="round" stroke-width="0.793"/>
        <line id="Line_44" data-name="Line 44" y1="3.648" transform="translate(108.007 148.488)" fill="none" stroke="#263238" stroke-linecap="round" stroke-linejoin="round" stroke-width="0.793"/>
        <line id="Line_45" data-name="Line 45" y1="3.648" transform="translate(115.447 148.488)" fill="none" stroke="#263238" stroke-linecap="round" stroke-linejoin="round" stroke-width="0.793"/>
        <line id="Line_46" data-name="Line 46" y1="3.648" transform="translate(122.886 148.488)" fill="none" stroke="#263238" stroke-linecap="round" stroke-linejoin="round" stroke-width="0.793"/>
        <line id="Line_47" data-name="Line 47" y1="3.648" transform="translate(130.326 148.488)" fill="none" stroke="#263238" stroke-linecap="round" stroke-linejoin="round" stroke-width="0.793"/>
        <line id="Line_48" data-name="Line 48" y1="3.648" transform="translate(137.773 148.488)" fill="none" stroke="#263238" stroke-linecap="round" stroke-linejoin="round" stroke-width="0.793"/>
        <line id="Line_49" data-name="Line 49" y1="3.648" transform="translate(145.213 148.488)" fill="none" stroke="#263238" stroke-linecap="round" stroke-linejoin="round" stroke-width="0.793"/>
        <line id="Line_50" data-name="Line 50" y1="3.648" transform="translate(152.652 148.488)" fill="none" stroke="#263238" stroke-linecap="round" stroke-linejoin="round" stroke-width="0.793"/>
        <line id="Line_51" data-name="Line 51" y1="3.648" transform="translate(160.092 148.488)" fill="none" stroke="#263238" stroke-linecap="round" stroke-linejoin="round" stroke-width="0.793"/>
        <line id="Line_52" data-name="Line 52" y1="3.648" transform="translate(167.539 148.488)" fill="none" stroke="#263238" stroke-linecap="round" stroke-linejoin="round" stroke-width="0.793"/>
        <line id="Line_53" data-name="Line 53" y1="3.648" transform="translate(174.979 148.488)" fill="none" stroke="#263238" stroke-linecap="round" stroke-linejoin="round" stroke-width="0.793"/>
        <line id="Line_54" data-name="Line 54" y1="3.648" transform="translate(182.418 148.488)" fill="none" stroke="#263238" stroke-linecap="round" stroke-linejoin="round" stroke-width="0.793"/>
        <line id="Line_55" data-name="Line 55" y1="3.648" transform="translate(189.858 148.488)" fill="none" stroke="#263238" stroke-linecap="round" stroke-linejoin="round" stroke-width="0.793"/>
        <line id="Line_56" data-name="Line 56" y1="3.648" transform="translate(197.02 148.488)" fill="none" stroke="#263238" stroke-linecap="round" stroke-linejoin="round" stroke-width="0.793"/>
        <line id="Line_57" data-name="Line 57" y1="3.648" transform="translate(204.182 148.488)" fill="none" stroke="#263238" stroke-linecap="round" stroke-linejoin="round" stroke-width="0.793"/>
        <line id="Line_58" data-name="Line 58" y1="3.648" transform="translate(211.336 148.488)" fill="none" stroke="#263238" stroke-linecap="round" stroke-linejoin="round" stroke-width="0.793"/>
        <path id="Path_1742" data-name="Path 1742" d="M230.275,112.5v35.262c0,2.419-2.459,4.37-5.488,4.37H76.14a5.885,5.885,0,0,1-4.759-2.149,3.751,3.751,0,0,1-.793-2.221V112.5c0-2.379,2.459-4.37,5.488-4.37H224.787C227.817,108.134,230.275,110.085,230.275,112.5Z" fill="none" stroke="#7e57c2" stroke-linecap="round" stroke-linejoin="round" stroke-width="0.793"/>
        <path id="Path_1743" data-name="Path 1743" d="M185.036,44.209l-47.453,63.926-18.147,24.444L99.608,119.952,75.347,152.137H75a4.37,4.37,0,0,1-3.767-2.149l27.26-36.174,19.828,12.6,13.57-18.242,49.483-66.622Z" fill="#263238"/>
        <path id="Path_1744" data-name="Path 1744" d="M173,45.018l17.441-10.572-4.822,18.289-3.077-8.463Z" fill="#263238"/>
      </g>
      <g id="freepik--Floor--inject-62">
        <path id="Path_1745" data-name="Path 1745" d="M338.053,246.281H59.119l-31.265,27.8" fill="none" stroke="#263238" stroke-linecap="round" stroke-linejoin="round" stroke-width="0.793"/>
        <line id="Line_59" data-name="Line 59" y1="54.051" transform="translate(59.294 172.766)" fill="none" stroke="#263238" stroke-linecap="round" stroke-linejoin="round" stroke-width="0.793"/>
        <line id="Line_60" data-name="Line 60" y1="10.453" transform="translate(59.294 232.686)" fill="none" stroke="#263238" stroke-linecap="round" stroke-linejoin="round" stroke-width="0.793"/>
        <g id="freepik--freepik--Plants--inject-120--inject-62">
          <path id="Path_1746" data-name="Path 1746" d="M321.262,114.781s0-3.268-4.576-7.836-7.511-7.186-7.511-7.186-2.292,7.511,1.959,12.087a80.108,80.108,0,0,0,10.128,8.835Z" fill="#7e57c2"/>
          <path id="Path_1747" data-name="Path 1747" d="M314.624,135.188s0-3.268-4.576-7.844-7.511-7.186-7.511-7.186-2.284,7.511,1.959,12.087a81.4,81.4,0,0,0,10.128,8.843Z" fill="#7e57c2"/>
          <path id="Path_1748" data-name="Path 1748" d="M320.969,120.348s.349-3.252,5.377-7.321,8.233-6.345,8.233-6.345,1.475,7.733-3.228,11.81a80.508,80.508,0,0,1-11,7.7Z" fill="#7e57c2"/>
          <path id="Path_1749" data-name="Path 1749" d="M312.951,144.444s.69-3.173,6.115-6.71,8.843-5.457,8.843-5.457.658,7.828-4.426,11.413a79.94,79.94,0,0,1-11.746,6.5Z" fill="#7e57c2"/>
          <path id="Path_1750" data-name="Path 1750" d="M314.465,170.7s0-3.268,4.568-7.836,7.511-7.186,7.511-7.186,2.292,7.519-1.959,12.087a79.483,79.483,0,0,1-10.12,8.843Z" fill="#7e57c2"/>
          <path id="Path_1751" data-name="Path 1751" d="M314.386,177.12s.46-3.236-3.418-8.407-6.408-8.185-6.408-8.185-3.315,7.138.23,12.246a80.451,80.451,0,0,0,8.772,10.168Z" fill="#7e57c2"/>
          <path id="Path_1752" data-name="Path 1752" d="M309.873,196.116s0-3.26,4.576-7.836,7.511-7.138,7.511-7.138,2.292,7.511-1.959,12.079a80.106,80.106,0,0,1-10.128,8.843Z" fill="#7e57c2"/>
          <path id="Path_1753" data-name="Path 1753" d="M312.927,213.35s-.793-3.172,2.451-8.724,5.449-8.843,5.449-8.843,4.108,6.694,1.166,12.19a80.275,80.275,0,0,1-7.566,11.1Z" fill="#7e57c2"/>
          <path id="Path_1754" data-name="Path 1754" d="M321.675,113.972a92.6,92.6,0,0,1-1.253,10.136c-1.808,9.343-6.345,15.371-8.137,23.794s3.387,19.313,2,30.139-5.615,16.862-4.426,24.1,7.535,26.808,7.535,26.808" fill="none" stroke="#263238" stroke-linecap="round" stroke-linejoin="round" stroke-width="0.934"/>
          <line id="Line_61" data-name="Line 61" y1="3.791" x2="4.925" transform="translate(320.929 118.731)" fill="none" stroke="#263238" stroke-linecap="round" stroke-linejoin="round" stroke-width="0.934"/>
          <line id="Line_62" data-name="Line 62" x1="2.054" y1="3.672" transform="translate(319.097 114.495)" fill="none" stroke="#263238" stroke-linecap="round" stroke-linejoin="round" stroke-width="0.934"/>
          <path id="Path_1755" data-name="Path 1755" d="M312.562,147.521s4.124-3.1,8.367-6.194" fill="none" stroke="#263238" stroke-linecap="round" stroke-linejoin="round" stroke-width="0.934"/>
          <path id="Path_1756" data-name="Path 1756" d="M314.624,141.049a66.1,66.1,0,0,0-7.336-11.215" fill="none" stroke="#263238" stroke-linecap="round" stroke-linejoin="round" stroke-width="0.934"/>
          <path id="Path_1757" data-name="Path 1757" d="M314.624,175.352a51.22,51.22,0,0,1,8.843-11.8" fill="none" stroke="#263238" stroke-linecap="round" stroke-linejoin="round" stroke-width="0.934"/>
          <path id="Path_1758" data-name="Path 1758" d="M313.823,179.936a58.213,58.213,0,0,0-4.5-8.494c-2.379-3.553-2.76-4.013-2.76-4.013" fill="none" stroke="#263238" stroke-linecap="round" stroke-linejoin="round" stroke-width="0.934"/>
          <path id="Path_1759" data-name="Path 1759" d="M309.873,202.127a55.185,55.185,0,0,1,3.72-7.519,48.821,48.821,0,0,1,4.806-6.345" fill="none" stroke="#263238" stroke-linecap="round" stroke-linejoin="round" stroke-width="0.934"/>
          <path id="Path_1760" data-name="Path 1760" d="M314.418,219.037a13.975,13.975,0,0,1,1.237-7.233c1.721-3.323,3.664-7.685,4.473-9.4" fill="none" stroke="#263238" stroke-linecap="round" stroke-linejoin="round" stroke-width="0.934"/>
          <path id="Path_1761" data-name="Path 1761" d="M291.314,158.418s-.357-2.038,2.015-5.409,3.966-5.33,3.966-5.33,2.245,4.457.079,7.788a50.886,50.886,0,0,1-5.393,6.631Z" fill="#7e57c2"/>
          <path id="Path_1762" data-name="Path 1762" d="M297.691,170.521s-.357-2.054,2.015-5.417,3.966-5.322,3.966-5.322,2.245,4.465.079,7.788a50.363,50.363,0,0,1-5.393,6.63Z" fill="#7e57c2"/>
          <path id="Path_1763" data-name="Path 1763" d="M292.1,161.876s-.555-2-4.164-3.966-5.853-3.093-5.853-3.093-.087,4.973,3.315,7.059a50.871,50.871,0,0,0,7.733,3.633Z" fill="#7e57c2"/>
          <path id="Path_1764" data-name="Path 1764" d="M299.745,176.113s-.793-1.927-4.568-3.537-6.147-2.459-6.147-2.459.436,4.973,4.029,6.67a51.171,51.171,0,0,0,8.074,2.8Z" fill="#7e57c2"/>
          <path id="Path_1765" data-name="Path 1765" d="M301.648,192.729s-.357-2.046-3.72-4.418-5.5-3.7-5.5-3.7-.619,4.973,2.546,7.368a50.68,50.68,0,0,0,7.3,4.418Z" fill="#7e57c2"/>
          <path id="Path_1766" data-name="Path 1766" d="M302.386,196.766s-.642-1.975,1.229-5.639,3.172-5.829,3.172-5.829,2.855,4.093,1.19,7.7a51.71,51.71,0,0,1-4.426,7.328Z" fill="#7e57c2"/>
          <path id="Path_1767" data-name="Path 1767" d="M308.128,213.287s.238-2.062,3.458-4.624,5.274-3.966,5.274-3.966.9,4.917-2.118,7.5a51.455,51.455,0,0,1-7.035,4.838Z" fill="#7e57c2"/>
          <path id="Path_1768" data-name="Path 1768" d="M307.28,208.195s-.357-2.054-3.72-4.426-5.488-3.688-5.488-3.688-.619,4.973,2.538,7.368a51.047,51.047,0,0,0,7.313,4.418Z" fill="#7e57c2"/>
          <path id="Path_1769" data-name="Path 1769" d="M307.232,219.33s.182-2.078-2.475-5.219-4.378-4.973-4.378-4.973-1.856,4.64.595,7.773a51.848,51.848,0,0,0,5.948,6.147Z" fill="#7e57c2"/>
          <path id="Path_1770" data-name="Path 1770" d="M290.957,157.943a58.689,58.689,0,0,0,1.9,6.226c2.141,5.655,5.631,8.946,7.677,14.038s0,12.476,2.022,19.114,5.354,9.946,5.377,14.633-1.785,17.639-1.785,17.639" fill="none" stroke="#263238" stroke-linecap="round" stroke-linejoin="round" stroke-width="0.934"/>
          <line id="Line_63" data-name="Line 63" x1="3.498" y1="1.832" transform="translate(288.863 161.401)" fill="none" stroke="#263238" stroke-linecap="round" stroke-linejoin="round" stroke-width="0.934"/>
          <line id="Line_64" data-name="Line 64" y1="2.522" x2="0.896" transform="translate(291.742 158.006)" fill="none" stroke="#263238" stroke-linecap="round" stroke-linejoin="round" stroke-width="0.934"/>
          <path id="Path_1771" data-name="Path 1771" d="M300.324,177.993s-2.927-1.491-5.917-2.974" fill="none" stroke="#263238" stroke-linecap="round" stroke-linejoin="round" stroke-width="0.934"/>
          <path id="Path_1772" data-name="Path 1772" d="M298.325,174.2a41.916,41.916,0,0,1,3.387-7.82" fill="none" stroke="#263238" stroke-linecap="round" stroke-linejoin="round" stroke-width="0.934"/>
          <path id="Path_1773" data-name="Path 1773" d="M302.053,195.679a32.637,32.637,0,0,0-6.821-6.44" fill="none" stroke="#263238" stroke-linecap="round" stroke-linejoin="round" stroke-width="0.934"/>
          <path id="Path_1774" data-name="Path 1774" d="M303.052,198.471a36.366,36.366,0,0,1,1.88-5.8c1.1-2.5,1.293-2.824,1.293-2.824" fill="none" stroke="#263238" stroke-linecap="round" stroke-linejoin="round" stroke-width="0.934"/>
          <path id="Path_1775" data-name="Path 1775" d="M307.779,215.492a30.514,30.514,0,0,1,3.759-3.9,20.2,20.2,0,0,0,2.443-2.133" fill="none" stroke="#263238" stroke-linecap="round" stroke-linejoin="round" stroke-width="0.934"/>
          <path id="Path_1776" data-name="Path 1776" d="M307.93,211.954a35.587,35.587,0,0,0-3.172-4.307,30.929,30.929,0,0,0-3.7-3.434" fill="none" stroke="#263238" stroke-linecap="round" stroke-linejoin="round" stroke-width="0.934"/>
          <path id="Path_1777" data-name="Path 1777" d="M306.939,223.058a8.947,8.947,0,0,0-1.586-4.418c-1.443-1.9-3.172-4.426-3.823-5.417" fill="none" stroke="#263238" stroke-linecap="round" stroke-linejoin="round" stroke-width="0.934"/>
          <path id="Path_1778" data-name="Path 1778" d="M322.151,251.928H301.323a1.586,1.586,0,0,1-1.586-1.547l-2.99-23.048h29.917l-2.99,23.048A1.586,1.586,0,0,1,322.151,251.928Z" fill="#263238"/>
          <path id="Path_1779" data-name="Path 1779" d="M326.426,231.227H296.779a2.332,2.332,0,0,1-2.34-2.316h0a2.379,2.379,0,0,1,2.332-2.34h29.655a2.332,2.332,0,0,1,2.34,2.332h0a2.332,2.332,0,0,1-2.34,2.324Z" fill="#263238"/>
        </g>
      </g>
      <g id="freepik--Coins--inject-62">
        <path id="Path_1780" data-name="Path 1780" d="M259.589,139.042a28.8,28.8,0,0,1-22.305,28.052h-.092c-.753.167-1.507.317-2.284.428a29.408,29.408,0,0,1-4.116.293,28.795,28.795,0,1,1-1.063-57.58c.262.007.539.007.793.007a1.364,1.364,0,0,1,.254,0,1.823,1.823,0,0,1,.294,0,28.354,28.354,0,0,1,11.278,2.419,28.8,28.8,0,0,1,17.243,26.379Z" fill="#7e57c2"/>
        <path id="Path_1781" data-name="Path 1781" d="M242.363,112.671c-33.256-1.729-33.414,35.191-33.414,35.191s-5.076-12.048,3.212-25.38c4.632-7.463,12.69-10.755,18.924-12.214a28.354,28.354,0,0,1,11.278,2.4Z" fill="#fff" opacity="0.4"/>
        <path id="Path_1782" data-name="Path 1782" d="M259.589,139.042a28.8,28.8,0,0,1-22.4,28.076,28.322,28.322,0,0,1-6.4.722,28.8,28.8,0,1,1-1.063-57.6h1.063a28.806,28.806,0,0,1,28.8,28.8Z" fill="none" stroke="#263238" stroke-linecap="round" stroke-linejoin="round" stroke-width="0.793"/>
        <path id="Path_1783" data-name="Path 1783" d="M259.589,139.042a28.8,28.8,0,0,1-22.4,28.076h-1.064a28.806,28.806,0,0,1-6.4-56.875h1.063a28.806,28.806,0,0,1,28.8,28.8Z" fill="none" stroke="#263238" stroke-linecap="round" stroke-linejoin="round" stroke-width="0.793"/>
        <path id="Path_1784" data-name="Path 1784" d="M240.713,157.038l.746,3.046-4.981,1.213-.746-3.038c-4.457,0-8.034-2.895-9.176-7.543l-.341-1.38,5.5-1.991.349,1.436c.69,2.824,2.554,4.18,4.878,3.609a3.569,3.569,0,0,0,2.847-4.624c-.666-2.712-3.775-4.41-7.376-6.163-4.259-2.062-8.653-4.679-9.859-9.6-1.174-4.806.3-8.812,4.1-10.794l-.746-3.046,4.973-1.213.746,3.038c4.323-.063,7.543,2.784,8.724,7.7l.246,1-5.488,1.991-.278-1.1c-.73-2.99-2.268-4.251-4.315-3.751s-2.895,2.062-2.3,4.489c.666,2.712,3.815,4.346,7.376,6.171,4.211,2.133,8.653,4.679,9.859,9.6C246.661,150.812,244.726,155.032,240.713,157.038Z" fill="none" stroke="#263238" stroke-miterlimit="10" stroke-width="0.793"/>
        <path id="Path_1785" data-name="Path 1785" d="M240.713,157.038l.746,3.046-4.981,1.213-.746-3.038c-4.457,0-8.034-2.895-9.176-7.543l-.341-1.38,5.5-1.991.349,1.436c.69,2.824,2.554,4.18,4.878,3.609a3.569,3.569,0,0,0,2.847-4.624c-.666-2.712-3.775-4.41-7.376-6.163-4.259-2.062-8.653-4.679-9.859-9.6-1.174-4.806.3-8.812,4.1-10.794l-.746-3.046,4.973-1.213.746,3.038c4.323-.063,7.543,2.784,8.724,7.7l.246,1-5.488,1.991-.278-1.1c-.73-2.99-2.268-4.251-4.315-3.751s-2.895,2.062-2.3,4.489c.666,2.712,3.815,4.346,7.376,6.171,4.211,2.133,8.653,4.679,9.859,9.6C246.661,150.812,244.726,155.032,240.713,157.038Z" opacity="0.3"/>
        <line id="Line_65" data-name="Line 65" y1="0.278" x2="6.083" transform="translate(216.071 163.526)" fill="none" stroke="#263238" stroke-linecap="round" stroke-linejoin="round" stroke-width="0.793"/>
        <line id="Line_66" data-name="Line 66" y1="0.452" x2="5.306" transform="translate(213.144 161.329)" fill="none" stroke="#263238" stroke-linecap="round" stroke-linejoin="round" stroke-width="0.793"/>
        <line id="Line_67" data-name="Line 67" y1="0.452" x2="5.306" transform="translate(210.765 159.196)" fill="none" stroke="#263238" stroke-linecap="round" stroke-linejoin="round" stroke-width="0.793"/>
        <line id="Line_68" data-name="Line 68" x2="4.545" transform="translate(210.035 119.072)" fill="none" stroke="#263238" stroke-linecap="round" stroke-linejoin="round" stroke-width="0.793"/>
        <line id="Line_69" data-name="Line 69" y1="0.206" x2="4.529" transform="translate(212.279 116.772)" fill="none" stroke="#263238" stroke-linecap="round" stroke-linejoin="round" stroke-width="0.793"/>
        <line id="Line_70" data-name="Line 70" y1="0.452" x2="4.775" transform="translate(215.119 114.424)" fill="none" stroke="#263238" stroke-linecap="round" stroke-linejoin="round" stroke-width="0.793"/>
        <path id="Path_1786" data-name="Path 1786" d="M237.279,167.1h-.087a28.323,28.323,0,0,1-6.4.722,28.795,28.795,0,1,1-1.063-57.58c.262.007.539.007.793.007-7.019,2.213-18.8,7.868-21.946,19.662C204.126,146.664,214.143,165.691,237.279,167.1Z" opacity="0.3"/>
        <path id="Path_1787" data-name="Path 1787" d="M259.589,139.042a28.8,28.8,0,0,1-22.305,28.052h-.092c-.753.167-1.507.317-2.284.428l7.455-54.876a28.8,28.8,0,0,1,17.227,26.4Z" opacity="0.1"/>
        <path id="Path_1788" data-name="Path 1788" d="M275.928,93.707a17.449,17.449,0,0,1-20.867,6.059l-.1-.048q-.812-.357-1.586-.793a15.571,15.571,0,0,1-1.681-1.047,17.449,17.449,0,0,1,19.186-29.052l.389.246c.182.1.357.23.539.357s.531.389.793.595A17.449,17.449,0,0,1,275.928,93.707Z" fill="#7e57c2"/>
        <path id="Path_1789" data-name="Path 1789" d="M249.643,93.945s-2.847-8.383.936-14.554c4.759-7.733,12.048-11.262,21.97-9.359,0,0-5.377-3.632-14.379-1.055S244.337,83.944,249.643,93.945Z" fill="#fff" opacity="0.4"/>
        <path id="Path_1790" data-name="Path 1790" d="M275.928,93.715a17.449,17.449,0,0,1-20.867,6.044,17.092,17.092,0,0,1-3.41-1.872,17.449,17.449,0,0,1,19.6-28.806c.174.1.357.222.531.349A17.449,17.449,0,0,1,275.928,93.715Z" fill="none" stroke="#263238" stroke-linecap="round" stroke-linejoin="round" stroke-width="0.793"/>
        <path id="Path_1791" data-name="Path 1791" d="M275.928,93.715a17.449,17.449,0,0,1-20.867,6.044l-.531-.349a17.449,17.449,0,0,1,16.719-30.329c.174.1.357.222.531.349A17.449,17.449,0,0,1,275.928,93.715Z" fill="none" stroke="#263238" stroke-linecap="round" stroke-linejoin="round" stroke-width="0.793"/>
        <path id="Path_1792" data-name="Path 1792" d="M260.311,96.031l-.69,1.761-2.887-1.134.69-1.769a5.647,5.647,0,0,1-1.9-6.924l.317-.793,3.41.928-.325.841c-.642,1.634-.206,2.95,1.142,3.482a2.157,2.157,0,0,0,3.022-1.293c.619-1.586-.325-3.5-1.491-5.615-1.38-2.506-2.633-5.33-1.515-8.185s3.228-4.251,5.79-3.9l.7-1.761,2.879,1.134-.69,1.753c2.157,1.475,2.752,3.966,1.634,6.861l-.23.571-3.41-.928.254-.642c.682-1.729.365-2.895-.793-3.363s-2.149,0-2.7,1.42c-.619,1.586.373,3.474,1.491,5.615,1.34,2.53,2.641,5.338,1.523,8.185a5.623,5.623,0,0,1-6.21,3.759Z" fill="none" stroke="#263238" stroke-miterlimit="10" stroke-width="0.793"/>
        <path id="Path_1793" data-name="Path 1793" d="M260.311,96.031l-.69,1.761-2.887-1.134.69-1.769a5.647,5.647,0,0,1-1.9-6.924l.317-.793,3.41.928-.325.841c-.642,1.634-.206,2.95,1.142,3.482a2.157,2.157,0,0,0,3.022-1.293c.619-1.586-.325-3.5-1.491-5.615-1.38-2.506-2.633-5.33-1.515-8.185s3.228-4.251,5.79-3.9l.7-1.761,2.879,1.134-.69,1.753c2.157,1.475,2.752,3.966,1.634,6.861l-.23.571-3.41-.928.254-.642c.682-1.729.365-2.895-.793-3.363s-2.149,0-2.7,1.42c-.619,1.586.373,3.474,1.491,5.615,1.34,2.53,2.641,5.338,1.523,8.185a5.623,5.623,0,0,1-6.21,3.759Z" opacity="0.3"/>
        <path id="Path_1794" data-name="Path 1794" d="M270.836,68.835c-4.759-.849-10.786-1.317-14.038.793-5.972,3.831-9.692,8.661-9.636,16.489s7.368,13.317,7.368,13.317l.428.309a17.178,17.178,0,0,1-3.307-1.832,17.449,17.449,0,0,1,19.186-29.052Z" opacity="0.3"/>
        <path id="Path_1795" data-name="Path 1795" d="M275.928,93.707a17.449,17.449,0,0,1-20.867,6.059l-.1-.048q-.812-.357-1.586-.793l19.178-28.893a17.449,17.449,0,0,1,3.379,23.675Z" opacity="0.1"/>
      </g>
      <g id="freepik--Character--inject-62">
        <path id="Path_1796" data-name="Path 1796" d="M266.949,317.059A104.692,104.692,0,0,1,240.9,339.544a92.048,92.048,0,0,1-9.517,4.965c-22.533,10.128-48.214,10.787-72.23,4.965-50.5-12.238-77.29-56.811-80.692-106.294-.912-13.372-2.958-27.815,2.459-40.537s16.37-20.621,28.759-26.11c8.994-4.005,18.71-6.694,27.537-8.891a70.834,70.834,0,0,1,47.659,4.917c10.382,4.925,17.774,13.483,26.506,20.693q1.388,1.142,2.792,2.276a261.653,261.653,0,0,0,27.759,19.519c14.681,8.954,29.71,17.4,39.093,32.439C295.994,271.454,283.367,297.548,266.949,317.059Z" fill="#7e57c2"/>
        <path id="Path_1797" data-name="Path 1797" d="M266.949,317.059A104.692,104.692,0,0,1,240.9,339.544a92.048,92.048,0,0,1-9.517,4.965c-22.533,10.128-48.214,10.787-72.23,4.965-50.5-12.238-77.29-56.811-80.692-106.294-.912-13.372-2.958-27.815,2.459-40.537s16.37-20.621,28.759-26.11c8.994-4.005,18.71-6.694,27.537-8.891a70.834,70.834,0,0,1,47.659,4.917c10.382,4.925,17.774,13.483,26.506,20.693q1.388,1.142,2.792,2.276a261.653,261.653,0,0,0,27.759,19.519c14.681,8.954,29.71,17.4,39.093,32.439C295.994,271.454,283.367,297.548,266.949,317.059Z" fill="#fff" opacity="0.4"/>
        <path id="Path_1798" data-name="Path 1798" d="M214.143,195.529q-1.4-1.126-2.792-2.284c-8.724-7.225-16.132-15.759-26.506-20.685a70.881,70.881,0,0,0-47.659-4.917c-20.994,5.211-47.032,13.237-56.312,35.008-5.417,12.69-3.371,27.157-2.451,40.529,3.442,49.483,30.234,94.056,80.732,106.294,27.474,6.662,57.1,4.838,81.747-9.93a104.692,104.692,0,0,0,26.046-22.485c16.418-19.511,29.044-45.6,14.094-69.573-9.375-15.069-24.4-23.484-39.093-32.439a261.652,261.652,0,0,1-27.807-19.519Z" fill="none" stroke="#263238" stroke-miterlimit="10" stroke-width="0.793"/>
        <path id="Path_1799" data-name="Path 1799" d="M137.647,283.764a72.625,72.625,0,0,0-12.19,4.933" fill="none" stroke="#263238" stroke-linecap="round" stroke-linejoin="round" stroke-width="0.793"/>
        <path id="Path_1800" data-name="Path 1800" d="M163.383,278.862a130.067,130.067,0,0,0-18.242,2.895" fill="none" stroke="#263238" stroke-linecap="round" stroke-linejoin="round" stroke-width="0.793"/>
        <path id="Path_1801" data-name="Path 1801" d="M158.03,277.593a64.465,64.465,0,0,0-52.3-2.736" fill="none" stroke="#263238" stroke-linecap="round" stroke-linejoin="round" stroke-width="0.793"/>
        <path id="Path_1802" data-name="Path 1802" d="M266.949,317.059A104.692,104.692,0,0,1,240.9,339.544a92.048,92.048,0,0,1-9.517,4.965,74.314,74.314,0,0,1-7.59-2.784c-14.8-6.345-27.22-17.076-39.355-27.656-7.321-6.345-14.76-12.849-23.524-17.028a54.107,54.107,0,0,0-37.943-3.125,42.615,42.615,0,0,1,25.094-13.808c-6.266-5.7-14.982-8.1-23.453-8.248s-13.134.888-21.414,2.744c2.768-5.092,10.112-9.7,15.91-9.565a144.089,144.089,0,0,1-16.481-1.166c-7.479-1.206-10.826-10.009-11.944-17.5-3.093-20.621.04-42.583,11.294-60.111a61.19,61.19,0,0,1,7.693-9.732c8.994-4.005,18.71-6.694,27.537-8.891a70.834,70.834,0,0,1,47.659,4.917c10.382,4.925,17.774,13.483,26.506,20.693q1.388,1.142,2.792,2.276a261.651,261.651,0,0,0,27.759,19.519c14.681,8.954,29.71,17.4,39.093,32.439C295.994,271.454,283.367,297.548,266.949,317.059Z" opacity="0.1"/>
        <path id="Path_1803" data-name="Path 1803" d="M275.214,316.456a153.356,153.356,0,0,0,13.935,10.311c9.43.634,5.2,12.032,5.2,12.032l-8.074,5.195s-13.824-10.985-21.375-14.546S275.214,316.456,275.214,316.456Z" fill="#fff"/>
        <path id="Path_1804" data-name="Path 1804" d="M208.2,196.457s-1.293-12.793-3.355-16.386l-31.312-6.377v-2.427s.722-4.219-6.258-6.861-21.525.793-25.277,3.632-2.379,7.725-2.379,7.725-12.611,6.369-18.274,8.8a144.7,144.7,0,0,0-13.539,7.138s-2.57,29.409-2.062,36.238-.412,13.253.174,17.036,1.047,5.933,5.013,9.153,7.574,7.931,17.972,3.26l-1.451-1.15L195.9,233.178Z" opacity="0.3"/>
        <path id="Path_1805" data-name="Path 1805" d="M208.2,196.457s-1.293-12.793-3.355-16.386l-31.312-6.377v-2.427s.722-4.219-6.258-6.861-21.525.793-25.277,3.632-2.379,7.725-2.379,7.725-12.611,6.369-18.274,8.8a144.7,144.7,0,0,0-13.539,7.138s-2.57,29.409-2.062,36.238-.412,13.253.174,17.036,1.047,5.933,5.013,9.153,7.574,7.931,17.972,3.26l-1.451-1.15L195.9,233.178Z" fill="#7e57c2"/>
        <path id="Path_1806" data-name="Path 1806" d="M208.2,196.457s-1.293-12.793-3.355-16.386l-31.312-6.377v-2.427s.722-4.219-6.258-6.861-21.525.793-25.277,3.632-2.379,7.725-2.379,7.725-12.611,6.369-18.274,8.8a144.7,144.7,0,0,0-13.539,7.138s-2.57,29.409-2.062,36.238-.412,13.253.174,17.036,1.047,5.933,5.013,9.153,7.574,7.931,17.972,3.26l-1.451-1.15L195.9,233.178Z" opacity="0.05"/>
        <path id="Path_1807" data-name="Path 1807" d="M205.26,181.625h-13.1a5.211,5.211,0,0,0-5.131,4.354l-6.456,38.863s-8.891.738-15.188,5.33S143.595,202,119.119,201.985c0,0,7.043,16.1,8.605,28.949,0,0-15.3-1.666-17.837,4.323s1.15,17.211,7.622,12.864,12.563-11.6,16.886-7.011,23.635,7.051,23.635,7.051l29.718-14.982,11.524-5.417Z" opacity="0.1"/>
        <path id="Path_1808" data-name="Path 1808" d="M163.661,162.36s7.439,2.062,8.645,4.56,1.079,8.82,1.079,8.82a30.535,30.535,0,0,1-8,11.009L159.83,175.74l.5,12.484s-10.533-1.753-15.006-5.116l-4.465-3.371s-1.927-6.345-1.65-8.494,8.312-6.512,8.312-6.512Z" fill="#fff" opacity="0.4"/>
        <path id="Path_1809" data-name="Path 1809" d="M287.578,354.859c-.206-.452,3.054-6.21.5-12.071s-6.623-3.6-6.623-3.6-11.587-7.376-16.457-9.708a83.042,83.042,0,0,1-10.112-6.012l-5.147,6.932,4.759,14.72Z" fill="#7e57c2"/>
        <path id="Path_1810" data-name="Path 1810" d="M281.035,338.83l14.879,9.089s10.461-6.71,15.45-11.342,16.2-14.5,16.2-14.5l7.138-9.6s-4.949-6.123-13.2-1.206c-10.66,6.345-23.659,15.561-32.328,15.474,0,0,1.705,10.652-8.082,12.087" fill="#7e57c2"/>
        <path id="Path_1811" data-name="Path 1811" d="M161.139,123.91s6.749,10.215,7.979,13.523,2.221,8.2,1.975,10.556-2.72,14.974-3.966,15.339l-1.2,1.356.793,5.346s-5.282,9.129-20.812,2.435c0,0-.6-10.66-2.49-14.007s-4.711.634-7.543-9.034,6.186-19.828,6.186-19.828Z" fill="#fff"/>
        <path id="Path_1812" data-name="Path 1812" d="M328.218,309.492s-7.654,1.332-10.136,5.861-7.249,12.944-8.875,17.013-15.069,13.9-15.069,13.9l1.785,1.658s10.945-6.765,17.552-13.2S334.65,312.11,334.65,312.11,333.6,311.071,328.218,309.492Z" fill="#fff" opacity="0.5"/>
        <path id="Path_1813" data-name="Path 1813" d="M251.634,327.853l-1.9,2.546,5.822,12.071,32.018,11.508,1.483-4.687s.492-4.759-10.747-8.375-18.091-6-21.287-8.486S251.634,327.853,251.634,327.853Z" fill="#fff" opacity="0.5"/>
        <path id="Path_1814" data-name="Path 1814" d="M145.935,238.2s-9.8-1.475-14.379,6.543-4.108,11.492-4.108,11.492,6.48,5.885,15.387,5.552,21.874-10.533,26.1-13.856,14.887-12.833,22.16-10.866l.793-6.876s-.714-3.085-6.932-2.252-8.661,4.378-10.668,4.378-3.9-1.927-7.931,4.957C166.35,237.271,152.208,239.777,145.935,238.2Z" fill="#fff"/>
        <path id="Path_1815" data-name="Path 1815" d="M158.672,138.6a28.4,28.4,0,0,0,.888,3.8,4.426,4.426,0,0,0,.793,1.673,5.127,5.127,0,0,0,3.054,1.166.833.833,0,0,1,.492.206.793.793,0,0,1,.119.476,6.345,6.345,0,0,1-1.079,3.506" fill="none" stroke="#263238" stroke-linecap="round" stroke-linejoin="round" stroke-width="0.793"/>
        <path id="Path_1816" data-name="Path 1816" d="M258.209,319.629l-6.575,8.193s7.217,6.67,14.689,9.145,20.55,7.138,22.739,10.731l-.841-4.275s-20.455-12.547-25.15-15.545a10.834,10.834,0,0,1-4.862-8.249Z" opacity="0.1"/>
        <path id="Path_1817" data-name="Path 1817" d="M281.035,338.83l13.094,7.432a82.219,82.219,0,0,0,9.636-7.685c3.172-3.26,7.083-6.876,9.517-14.181,3.323-10.1,12.841-14.9,12.841-14.9s-13.237,6.234-20.129,11.1-13.61,6.932-17.512,6.6C288.443,327.219,291.576,337.133,281.035,338.83Z" opacity="0.1"/>
        <path id="Path_1818" data-name="Path 1818" d="M154.056,151.225s5.147,4.037,10.493,2.522C164.549,153.747,159.5,163.74,154.056,151.225Z" fill="#fff" stroke="#263238" stroke-linecap="round" stroke-linejoin="round" stroke-width="0.793"/>
        <path id="Path_1819" data-name="Path 1819" d="M153.866,142.5c.151,1.11-.19,2.07-.746,2.149s-1.134-.793-1.285-1.88.182-2.07.746-2.149S153.747,141.39,153.866,142.5Z" fill="#263238"/>
        <path id="Path_1820" data-name="Path 1820" d="M165.073,140.478c.143,1.118-.19,2.078-.746,2.149s-1.142-.793-1.285-1.872.182-2.078.746-2.149S164.922,139.368,165.073,140.478Z" fill="#263238"/>
        <path id="Path_1821" data-name="Path 1821" d="M153.073,137.789a3.922,3.922,0,0,0-5.132,1.769" fill="none" stroke="#263238" stroke-linecap="round" stroke-linejoin="round" stroke-width="0.793"/>
        <path id="Path_1822" data-name="Path 1822" d="M160.758,135.727s3.172-2.72,5,0" fill="none" stroke="#263238" stroke-linecap="round" stroke-linejoin="round" stroke-width="0.793"/>
        <path id="Path_1823" data-name="Path 1823" d="M142.889,148s-1.927-2.847-3.966-2.76-2.847,2.942-2.118,5.7,3.767,6.615,6.067,6.25a5.108,5.108,0,0,0,3.307-1.84" fill="none" stroke="#263238" stroke-linecap="round" stroke-linejoin="round" stroke-width="0.793"/>
        <path id="Path_1824" data-name="Path 1824" d="M161.369,126.21c2.165,1.8,4.457,3.759,5.552,6.408.968,2.252,1.182,4.759,2.07,7.035a23.53,23.53,0,0,1,2.054,7.638,32.352,32.352,0,0,1-.96,7.289,40.173,40.173,0,0,1-1.467,6.1,10.793,10.793,0,0,1-5.695,5.948c-1.927.983-5.139,2.379-7.225,1.063-1.213-.793-3.038-3.061-4.553-5.147" fill="none" stroke="#263238" stroke-linecap="round" stroke-linejoin="round" stroke-width="0.793"/>
        <path id="Path_1825" data-name="Path 1825" d="M142.889,157.189s3.41,8.36,2.586,14.237" fill="none" stroke="#263238" stroke-linecap="round" stroke-linejoin="round" stroke-width="0.793"/>
        <path id="Path_1826" data-name="Path 1826" d="M142.017,146.593a3.284,3.284,0,0,0,1.317-2.942c-.127-1.285-1.015-2.475-.841-3.759a6.923,6.923,0,0,1,.682-1.761,7.384,7.384,0,0,0-.412-6.678s10.834.508,15.91-2.72,8.946-11.484,5.877-15.426-9.05,1.436-13.483,2.03-20.2,3.109-22.715,9.184,1.317,8.256,1.436,14.054.119,16.782,8.788,15.775c0,0-3.244-4.2-.991-8.518C139.114,144.015,142.017,146.593,142.017,146.593Z" fill="#263238"/>
        <path id="Path_1827" data-name="Path 1827" d="M163.264,120.158a13.594,13.594,0,0,1,5.187,9.517c.484,4.346,8.193,12.793,2.633,17.607,0,0-1.293-5.116-2.054-7.638s-1.737-7.138-3.014-8.724-8.05-7.138-8.05-7.138Z" fill="#263238"/>
        <path id="Path_1828" data-name="Path 1828" d="M143.888,171.243s5.346,3.521,15.276,3.664l1.166,13.317s-11.167-.849-19.471-8.486c0,0-2.245-5.941-1.65-8.494s5.933-5.084,5.933-5.084" fill="none" stroke="#263238" stroke-linecap="round" stroke-linejoin="round" stroke-width="0.793"/>
        <path id="Path_1829" data-name="Path 1829" d="M166.35,165.287l.317,4.759a19.685,19.685,0,0,1-7.5,4.878l6.218,11.841s7.416-5.774,8.153-11.841c0,0,.063-6.21-1.229-7.987s-6-2.609-6-2.609" fill="none" stroke="#263238" stroke-linecap="round" stroke-linejoin="round" stroke-width="0.793"/>
        <path id="Path_1830" data-name="Path 1830" d="M136.259,128.486c.793-1.991,2.966-3.172,5.084-3.49a52.675,52.675,0,0,1,6.432-.151,16.513,16.513,0,0,0,8.407-2.379,11.239,11.239,0,0,0,5.076-6.948" fill="none" stroke="#fff" stroke-linecap="round" stroke-linejoin="round" stroke-width="0.793" opacity="0.8"/>
        <path id="Path_1831" data-name="Path 1831" d="M131.143,128.1c1.34-4.069,5.687-6.583,9.962-6.94,2.118-.182,4.259.063,6.345-.182s4.307-1.118,5.409-2.935" fill="none" stroke="#fff" stroke-linecap="round" stroke-linejoin="round" stroke-width="0.793" opacity="0.8"/>
        <path id="Path_1832" data-name="Path 1832" d="M128.89,257.384c-10.311,5.346-13.975-.159-19.717-4.711S107.2,239.983,106,226.936s1.785-35.238,1.785-35.238,2.57-.587,9.7-4.949,22.136-11.009,22.136-11.009" fill="none" stroke="#263238" stroke-linecap="round" stroke-linejoin="round" stroke-width="0.793"/>
        <path id="Path_1833" data-name="Path 1833" d="M139.106,237.636s-1.634-5.179-6.25-5.314-11.9,1.943-17.084,11.754" fill="none" stroke="#263238" stroke-linecap="round" stroke-linejoin="round" stroke-width="0.793"/>
        <path id="Path_1834" data-name="Path 1834" d="M131.8,232.012a2.554,2.554,0,0,1-.833-.2,20.074,20.074,0,0,0-11.849-.539" fill="none" stroke="#263238" stroke-linecap="round" stroke-linejoin="round" stroke-width="0.793"/>
        <path id="Path_1835" data-name="Path 1835" d="M116.462,198.78c8.4,9.28,12.492,21.557,16.37,33.454" fill="none" stroke="#263238" stroke-linecap="round" stroke-linejoin="round" stroke-width="0.793"/>
        <path id="Path_1836" data-name="Path 1836" d="M173.535,173.694s15.228,3.633,22.667,4.5,8.645,1.9,8.645,1.9l1.388,5.187" fill="none" stroke="#263238" stroke-linecap="round" stroke-linejoin="round" stroke-width="0.793"/>
        <path id="Path_1837" data-name="Path 1837" d="M244.5,182.72l-51.862,1.991L188.4,238.048h8.883l45.034-10.081L247.978,184Z" fill="#fff"/>
        <path id="Path_1838" data-name="Path 1838" d="M191.1,239.626l56.724-54.369-5.5,42.71Z" fill="#7e57c2"/>
        <path id="Path_1839" data-name="Path 1839" d="M191.1,239.626l56.724-54.369-5.5,42.71Z" fill="#fff" opacity="0.7"/>
        <path id="Path_1840" data-name="Path 1840" d="M191.1,238.2l4.537-51.45L247.978,184l-5.663,43.971Z" fill="none" stroke="#263238" stroke-linecap="round" stroke-linejoin="round" stroke-width="0.793"/>
        <path id="Path_1841" data-name="Path 1841" d="M225.913,208.924c-.349,3.133-2.022,5.512-3.736,5.322s-2.808-2.895-2.459-6.028,2.03-5.512,3.744-5.322S226.27,205.792,225.913,208.924Z" fill="#263238"/>
        <path id="Path_1842" data-name="Path 1842" d="M242.315,227.967s23.968-.682,31.463,4.267,11.9,29.766,10.858,42.948-10.081,43.431-10.081,43.431l-17.322-19.606s-8.534-31.027-3.878-43.178c0,0-23,1.293-32.058-1.547,0,0-8.114-13.285-22.025-17.679Z" fill="#263238"/>
        <path id="Path_1843" data-name="Path 1843" d="M278.212,319.129a118.823,118.823,0,0,1-16.481-19.035,156.832,156.832,0,0,0-31.891-35.08c-9.6-7.788-11.778-20.478-23.627-26.847-19.63-10.525-36.6,10.39-42.948,14.625s-17.33,9.034-17.33,9.034,4.013,15.069,15.8,16.854,23.706-6.345,29.346-2.419,9.811,21.454,28.433,31.725c15.22,8.391,35.96,16.576,46.659,22.1,2.379,1.237,4.156,2.538,5.5,3.276,3.7,2.015,7.646,4.386,11.373,6.734l12.841,7.82s12.888-7.622,17.837-14.649c.658-.944,2.03-3.458,3.315-5.885,2.8-5.306,6.345-10.065,11.254-12.69,3.395-1.832,6.416-2.379,6.345-2.57-.325-.6-6.48-3.751-10.66-2.03-8.851,3.656-26.546,17.7-34.9,16.656A62.521,62.521,0,0,1,278.212,319.129Z" fill="none" stroke="#263238" stroke-miterlimit="10" stroke-width="0.793"/>
        <path id="Path_1844" data-name="Path 1844" d="M278.212,319.129c-7.717,3.117-10.826,7.931-12.016,10.961-10.7-5.552-31.439-13.705-46.659-22.1-18.623-10.311-22.763-27.807-28.433-31.725s-17.6,4.235-29.346,2.419-15.823-16.87-15.823-16.87,10.993-4.759,17.338-8.994,20.978-25.158,42.94-14.625c12.127,5.814,14.022,19.035,23.627,26.847a156.711,156.711,0,0,1,31.891,35.08A116.587,116.587,0,0,0,278.212,319.129Z" fill="#263238"/>
        <path id="Path_1845" data-name="Path 1845" d="M220.219,251.888s-5.94-12.071-15.466-14.411" fill="none" stroke="#fff" stroke-linecap="round" stroke-linejoin="round" stroke-width="0.793"/>
        <path id="Path_1846" data-name="Path 1846" d="M189.081,227.856c-6.551-1.428-13.745,5.814-16.775,4.457-2.252-1.007-5.956,4.957-5.956,4.957a99.231,99.231,0,0,1-18.416.928c-8.827-.563-13.007,1.158-16.132,5.877l-4.362,11.556s11.508,10.311,23.794,4.307,28.608-24.119,39.854-24.055" fill="none" stroke="#263238" stroke-linecap="round" stroke-linejoin="round" stroke-width="0.793"/>
        <path id="Path_1847" data-name="Path 1847" d="M280.536,338.521s10.755.88,8.233-11.968" fill="none" stroke="#263238" stroke-miterlimit="10" stroke-width="0.793"/>
        <path id="Path_1848" data-name="Path 1848" d="M331.216,318.613c-.793,1.586-10.652,9.977-19.146,17.314,0-.111,2.379-4.592,3.363-6.5,2.26-4.219,8.1-15.791,19.209-17.314C336.221,313.062,331.216,318.613,331.216,318.613Z" fill="#263238"/>
        <path id="Path_1849" data-name="Path 1849" d="M326.989,309.58c-11.239,2.237-13.792,16.656-17.782,22.786s-15.069,14.467-15.069,14.467" fill="none" stroke="#263238" stroke-miterlimit="10" stroke-width="0.793"/>
        <path id="Path_1850" data-name="Path 1850" d="M288.078,343.153c1.832,3.347.968,7.233,0,9.668a20.181,20.181,0,0,1-1.761,3.466c-15.91-2.617-31.82-11.167-31.82-11.167l-4.1-12.69-.658-2.03,6.178-8.32" fill="none" stroke="#263238" stroke-miterlimit="10" stroke-width="0.793"/>
        <path id="Path_1851" data-name="Path 1851" d="M288.078,352.821a20.181,20.181,0,0,1-1.761,3.466c-15.91-2.617-31.82-11.167-31.82-11.167l-4.1-12.69a22.684,22.684,0,0,0,11.572,8.217C269.717,342.843,284.017,345.413,288.078,352.821Z" fill="#263238"/>
        <path id="Path_1852" data-name="Path 1852" d="M188.4,236.192l4.235-51.482L244.5,182.72,247.978,184" fill="none" stroke="#263238" stroke-linecap="round" stroke-linejoin="round" stroke-width="0.793"/>
        <path id="Path_1853" data-name="Path 1853" d="M288.7,332.366s7.091,1.269,12.539-3.172,14.229-14.49,14.229-14.49" fill="none" stroke="#263238" stroke-miterlimit="10" stroke-width="0.793"/>
        <path id="Path_1854" data-name="Path 1854" d="M295.914,325.974s-1.713,2.578,0,7.749" fill="none" stroke="#263238" stroke-linecap="round" stroke-linejoin="round" stroke-width="0.793"/>
        <path id="Path_1855" data-name="Path 1855" d="M300.943,323.507a10.556,10.556,0,0,0,.642,7.749" fill="none" stroke="#263238" stroke-linecap="round" stroke-linejoin="round" stroke-width="0.793"/>
        <path id="Path_1856" data-name="Path 1856" d="M306.939,320.033s-1.436,4.307,0,8.106" fill="none" stroke="#263238" stroke-linecap="round" stroke-linejoin="round" stroke-width="0.793"/>
        <path id="Path_1857" data-name="Path 1857" d="M257.321,321.009l-5.687,6.845a35.988,35.988,0,0,0,13.808,8.859c8.082,2.6,22.517,7.019,23.714,11.722" fill="none" stroke="#263238" stroke-miterlimit="10" stroke-width="0.793"/>
      </g>
    </g>
  </g>
</svg>
