<svg id="Basic_Invest_Vector" data-name="Basic Invest Vector" xmlns="http://www.w3.org/2000/svg" width="491.573" height="310.229" viewBox="0 0 491.573 310.229">
  <g id="Data_report-pana" data-name="Data report-pana" transform="translate(-40.469 -69.003)">
    <g id="freepik--background-complete--inject-2" transform="translate(142.286 69.003)">
      <rect id="Rectangle_395" data-name="Rectangle 395" width="4.689" height="36.732" transform="translate(263.28 185.033) rotate(-90)" fill="#e0e0e0"/>
      <path id="Path_1890" data-name="Path 1890" d="M472.5,299.42a10.714,10.714,0,0,1,0,4.389A10.323,10.323,0,0,1,472.5,299.42Z" transform="translate(-204.211 -118.885)" fill="#fafafa"/>
      <path id="Path_1891" data-name="Path 1891" d="M471.577,299.31a10.718,10.718,0,0,1,0,4.389,10.713,10.713,0,0,1,0-4.389Z" transform="translate(-204.096 -118.867)" fill="#fafafa"/>
      <path id="Path_1892" data-name="Path 1892" d="M505.557,299.42a10.322,10.322,0,0,1,0,4.389A10.711,10.711,0,0,1,505.557,299.42Z" transform="translate(-208.393 -118.885)" fill="#fafafa"/>
      <ellipse id="Ellipse_175" data-name="Ellipse 175" cx="0.227" cy="2.195" rx="0.227" ry="2.195" transform="translate(296.142 180.443)" fill="#fafafa"/>
      <path id="Path_1893" data-name="Path 1893" d="M496.459,302.12c0,.117-4.2.217-9.39.217s-9.4-.1-9.4-.217q4.691-.338,9.4-.225,4.7-.113,9.39.225Z" transform="translate(-204.895 -119.29)" fill="#fafafa"/>
      <rect id="Rectangle_396" data-name="Rectangle 396" width="9.371" height="36.732" transform="translate(263.123 210.816) rotate(-90)" fill="#e0e0e0"/>
      <path id="Path_1894" data-name="Path 1894" d="M503.822,331.374a.884.884,0,0,1-.2.109c-.131.067-.341.159-.611.267a10.864,10.864,0,0,1-2.49.684,6.716,6.716,0,0,1-4.036-.551,5.256,5.256,0,0,1-1.922-1.669,3.737,3.737,0,0,1-.673-2.7,2.767,2.767,0,0,1,.681-1.393,1.934,1.934,0,0,1,1.546-.667,2.236,2.236,0,0,1,1.555.834,2.832,2.832,0,0,1,.716,1.594,4.171,4.171,0,0,1-1.267,3.338,5.725,5.725,0,0,1-3.494,1.669,9.876,9.876,0,0,1-4.106-.484,7.617,7.617,0,0,1-3.607-2.32,3.66,3.66,0,0,1-.874-2.019,2.56,2.56,0,0,1,.786-2.111,1.788,1.788,0,0,1,1.144-.476,2.135,2.135,0,0,1,1.205.317,3.037,3.037,0,0,1,1.345,1.894,4.3,4.3,0,0,1-1.441,4.13,7.437,7.437,0,0,1-4.141,1.61,10.738,10.738,0,0,1-4.289-.409,5.89,5.89,0,0,1-3.258-2.42,4.011,4.011,0,0,1-.411-3.721,2.022,2.022,0,0,1,1.5-1.21,2.407,2.407,0,0,1,1.852.426,2.851,2.851,0,0,1,.874,3.154,5.493,5.493,0,0,1-1.852,2.5,8.648,8.648,0,0,1-5.04,1.869,8.406,8.406,0,0,1-3.983-.834,7.85,7.85,0,0,1-2.088-1.477,4.887,4.887,0,0,1-.437-.484c-.1-.117-.14-.175-.131-.184a9.311,9.311,0,0,0,2.734,1.994,8.265,8.265,0,0,0,8.735-1.093A5.152,5.152,0,0,0,479.9,329.2a2.5,2.5,0,0,0-.769-2.77,2.036,2.036,0,0,0-1.537-.351,1.622,1.622,0,0,0-1.205.993,3.62,3.62,0,0,0,.4,3.338,5.444,5.444,0,0,0,3.04,2.228,10.037,10.037,0,0,0,4.1.375,6.91,6.91,0,0,0,3.87-1.5,3.877,3.877,0,0,0,1.31-3.7,2.611,2.611,0,0,0-1.144-1.619,1.457,1.457,0,0,0-1.791.108,2.113,2.113,0,0,0-.646,1.752,3.255,3.255,0,0,0,.742,1.794A7.171,7.171,0,0,0,489.627,332a9.4,9.4,0,0,0,3.9.476,5.281,5.281,0,0,0,3.285-1.5A3.824,3.824,0,0,0,498,327.953a2.28,2.28,0,0,0-1.9-2.1,1.631,1.631,0,0,0-1.275.551,2.555,2.555,0,0,0-.612,1.235,3.454,3.454,0,0,0,.594,2.5,5.019,5.019,0,0,0,1.8,1.594,6.577,6.577,0,0,0,3.887.592,12.029,12.029,0,0,0,2.481-.592A5.676,5.676,0,0,1,503.822,331.374Z" transform="translate(-203.505 -123.195)" fill="#fafafa"/>
      <rect id="Rectangle_397" data-name="Rectangle 397" width="16.263" height="33.447" transform="translate(266.398 201.429) rotate(-90)" fill="#ebebeb"/>
      <path id="Path_1895" data-name="Path 1895" d="M476.693,305.64a65.6,65.6,0,0,1,.236,7.869,65.622,65.622,0,0,1-.236,7.868,69.165,69.165,0,0,1-.227-7.868A69.169,69.169,0,0,1,476.693,305.64Z" transform="translate(-204.739 -119.915)" fill="#e0e0e0"/>
      <path id="Path_1896" data-name="Path 1896" d="M479.6,305.39a67.5,67.5,0,0,1,.227,7.768,67.607,67.607,0,0,1-.227,7.777,64.079,64.079,0,0,1-.236-7.777,64.039,64.039,0,0,1,.236-7.768Z" transform="translate(-205.106 -119.873)" fill="#e0e0e0"/>
      <path id="Path_1897" data-name="Path 1897" d="M504.293,304.77a70.881,70.881,0,0,1,.236,8.177,70.956,70.956,0,0,1-.236,8.186,74.908,74.908,0,0,1-.227-8.186,74.771,74.771,0,0,1,.227-8.177Z" transform="translate(-208.23 -119.771)" fill="#e0e0e0"/>
      <path id="Path_1898" data-name="Path 1898" d="M500.883,305a67.354,67.354,0,0,1,.236,7.969,67.416,67.416,0,0,1-.236,7.977,68.716,68.716,0,0,1-.227-7.977A68.614,68.614,0,0,1,500.883,305Z" transform="translate(-207.798 -119.809)" fill="#e0e0e0"/>
      <rect id="Rectangle_398" data-name="Rectangle 398" width="225.491" height="142.878" transform="translate(67.253 0)" fill="#e0e0e0"/>
      <path id="Path_1902" data-name="Path 1902" d="M245.146,444.021c-.978-.834-3.171-3.338-1.476-6.317.611-1.085,1.931-1.619,3.118-2.1a12.787,12.787,0,0,0,3.433-1.669c1.852-1.51,2.367-4.022,3.6-6.033a7.95,7.95,0,0,1,6.848-3.922c3.2.142,5.861,2.628,7.076,5.474s1.249,6.008,1.275,9.078c0,1.669-.07,3.613-1.371,4.756s-3.014,1.068-4.647,1.026l-17.47-.517" transform="translate(-175.22 -139.508)" fill="#f5f5f5"/>
      <path id="Path_1903" data-name="Path 1903" d="M277.057,393H231.11l8.272,47.145a5.359,5.359,0,0,0,3.922,4.172l.166.042a2.686,2.686,0,0,1,.411.1,6.625,6.625,0,0,0,.935.109v.042h20.711a6.122,6.122,0,0,0,1.118-.108,5.4,5.4,0,0,0,4.647-4.606l3.992-32.484.183-1.293h0l1.581-12.858Zm-8.674,30.039h-4.708l.472-13.676h5.459Zm1.686-13.676h4.516l-1.642,13.676H268.89ZM256.6,438.209l-.253-11.882h6.787l-.411,11.89Zm-7.346-11.891h6.6l.288,11.891h-5.914Zm.515,11.891h-5.529c-.533-3.213-1.214-7.385-1.957-11.891H248.8Zm-.777-15.17-1.118-13.676h7.6l.332,13.676Zm7.242,0-.332-13.676h7.792l-.48,13.676Zm-.411-16.964-.306-12.667h8.735l-.437,12.667Zm-.454,0h-7.757l-1.031-12.667h8.482Zm-8.211,0h-8.211c-.288-1.744-.568-3.4-.812-4.89-.874-5.123-1.179-7.051-1.363-7.777h9.355Zm.262,3.288,1.118,13.676h-6.787c-.236-1.385-.463-2.787-.7-4.172-.524-3.229-1.057-6.458-1.564-9.479ZM241.3,423.039h-4.437l-2.4-13.676h4.577c.708,4.231,1.459,8.937,2.245,13.676Zm.533,3.279c.681,4.114,1.345,8.169,1.957,11.891h-4.263l-2.088-11.891Zm21.323,11.891.419-11.891h4.534l-1.066,11.891Zm1.118-32.134.446-12.666h6.333l-1.135,12.666Zm-27.953-12.666c.183.918,1.022,5.9,2.14,12.666h-4.612l-2.219-12.666Zm34.7,44.8h-3.547l1.1-11.882h3.948Zm3.948-32.134h-4.647l1.136-12.666h5.049Z" transform="translate(-173.711 -134.38)" fill="#e0e0e0"/>
      <rect id="Rectangle_403" data-name="Rectangle 403" width="96.481" height="25.959" rx="3.23" transform="translate(0 160.442)" fill="#e0e0e0"/>
      <ellipse id="Ellipse_176" data-name="Ellipse 176" cx="5.879" cy="5.641" rx="5.879" ry="5.641" transform="translate(9.871 168.586)" fill="#f5f5f5"/>
      <path id="Path_1907" data-name="Path 1907" d="M186.254,289.56a23.679,23.679,0,0,1-3.162,3.263c-.262.25-.524.484-.777.717l-.157.15-.149-.15a15.94,15.94,0,0,1-2.358-2.562,16.745,16.745,0,0,1,2.673,2.261h-.314l.769-.726a23.812,23.812,0,0,1,3.477-2.954Z" transform="translate(-167.202 -117.252)" fill="#e0e0e0"/>
      <path id="Path_1908" data-name="Path 1908" d="M256.625,288.477c0,.117-12.954.217-28.922.217s-28.922-.1-28.922-.217,12.946-.217,28.922-.217S256.625,288.352,256.625,288.477Z" transform="translate(-169.622 -117.037)" fill="#fafafa"/>
      <path id="Path_1909" data-name="Path 1909" d="M256.895,294.107c0,.125-12.954.217-28.922.217s-28.922-.092-28.922-.217,12.946-.217,28.922-.217S256.895,293.982,256.895,294.107Z" transform="translate(-169.656 -117.969)" fill="#fafafa"/>
    </g>
    <g id="freepik--Floor--inject-2" transform="translate(40.469 378.214)">
      <path id="Path_1919" data-name="Path 1919" d="M535.793,453.847c0,.125-110.053.217-245.772.217s-245.8-.092-245.8-.217,110.031-.217,245.8-.217S535.793,453.73,535.793,453.847Z" transform="translate(-44.22 -453.63)" fill="#263238"/>
    </g>
    <g id="freepik--Screens--inject-2" transform="translate(72.859 72.324)">
      <rect id="Rectangle_409" data-name="Rectangle 409" width="233.519" height="146.316" transform="translate(127.202 0.259)" fill="#fafafa"/>
      <path id="Path_1920" data-name="Path 1920" d="M460.413,233.614c0-1.41-.07-57.074-.183-146.315l.183.175h-233.5l.227-.217V233.572l-.21-.2,233.519.2-233.519.2h-.21V87.04h.245l233.5.05h.183v.167C460.483,176.54,460.413,232.2,460.413,233.614Z" transform="translate(-99.692 -87.04)" fill="#263238"/>
      <path id="Path_1921" data-name="Path 1921" d="M308.6,184.18l22.965.309c-.175,11.682-10.482,21.219-22.965,21.219h-.14Z" transform="translate(-110.031 -103.124)" fill="#455a64"/>
      <path id="Path_1922" data-name="Path 1922" d="M347.753,216.493a2.939,2.939,0,0,1-.5,0h-1.4l-5.136.058h-.044l-.044-.05c-2.053-2.462-4.691-5.649-7.573-9.12l-6.115-7.435.122.05-6.761-.058-1.9.042a3.29,3.29,0,0,1-.673,0,4.276,4.276,0,0,1,.673-.042h1.887l6.761-.058h.07v.05l6.115,7.418,7.512,9.179-.1-.05,5.136.058h1.4A2.372,2.372,0,0,1,347.753,216.493Z" transform="translate(-111.203 -105.724)" fill="#263238"/>
      <path id="Path_1923" data-name="Path 1923" d="M359.377,222.787c0,.092-3.328.167-7.434.167s-7.434-.075-7.434-.167,3.328-.167,7.434-.167S359.377,222.7,359.377,222.787Z" transform="translate(-114.59 -109.489)" fill="#263238"/>
      <path id="Path_1924" data-name="Path 1924" d="M359.377,225.967c0,.092-3.328.167-7.434.167s-7.434-.075-7.434-.167,3.328-.167,7.434-.167A73.176,73.176,0,0,1,359.377,225.967Z" transform="translate(-114.59 -110.016)" fill="#263238"/>
      <path id="Path_1925" data-name="Path 1925" d="M301.134,176.17,300.81,197.7c-12.474-.167-22.65-9.829-22.65-21.528s10.369-21.52,22.974-21.52,22.974,9.713,22.974,21.52Z" transform="translate(-106.198 -98.235)" fill="#7e57c2"/>
      <path id="Path_1926" data-name="Path 1926" d="M291.187,169.334a1.712,1.712,0,0,1-.393.083l-1.144.175-4.123.559h-.07l-.052-.05-5.5-5.115c-2.621-2.5-5.023-4.731-6.735-6.375l-2.009-1.961a5.823,5.823,0,0,1-.708-.751,5.54,5.54,0,0,1,.8.659l2.088,1.877c1.747,1.6,4.158,3.83,6.8,6.308l5.46,5.157h-.122l4.149-.434,1.144-.1A1.178,1.178,0,0,1,291.187,169.334Z" transform="translate(-105.223 -98.442)" fill="#263238"/>
      <path id="Path_1927" data-name="Path 1927" d="M261.639,154.747c0,.092-3.328.167-7.434.167s-7.425-.075-7.425-.167,3.319-.167,7.425-.167S261.639,154.655,261.639,154.747Z" transform="translate(-102.229 -98.223)" fill="#263238"/>
      <path id="Path_1928" data-name="Path 1928" d="M261.639,157.9c0,.092-3.328.167-7.434.167s-7.425-.075-7.425-.167,3.319-.167,7.425-.167S261.639,157.805,261.639,157.9Z" transform="translate(-102.229 -98.745)" fill="#263238"/>
      <path id="Path_1929" data-name="Path 1929" d="M393.941,126.831l-.087-13.351a18.384,18.384,0,0,0-11.557,4.306,15.487,15.487,0,0,0-5.564,13.851,17.746,17.746,0,0,0,.332,1.944.1.1,0,0,0,0,.05h0L393.932,130Z" transform="translate(-118.65 -91.418)" fill="#7e57c2"/>
      <g id="Group_343" data-name="Group 343" transform="translate(257.962 22.062)" opacity="0.3">
        <path id="Path_1930" data-name="Path 1930" d="M393.941,126.831l-.087-13.351a18.384,18.384,0,0,0-11.557,4.306,15.487,15.487,0,0,0-5.564,13.851,17.746,17.746,0,0,0,.332,1.944.1.1,0,0,0,0,.05h0L393.932,130Z" transform="translate(-376.612 -113.48)" fill="#fff"/>
      </g>
      <path id="Path_1931" data-name="Path 1931" d="M414.1,122.734a16.592,16.592,0,0,0-13.618-9.1l-.533-.05H398.5l.1,13.351v3.137l16.938,3.5h0a14.829,14.829,0,0,0,.376-3.463A16.648,16.648,0,0,0,414.1,122.734Z" transform="translate(-121.419 -91.435)" fill="#7e57c2"/>
      <g id="Group_344" data-name="Group 344" transform="translate(277.081 22.145)" opacity="0.3">
        <path id="Path_1932" data-name="Path 1932" d="M414.1,122.734a16.592,16.592,0,0,0-13.618-9.1l-.533-.05H398.5l.1,13.351v3.137l16.938,3.5h0a14.829,14.829,0,0,0,.376-3.463A16.648,16.648,0,0,0,414.1,122.734Z" transform="translate(-398.5 -113.58)"/>
      </g>
      <path id="Path_1933" data-name="Path 1933" d="M395.046,135.25l-16.876,3.63a17.486,17.486,0,0,0,33.77-.108l-16.877-3.521" transform="translate(-118.847 -95.023)" fill="#7e57c2"/>
      <path id="Path_1934" data-name="Path 1934" d="M467.028,132.325c0,.117-8.735.217-19.48.217s-19.488-.1-19.488-.217,8.735-.225,19.488-.225S467.028,132.2,467.028,132.325Z" transform="translate(-125.157 -94.501)" fill="#263238"/>
      <path id="Path_1935" data-name="Path 1935" d="M467.028,127.237c0,.117-8.735.217-19.48.217s-19.488-.1-19.488-.217,8.735-.217,19.488-.217S467.028,127.12,467.028,127.237Z" transform="translate(-125.157 -93.66)" fill="#263238"/>
      <path id="Path_1936" data-name="Path 1936" d="M467.028,122.157c0,.117-8.735.217-19.48.217s-19.488-.1-19.488-.217,8.735-.217,19.488-.217S467.028,122.032,467.028,122.157Z" transform="translate(-125.157 -92.819)" fill="#263238"/>
      <path id="Path_1937" data-name="Path 1937" d="M467.028,137.055c0,.117-8.735.217-19.48.217s-19.488-.1-19.488-.217,8.735-.225,19.488-.225S467.028,136.972,467.028,137.055Z" transform="translate(-125.157 -95.284)" fill="#263238"/>
      <path id="Path_1938" data-name="Path 1938" d="M454.985,142.2c0,.125-5.992.217-13.382.217s-13.382-.092-13.382-.217,5.992-.217,13.382-.217S454.985,142.08,454.985,142.2Z" transform="translate(-125.177 -96.137)" fill="#263238"/>
      <rect id="Rectangle_410" data-name="Rectangle 410" width="4.009" height="42.814" transform="translate(262.048 76.775)" fill="#7e57c2"/>
      <rect id="Rectangle_411" data-name="Rectangle 411" width="4.009" height="28.27" transform="translate(269.796 91.311)" fill="#7e57c2"/>
      <rect id="Rectangle_412" data-name="Rectangle 412" width="4.009" height="37.707" transform="translate(277.544 82.09)" fill="#7e57c2"/>
      <rect id="Rectangle_413" data-name="Rectangle 413" width="4.009" height="41.162" transform="translate(285.293 78.427)" fill="#7e57c2"/>
      <rect id="Rectangle_414" data-name="Rectangle 414" width="4.009" height="27.402" transform="translate(293.032 92.178)" fill="#7e57c2"/>
      <rect id="Rectangle_415" data-name="Rectangle 415" width="4.009" height="22.029" transform="translate(300.78 97.552)" fill="#7e57c2"/>
      <rect id="Rectangle_416" data-name="Rectangle 416" width="4.009" height="38.417" transform="translate(308.528 81.164)" fill="#7e57c2"/>
      <rect id="Rectangle_417" data-name="Rectangle 417" width="4.009" height="31.491" transform="translate(316.276 88.09)" fill="#7e57c2"/>
      <rect id="Rectangle_418" data-name="Rectangle 418" width="4.009" height="37.023" transform="translate(324.025 82.557)" fill="#7e57c2"/>
      <rect id="Rectangle_419" data-name="Rectangle 419" width="4.009" height="25.225" transform="translate(331.773 94.356)" fill="#7e57c2"/>
      <rect id="Rectangle_420" data-name="Rectangle 420" width="4.009" height="30.022" transform="translate(339.521 89.558)" fill="#7e57c2"/>
      <path id="Path_1939" data-name="Path 1939" d="M464.139,233.9c0,.083-19.034.159-42.514.159s-42.514-.075-42.514-.159,19.034-.159,42.514-.159S464.139,233.807,464.139,233.9Z" transform="translate(-118.966 -111.331)" fill="#263238"/>
      <path id="Path_1940" data-name="Path 1940" d="M386.977,237.969a29.608,29.608,0,0,1-5.957,0A28.069,28.069,0,0,1,386.977,237.969Z" transform="translate(-119.208 -112.005)" fill="#263238"/>
      <path id="Path_1941" data-name="Path 1941" d="M398.119,238.138a40.032,40.032,0,0,1-7.119,0,40.035,40.035,0,0,1,7.119,0Z" transform="translate(-120.47 -112.033)" fill="#263238"/>
      <path id="Path_1942" data-name="Path 1942" d="M407.769,238.138a40.032,40.032,0,0,1-7.119,0A40.038,40.038,0,0,1,407.769,238.138Z" transform="translate(-121.69 -112.033)" fill="#263238"/>
      <path id="Path_1943" data-name="Path 1943" d="M417.409,238.138a40.033,40.033,0,0,1-7.119,0,40.037,40.037,0,0,1,7.119,0Z" transform="translate(-122.91 -112.033)" fill="#263238"/>
      <path id="Path_1944" data-name="Path 1944" d="M427.059,238.138a40.033,40.033,0,0,1-7.119,0A40.039,40.039,0,0,1,427.059,238.138Z" transform="translate(-124.13 -112.033)" fill="#263238"/>
      <path id="Path_1945" data-name="Path 1945" d="M436.7,238.138a40.033,40.033,0,0,1-7.119,0,40.036,40.036,0,0,1,7.119,0Z" transform="translate(-125.349 -112.033)" fill="#263238"/>
      <path id="Path_1946" data-name="Path 1946" d="M446.349,238.138a40.033,40.033,0,0,1-7.119,0A40.038,40.038,0,0,1,446.349,238.138Z" transform="translate(-126.57 -112.033)" fill="#263238"/>
      <path id="Path_1947" data-name="Path 1947" d="M455.969,238.138a40.032,40.032,0,0,1-7.119,0A40.038,40.038,0,0,1,455.969,238.138Z" transform="translate(-127.787 -112.033)" fill="#263238"/>
      <path id="Path_1948" data-name="Path 1948" d="M465.639,238.138a40.031,40.031,0,0,1-7.119,0A40.037,40.037,0,0,1,465.639,238.138Z" transform="translate(-129.01 -112.033)" fill="#263238"/>
      <path id="Path_1949" data-name="Path 1949" d="M475.289,238.138a40.033,40.033,0,0,1-7.119,0,40.036,40.036,0,0,1,7.119,0Z" transform="translate(-130.23 -112.033)" fill="#263238"/>
      <g id="Group_345" data-name="Group 345" transform="translate(269.796 91.311)" opacity="0.3">
        <rect id="Rectangle_421" data-name="Rectangle 421" width="4.009" height="28.27" fill="#fff"/>
      </g>
      <g id="Group_346" data-name="Group 346" transform="translate(285.293 78.427)" opacity="0.3">
        <rect id="Rectangle_422" data-name="Rectangle 422" width="4.009" height="41.162" fill="#fff"/>
      </g>
      <g id="Group_347" data-name="Group 347" transform="translate(300.78 97.552)" opacity="0.3">
        <rect id="Rectangle_423" data-name="Rectangle 423" width="4.009" height="22.029" fill="#fff"/>
      </g>
      <g id="Group_348" data-name="Group 348" transform="translate(316.276 88.09)" opacity="0.3">
        <rect id="Rectangle_424" data-name="Rectangle 424" width="4.009" height="31.491" fill="#fff"/>
      </g>
      <g id="Group_349" data-name="Group 349" transform="translate(331.773 94.356)" opacity="0.3">
        <rect id="Rectangle_425" data-name="Rectangle 425" width="4.009" height="25.225" fill="#fff"/>
      </g>
      <path id="Path_1950" data-name="Path 1950" d="M258.279,119.578A3.7,3.7,0,0,1,255.895,123a4,4,0,0,1-4.221-.8,3.576,3.576,0,0,1-.837-4.032,3.876,3.876,0,0,1,3.582-2.278A3.778,3.778,0,0,1,258.279,119.578Z" transform="translate(-102.705 -91.817)" fill="#7e57c2"/>
      <path id="Path_1951" data-name="Path 1951" d="M327.007,116.777c0,.125-13.024.217-29.088.217s-29.088-.092-29.088-.217,13.016-.217,29.088-.217S327.007,116.66,327.007,116.777Z" transform="translate(-105.018 -91.928)" fill="#7e57c2"/>
      <path id="Path_1952" data-name="Path 1952" d="M292.247,122.127a3.367,3.367,0,0,1-.874.083l-2.455.075c-2.079,0-4.944.058-8.106.058s-6.036,0-8.106-.058l-2.463-.075a3.442,3.442,0,0,1-.874-.083,3.97,3.97,0,0,1,.874-.083c.585,0,1.424-.05,2.463-.067,2.07,0,4.935-.067,8.106-.067s6.027,0,8.106.067c1.039,0,1.878.042,2.455.067a3.88,3.88,0,0,1,.873.083Z" transform="translate(-105.086 -92.814)" fill="#7e57c2"/>
      <rect id="Rectangle_426" data-name="Rectangle 426" width="122.215" height="133.24" transform="translate(0.227 13.509)" fill="#fafafa"/>
      <path id="Path_1953" data-name="Path 1953" d="M203.75,236.424v-9.671c0-6.292,0-15.5-.052-27.185,0-23.364-.061-56.649-.1-96.376l.2.192H81.6l.227-.217V236.4l-.192-.184,88.505.125,24.791.05h.079l-24.747.05-88.767.092H81.3V103H203.951v.192c-.044,39.777-.079,73.1-.1,96.5,0,11.682-.044,20.86-.052,27.135v8.987A3.084,3.084,0,0,1,203.75,236.424Z" transform="translate(-81.3 -89.683)" fill="#263238"/>
      <path id="Path_1954" data-name="Path 1954" d="M195.434,184.163c0,.083-1.354-.651-3.931-1.427a26.469,26.469,0,0,0-11.268-.834,25.6,25.6,0,0,0-7.434,2.286,34.621,34.621,0,0,0-7.311,5.007c-2.393,2.019-4.778,4.314-7.521,6.433a26.326,26.326,0,0,1-9.609,4.956,14.941,14.941,0,0,1-5.6.325,19.1,19.1,0,0,1-5.2-1.527,92.578,92.578,0,0,1-8.735-4.948,27.485,27.485,0,0,0-8.176-3.5,25.271,25.271,0,0,0-7.783-.576,25.8,25.8,0,0,0-10.744,3.338c-2.306,1.343-3.389,2.353-3.494,2.286a4.28,4.28,0,0,1,.777-.734,19.157,19.157,0,0,1,2.5-1.819,25.531,25.531,0,0,1,18.859-3.154,28.41,28.41,0,0,1,8.421,3.521,91.823,91.823,0,0,0,8.648,4.856,15.394,15.394,0,0,0,10.246,1.151,25.9,25.9,0,0,0,9.4-4.74c2.708-2.078,5.093-4.356,7.53-6.383a35.171,35.171,0,0,1,7.5-5.057,25.906,25.906,0,0,1,19.121-1.185,19.806,19.806,0,0,1,2.883,1.185,5.686,5.686,0,0,1,.917.534Z" transform="translate(-83.492 -102.624)" fill="#7e57c2"/>
      <rect id="Rectangle_427" data-name="Rectangle 427" width="10.386" height="26.843" transform="translate(33.866 99.438)" fill="#7e57c2"/>
      <rect id="Rectangle_428" data-name="Rectangle 428" width="10.386" height="26.843" transform="translate(77.962 99.438)" fill="#7e57c2"/>
      <rect id="Rectangle_429" data-name="Rectangle 429" width="10.386" height="42.605" transform="translate(92.655 83.667)" fill="#7e57c2"/>
      <rect id="Rectangle_430" data-name="Rectangle 430" width="10.386" height="9.037" transform="translate(20.423 117.828)" fill="#7e57c2"/>
      <rect id="Rectangle_431" data-name="Rectangle 431" width="10.395" height="14.719" transform="translate(48.568 111.554)" fill="#7e57c2"/>
      <rect id="Rectangle_432" data-name="Rectangle 432" width="10.386" height="18.099" transform="translate(63.261 108.174)" fill="#7e57c2"/>
      <path id="Path_1955" data-name="Path 1955" d="M130.824,242.09c0,.217-2.516.4-5.617.4s-5.617-.184-5.617-.4,2.516-.4,5.617-.4S130.824,241.865,130.824,242.09Z" transform="translate(-86.143 -112.647)" fill="#263238"/>
      <path id="Path_1956" data-name="Path 1956" d="M116.023,242.09c0,.217-2.516.4-5.617.4s-5.617-.184-5.617-.4,2.516-.4,5.617-.4S116.023,241.865,116.023,242.09Z" transform="translate(-84.271 -112.647)" fill="#263238"/>
      <path id="Path_1957" data-name="Path 1957" d="M199.772,242.09c0,.217-2.839.4-6.342.4s-6.35-.184-6.35-.4,2.839-.4,6.35-.4S199.772,241.865,199.772,242.09Z" transform="translate(-94.679 -112.647)" fill="#263238"/>
      <ellipse id="Ellipse_177" data-name="Ellipse 177" cx="6.342" cy="0.401" rx="6.342" ry="0.401" transform="translate(76.975 129.043)" fill="#263238"/>
      <path id="Path_1958" data-name="Path 1958" d="M163.993,242.09c0,.217-2.516.4-5.617.4s-5.617-.184-5.617-.4,2.516-.4,5.617-.4S163.993,241.865,163.993,242.09Z" transform="translate(-90.338 -112.647)" fill="#263238"/>
      <path id="Path_1959" data-name="Path 1959" d="M146.6,242.09c0,.217-2.507.4-5.608.4s-5.617-.184-5.617-.4,2.516-.4,5.617-.4S146.6,241.865,146.6,242.09Z" transform="translate(-88.14 -112.647)" fill="#263238"/>
      <rect id="Rectangle_433" data-name="Rectangle 433" width="84.915" height="33.686" transform="translate(20.178 32.935)" fill="#e0e0e0"/>
      <path id="Path_1960" data-name="Path 1960" d="M123.452,138.51a3.97,3.97,0,1,1-3.966-3.78,3.879,3.879,0,0,1,3.966,3.78Z" transform="translate(-85.628 -94.937)" fill="#263238"/>
      <rect id="Rectangle_434" data-name="Rectangle 434" width="27.586" height="1.46" transform="translate(41.781 40.962)" fill="#263238"/>
      <rect id="Rectangle_435" data-name="Rectangle 435" width="53.66" height="1.46" transform="translate(41.781 44.291)" fill="#fff"/>
      <path id="Path_1961" data-name="Path 1961" d="M123.452,152.45a3.97,3.97,0,1,1-3.966-3.78,4.053,4.053,0,0,1,2.8,1.1A3.7,3.7,0,0,1,123.452,152.45Z" transform="translate(-85.628 -97.245)" fill="#7e57c2"/>
      <rect id="Rectangle_436" data-name="Rectangle 436" width="14.081" height="1.46" transform="translate(41.781 52.593)" fill="#7e57c2"/>
      <rect id="Rectangle_437" data-name="Rectangle 437" width="53.66" height="1.46" transform="translate(41.781 55.914)" fill="#fff"/>
    </g>
    <g id="freepik--character-1--inject-2" transform="translate(235.24 189.232)">
      <rect id="Rectangle_451" data-name="Rectangle 451" width="52.053" height="2.42" transform="translate(61.644 88.76)" fill="#263238"/>
      <path id="Path_2024" data-name="Path 2024" d="M333.677,329.485,323.92,294.54h40.636l8.84,34.945Z" transform="translate(-280.104 -238.306)" fill="#263238"/>
      <path id="Path_2025" data-name="Path 2025" d="M371.291,327.16h-36.3l-8.447-30.69h36.487Z" transform="translate(-280.435 -238.625)" fill="#f5f5f5"/>
      <path id="Path_2026" data-name="Path 2026" d="M327.143,298.681H363.63l-.62-2.211H326.54Z" transform="translate(-280.435 -238.625)" fill="#ebebeb"/>
      <path id="Path_2027" data-name="Path 2027" d="M331.74,297.724a.4.4,0,1,0,.4-.384A.393.393,0,0,0,331.74,297.724Z" transform="translate(-281.093 -238.769)" fill="#fafafa"/>
      <path id="Path_2028" data-name="Path 2028" d="M330.17,297.724a.4.4,0,1,0,.4-.384A.393.393,0,0,0,330.17,297.724Z" transform="translate(-280.895 -238.769)" fill="#fafafa"/>
      <path id="Path_2029" data-name="Path 2029" d="M328.6,297.724a.372.372,0,1,0,.4-.384A.394.394,0,0,0,328.6,297.724Z" transform="translate(-280.696 -238.769)" fill="#fafafa"/>
      <path id="Path_2030" data-name="Path 2030" d="M357.694,314.126l4,4.372a5.335,5.335,0,0,0,2.437-4.4c0-3.054-2.935-5.557-6.473-5.541s-6.447,2.5-6.429,5.591Z" transform="translate(-283.558 -240.627)" fill="#7e57c2"/>
      <path id="Path_2031" data-name="Path 2031" d="M357.113,316.057a8.761,8.761,0,0,1,1.144,1.093c.716.734,1.747,1.8,2.952,3.1l.14.15-.175.117a7.148,7.148,0,0,1-6.735.634,6.593,6.593,0,0,1-2.778-2.128,5.275,5.275,0,0,1-1.022-2.87V316h4.8a10.91,10.91,0,0,1,1.686.075,12.465,12.465,0,0,1-1.747.133c-1.1.05-2.621.1-4.525.15l.192-.2a5.1,5.1,0,0,0,1,2.645,6.159,6.159,0,0,0,2.621,1.969,6.888,6.888,0,0,0,6.333-.526v.267c-1.162-1.293-2.114-2.386-2.778-3.162A11.185,11.185,0,0,1,357.113,316.057Z" transform="translate(-283.484 -241.858)" fill="#263238"/>
      <path id="Path_2032" data-name="Path 2032" d="M355.06,311.212a.367.367,0,0,0,.367.35.359.359,0,0,0,.358-.35.35.35,0,0,0-.358-.342.367.367,0,0,0-.259.1A.334.334,0,0,0,355.06,311.212Z" transform="translate(-284.043 -241.009)" fill="#263238"/>
      <path id="Path_2033" data-name="Path 2033" d="M346.83,308.239a21.242,21.242,0,0,1,4.324-.234h.664l.07.058a16.8,16.8,0,0,1,2.5,2.67,17.4,17.4,0,0,1-2.821-2.361l.166.058h-.577a22.109,22.109,0,0,1-4.324-.192Z" transform="translate(-283.002 -240.531)" fill="#263238"/>
      <path id="Path_2034" data-name="Path 2034" d="M337.27,312.252a10.4,10.4,0,0,1-.419-1.611c-.245-1.06-.585-2.6-.987-4.5l-.044-.209h.227l9.032-.075c-.052,0,.428.342.227.184h0v.4l.079.409c.052.275.114.542.166.834.1.534.2,1.06.306,1.577.2,1.026.384,2.011.568,2.945l.044.234h-.245c-2.717,0-5-.042-6.586-.067l-1.826-.05a2.674,2.674,0,0,1-.62-.05,4.119,4.119,0,0,1,.7-.05l1.869-.058c1.6-.042,3.826-.092,6.464-.117l-.2.234-.524-2.97c-.1-.509-.21-1.035-.315-1.569-.052-.267-.114-.542-.166-.834l-.079-.409-.044-.209v-.184h0c-.2-.159.271.217.218.184h-9.067l.183-.209c.341,1.827.6,3.338.786,4.439S337.287,312.227,337.27,312.252Z" transform="translate(-281.609 -240.18)" fill="#263238"/>
      <path id="Path_2035" data-name="Path 2035" d="M354.45,319.54a.363.363,0,1,0,.358-.35.367.367,0,0,0-.256.1A.334.334,0,0,0,354.45,319.54Z" transform="translate(-283.965 -242.387)" fill="#263238"/>
      <path id="Path_2036" data-name="Path 2036" d="M347.35,319.587a12.31,12.31,0,0,1,3.284-.234,12.1,12.1,0,0,1,3.276.209,12.483,12.483,0,0,1-3.276.225A12.785,12.785,0,0,1,347.35,319.587Z" transform="translate(-283.067 -242.409)" fill="#263238"/>
      <path id="Path_2037" data-name="Path 2037" d="M337.3,321.953a7.448,7.448,0,0,1-.393-1.152c-.236-.768-.577-1.9-.987-3.338l-.052-.2h.218c2.463-.042,5.739-.075,9.32-.083l.218.159h0v.292l.079.3.157.584c.1.392.21.776.306,1.152.2.751.393,1.485.577,2.186l.07.25h-.271c-2.76,0-5.119,0-6.761-.067l-1.9-.05a3.159,3.159,0,0,1-.655-.05,5.3,5.3,0,0,1,.734-.058l1.948-.058c1.651-.05,3.948-.092,6.639-.117l-.21.25c-.192-.7-.393-1.427-.594-2.178l-.315-1.152-.157-.592-.079-.292-.044-.15v-.134h0c-.052,0,.419.309.218.167h-9.312l.157-.209c.349,1.368.611,2.5.795,3.279a8,8,0,0,1,.3,1.26Z" transform="translate(-281.615 -242.054)" fill="#263238"/>
      <path id="Path_2038" data-name="Path 2038" d="M338.3,308.359a11.472,11.472,0,0,1,3.083-.225,10.784,10.784,0,0,1,3.092.209,11.517,11.517,0,0,1-3.092.225,10.74,10.74,0,0,1-3.083-.209Z" transform="translate(-281.923 -240.551)" fill="#263238"/>
      <path id="Path_2039" data-name="Path 2039" d="M338.38,309.519a11.7,11.7,0,0,1,3.11-.225,11.483,11.483,0,0,1,3.11.2,21.937,21.937,0,0,1-6.22,0Z" transform="translate(-281.933 -240.744)" fill="#263238"/>
      <path id="Path_2040" data-name="Path 2040" d="M338.59,310.639a10.354,10.354,0,0,1,3-.234,10.893,10.893,0,0,1,3,.209,10.265,10.265,0,0,1-3,.234,10.96,10.96,0,0,1-3-.209Z" transform="translate(-281.96 -240.928)" fill="#263238"/>
      <path id="Path_2041" data-name="Path 2041" d="M338.51,319.489a10.383,10.383,0,0,1,2.944-.225,9.811,9.811,0,0,1,2.944.209,10.484,10.484,0,0,1-2.944.225,9.806,9.806,0,0,1-2.944-.209Z" transform="translate(-281.949 -242.394)" fill="#263238"/>
      <path id="Path_2042" data-name="Path 2042" d="M338.92,320.777a14.693,14.693,0,0,1,5.031,0A14.693,14.693,0,0,1,338.92,320.777Z" transform="translate(-282.001 -242.614)" fill="#263238"/>
      <path id="Path_2043" data-name="Path 2043" d="M273.76,336.29v4.581H276.9v92.8h6.447v-92.8h34.216v92.8h6.447v-92.8H472.451v92.771h6.455V340.871h2.787V336.29Z" transform="translate(-273.76 -245.219)" fill="#263238"/>
      <path id="Path_2044" data-name="Path 2044" d="M433.8,377.687a50.29,50.29,0,0,0,8.386,0A52.751,52.751,0,0,0,433.8,377.687Z" transform="translate(-294.001 -252.045)" fill="#263238"/>
      <ellipse id="Ellipse_178" data-name="Ellipse 178" cx="0.227" cy="0.108" rx="0.227" ry="0.108" transform="translate(78.504 126.376)" fill="#455a64"/>
      <path id="Path_2045" data-name="Path 2045" d="M405.624,272.844,381.55,249.48l-.524-2.5c-.1-.459-.2-.976-.3-1.569a6,6,0,0,1,.044-2.053,8.874,8.874,0,0,1,.743-2.453.8.8,0,0,0-.917-1.21c-.673.284-1.834,2.111-2.088,4.639S376,243.5,375.164,242.3s-3.634-4.815-4.219-4.856c-.874-.067-1.066.834-.2,2s3.232,4.923,2.568,5.315h0a3.19,3.19,0,0,0-3.328,1.577c-.611,1.11-1.284,2.7-.734,3.421a42.336,42.336,0,0,0,3.844,3.888l.8.659s20.834,28.838,25.376,29.78c2.822.576,46.48,4.039,46.48,4.039l3.293-11.49Z" transform="translate(-285.812 -228.85)" fill="#b78876"/>
      <path id="Path_2046" data-name="Path 2046" d="M369,251.262l2.227,2.044a2.754,2.754,0,0,0,.873.592.96.96,0,0,0,.978-.15.868.868,0,0,0,.131-.834,2.5,2.5,0,0,0-.515-.751l-2.166-2.5" transform="translate(-285.806 -230.874)" fill="#b78876"/>
      <path id="Path_2047" data-name="Path 2047" d="M370.533,249.649c.052-.042.463.35,1.1,1.026.358.384.725.776,1.1,1.193a3.871,3.871,0,0,1,.62.793,1.092,1.092,0,0,1-.061,1.177,1.127,1.127,0,0,1-1.223.267,2.476,2.476,0,0,1-.874-.584l-1.162-1.135c-.655-.651-1.039-1.076-1-1.126a5.266,5.266,0,0,1,1.214.91l1.232,1.06a2.112,2.112,0,0,0,.734.476.569.569,0,0,0,.716-.859,4.094,4.094,0,0,0-.533-.726c-.358-.426-.7-.834-1.031-1.252A4.827,4.827,0,0,1,370.533,249.649Z" transform="translate(-285.81 -230.872)" fill="#aa6550"/>
      <path id="Path_2048" data-name="Path 2048" d="M370.85,249.479l2.227,2.044a2.626,2.626,0,0,0,.874.584.9.9,0,0,0,.978-.15.852.852,0,0,0,.131-.834,2.626,2.626,0,0,0-.515-.759l-2.166-2.5" transform="translate(-286.04 -230.576)" fill="#b78876"/>
      <path id="Path_2049" data-name="Path 2049" d="M372.345,247.86a6.7,6.7,0,0,1,1.1,1.035l1.1,1.185a3.868,3.868,0,0,1,.62.793,1.108,1.108,0,0,1-.061,1.185,1.127,1.127,0,0,1-1.223.267,2.477,2.477,0,0,1-.874-.584l-1.153-1.135a5.225,5.225,0,0,1-1-1.126,5.356,5.356,0,0,1,1.214.9l1.232,1.068a2.113,2.113,0,0,0,.734.476.7.7,0,0,0,.716-.133.714.714,0,0,0,0-.734,3.717,3.717,0,0,0-.542-.718l-1.022-1.252a4.617,4.617,0,0,1-.847-1.227Z" transform="translate(-286.041 -230.576)" fill="#aa6550"/>
      <path id="Path_2050" data-name="Path 2050" d="M372.84,248.015l2.227,2.044a2.423,2.423,0,0,0,.874.584.824.824,0,0,0,.938-.112.735.735,0,0,0,.163-.889,2.494,2.494,0,0,0-.515-.759c-.716-.834-1.441-1.669-2.158-2.5" transform="translate(-286.291 -230.331)" fill="#b78876"/>
      <path id="Path_2051" data-name="Path 2051" d="M374.337,246.4a5.585,5.585,0,0,1,1.1,1.026l1.1,1.193a3.848,3.848,0,0,1,.611.793,1.068,1.068,0,0,1-.061,1.185,1.109,1.109,0,0,1-1.214.267,2.477,2.477,0,0,1-.874-.584l-1.144-1.135a5,5,0,0,1-.987-1.126,5.217,5.217,0,0,1,1.214.9l1.232,1.068a2.163,2.163,0,0,0,.725.476.687.687,0,0,0,.716-.134.674.674,0,0,0,0-.734,4.05,4.05,0,0,0-.533-.718l-1.022-1.252A4.628,4.628,0,0,1,374.337,246.4Z" transform="translate(-286.295 -230.335)" fill="#aa6550"/>
      <path id="Path_2052" data-name="Path 2052" d="M376.87,251.891c0-.075.55-.175,1.354.058l-.253.209a3.477,3.477,0,0,1-.061-1.46,3.644,3.644,0,0,1,.874-1.777c.341-.384.629-.534.664-.492a7.381,7.381,0,0,0-1.048,2.336,4.208,4.208,0,0,0,0,1.318l.044.334-.3-.125A13.123,13.123,0,0,1,376.87,251.891Z" transform="translate(-286.801 -230.669)" fill="#aa6550"/>
      <path id="Path_2053" data-name="Path 2053" d="M443.842,237.1l.1,32.017-13.1.593-.524-7.668s-6.307.91-7.626-3.621c-.874-2.9-.629-25.258-.629-25.258Z" transform="translate(-292.513 -228.142)" fill="#b78876"/>
      <path id="Path_2054" data-name="Path 2054" d="M418.339,235.318c.97,1.919,5.582,5.415,5.582,5.415l2.088,5.332c1.808-1.352,4.237-1.277,4.7,1.761.332,2.2-2.524,2.645-2.524,2.645a38.2,38.2,0,0,0,5.241,7.46c2.621,2.787,4.088,3.062,6.936,3.112H443.5s6.412-5.123,5.145-18.608-13.994-9.571-17.025-12.909C426.707,224.029,415.107,228.935,418.339,235.318Z" transform="translate(-291.975 -227.147)" fill="#263238"/>
      <path id="Path_2055" data-name="Path 2055" d="M447.989,254.746a4.665,4.665,0,0,1-1.546-.067,8.176,8.176,0,0,1-3.747-1.836,19.619,19.619,0,0,1-3.782-4.781c-1.223-1.911-2.559-4.13-4.8-5.616s-4.944-1.744-7.242-2.194a14.107,14.107,0,0,1-5.844-2.128,5.977,5.977,0,0,1-2.341-3.338,3.194,3.194,0,0,1-.061-1.477,4.408,4.408,0,0,0,.131,1.46,5.981,5.981,0,0,0,2.35,3.238,14.143,14.143,0,0,0,5.8,2.061c2.289.442,4.979.726,7.311,2.211s3.625,3.763,4.839,5.674a19.9,19.9,0,0,0,3.73,4.773,8.28,8.28,0,0,0,3.669,1.861,6.6,6.6,0,0,0,1.136.134Z" transform="translate(-292.074 -228.167)" fill="#455a64"/>
      <path id="Path_2056" data-name="Path 2056" d="M448.752,243.411l-.673-.2a11.754,11.754,0,0,0-1.974-.417,4.532,4.532,0,0,0-3.022.651,2.367,2.367,0,0,0-1.057,1.519,2.059,2.059,0,0,0,.611,1.911,1.793,1.793,0,0,0,1.057.4,2.225,2.225,0,0,0,1.162-.309,3.426,3.426,0,0,0,1.581-1.928,4.582,4.582,0,0,0-.534-4.1,5.025,5.025,0,0,0-3.685-2.16,9.228,9.228,0,0,0-3.241.4,23.946,23.946,0,0,1-3.363.776,14.148,14.148,0,0,1-3.564,0,12.282,12.282,0,0,1-3.442-.91,4.038,4.038,0,0,1-2.35-2.37,3.015,3.015,0,0,1,.795-3.029,2.9,2.9,0,0,1,3.075-.426,2.283,2.283,0,0,1,1.136,1.018,2.4,2.4,0,0,1,.245,1.435,3.269,3.269,0,0,1-1.529,2.286,5.11,5.11,0,0,1-2.62.693,8,8,0,0,1-2.446-.359,8.915,8.915,0,0,1-3.6-2.119,8.707,8.707,0,0,1-1.834-2.5,8.846,8.846,0,0,1-.655-1.836c-.079-.434-.1-.668-.1-.668s.052.225.14.659a9.348,9.348,0,0,0,.681,1.811,8.574,8.574,0,0,0,1.843,2.5,8.7,8.7,0,0,0,3.564,2.069,7.782,7.782,0,0,0,2.411.35,4.982,4.982,0,0,0,2.5-.676,3.1,3.1,0,0,0,1.45-2.186,2.125,2.125,0,0,0-1.284-2.295,2.716,2.716,0,0,0-2.883.409,2.845,2.845,0,0,0-.751,2.854,3.9,3.9,0,0,0,2.262,2.261,11.852,11.852,0,0,0,3.415.859,13.8,13.8,0,0,0,3.494,0,23.231,23.231,0,0,0,3.337-.759,9.22,9.22,0,0,1,3.319-.409,5.2,5.2,0,0,1,3.813,2.235,4.743,4.743,0,0,1,.554,4.24,3.6,3.6,0,0,1-1.66,1.994,2.371,2.371,0,0,1-1.232.317,1.856,1.856,0,0,1-1.144-.434,2.188,2.188,0,0,1-.638-2.019,2.5,2.5,0,0,1,1.109-1.585,4.679,4.679,0,0,1,3.092-.634,10.151,10.151,0,0,1,1.974.451C448.524,243.319,448.752,243.411,448.752,243.411Z" transform="translate(-292.094 -227.813)" fill="#455a64"/>
      <path id="Path_2057" data-name="Path 2057" d="M433.342,441.053l-4.263-5.232,10.212-7.7,6.333,7.593-.6.517c-2.69,2.27-13.871,11.39-16.2,12.266C426.214,449.473,433.342,441.053,433.342,441.053Z" transform="translate(-293.299 -260.424)" fill="#7e57c2"/>
      <g id="Group_353" data-name="Group 353" transform="translate(134.95 175.089)" opacity="0.4">
        <path id="Path_2058" data-name="Path 2058" d="M429.979,446.776s-2.35,3.137-1.572,3.338,12.43-8.611,17.217-12.925l-.2-.209-13.5,10.38S430.591,446.351,429.979,446.776Z" transform="translate(-428.249 -436.98)" fill="#fff"/>
      </g>
      <path id="Path_2059" data-name="Path 2059" d="M445.583,436.82a.991.991,0,0,1-.157.15l-.481.409-1.791,1.477c-1.529,1.235-3.651,2.92-6.045,4.731s-4.595,3.4-6.2,4.531l-1.922,1.335-.524.35-.192.109.175-.133.507-.376,1.887-1.368c1.59-1.151,3.783-2.754,6.176-4.564s4.525-3.479,6.062-4.7l1.826-1.435.5-.392Z" transform="translate(-293.302 -261.864)" fill="#263238"/>
      <path id="Path_2060" data-name="Path 2060" d="M432.276,449.418a5.4,5.4,0,0,0-1.048-.584,5.312,5.312,0,0,0-1.188-.2,1.824,1.824,0,0,1,1.241.058A1.739,1.739,0,0,1,432.276,449.418Z" transform="translate(-293.526 -263.807)" fill="#263238"/>
      <path id="Path_2061" data-name="Path 2061" d="M434.494,445.027c0,.042-.3,0-.638-.125s-.594-.234-.576-.275.3,0,.629.133a1.524,1.524,0,0,1,.585.267Z" transform="translate(-293.935 -263.154)" fill="#263238"/>
      <path id="Path_2062" data-name="Path 2062" d="M435.062,443.838c0,.042-.253.067-.55.05s-.542-.067-.542-.109.245-.067.55-.042A1.237,1.237,0,0,1,435.062,443.838Z" transform="translate(-294.023 -263.008)" fill="#263238"/>
      <path id="Path_2063" data-name="Path 2063" d="M434.787,442.289a2.73,2.73,0,0,1-.48.467c-.3.225-.55.384-.576.351s.192-.242.48-.467S434.76,442.256,434.787,442.289Z" transform="translate(-293.992 -262.769)" fill="#263238"/>
      <path id="Path_2064" data-name="Path 2064" d="M434.365,441.35a1.908,1.908,0,0,1-1.136,1,5.574,5.574,0,0,1,.577-.5C434.121,441.575,434.331,441.325,434.365,441.35Z" transform="translate(-293.929 -262.614)" fill="#263238"/>
      <path id="Path_2065" data-name="Path 2065" d="M433.105,444.368a2.247,2.247,0,0,1-.655.492,5.283,5.283,0,0,1-.821.376,2.328,2.328,0,0,1-.533.15.527.527,0,0,1-.323-.075.3.3,0,0,1-.1-.325,1.552,1.552,0,0,1,1.747-.784,1.483,1.483,0,0,1,.559.25c.114.092.166.15.157.159a2.256,2.256,0,0,0-.743-.309,1.532,1.532,0,0,0-.873.075,1.292,1.292,0,0,0-.743.643c0,.15.1.242.271.217a3.534,3.534,0,0,0,.489-.125,7.826,7.826,0,0,0,.821-.342C432.843,444.535,433.088,444.343,433.105,444.368Z" transform="translate(-293.604 -263.079)" fill="#263238"/>
      <path id="Path_2066" data-name="Path 2066" d="M433.207,444.255a.935.935,0,0,1-.437-.375,1.3,1.3,0,0,1-.2-.6.814.814,0,0,1,.28-.726.34.34,0,0,1,.446.133.874.874,0,0,1,.122.367,2.388,2.388,0,0,1,0,.609,1.122,1.122,0,0,1-.166.542,3.93,3.93,0,0,1,.052-.551,2.312,2.312,0,0,0,0-.584c0-.2-.157-.484-.341-.384a.682.682,0,0,0-.21.592,1.249,1.249,0,0,0,.149.542,2.971,2.971,0,0,0,.306.434Z" transform="translate(-293.845 -262.808)" fill="#263238"/>
      <path id="Path_2067" data-name="Path 2067" d="M445.017,433.81a4.591,4.591,0,0,0-.725.592,3.8,3.8,0,0,0-1,4.055,8.707,8.707,0,0,0,.385.834c-.026,0-.07-.058-.166-.192a3.94,3.94,0,0,1-.323-.609,3.673,3.673,0,0,1,1.022-4.172,3.4,3.4,0,0,1,.568-.409A.8.8,0,0,1,445.017,433.81Z" transform="translate(-295.156 -261.366)" fill="#263238"/>
      <path id="Path_2068" data-name="Path 2068" d="M440.27,429.9a23.2,23.2,0,0,1,1.747,1.936,25.767,25.767,0,0,1,1.625,2.036,21.494,21.494,0,0,1-1.747-1.936A19.4,19.4,0,0,1,440.27,429.9Z" transform="translate(-294.82 -260.718)" fill="#263238"/>
      <path id="Path_2069" data-name="Path 2069" d="M441.022,440.5a6.857,6.857,0,0,1-1.371,1.268,7.49,7.49,0,0,1-1.581,1.01s.673-.5,1.485-1.135S441,440.466,441.022,440.5Z" transform="translate(-294.541 -262.473)" fill="#263238"/>
      <path id="Path_2070" data-name="Path 2070" d="M443.73,438.68c.044,0,.061.175.114.376s.122.359.087.384-.184-.117-.245-.351S443.7,438.672,443.73,438.68Z" transform="translate(-295.249 -262.172)" fill="#263238"/>
      <path id="Path_2071" data-name="Path 2071" d="M443.736,436.93c.044,0,.061.15,0,.334s-.07.325-.114.325-.061-.159-.044-.342S443.693,436.922,443.736,436.93Z" transform="translate(-295.237 -261.882)" fill="#263238"/>
      <path id="Path_2072" data-name="Path 2072" d="M444.534,435.457s-.114.142-.218.3-.157.326-.2.317-.07-.2.061-.4S444.525,435.416,444.534,435.457Z" transform="translate(-295.301 -261.637)" fill="#263238"/>
      <path id="Path_2073" data-name="Path 2073" d="M445.272,434.529v.209c0,.092-.14.159-.175.142s0-.117,0-.217S445.237,434.513,445.272,434.529Z" transform="translate(-295.428 -261.484)" fill="#263238"/>
      <g id="Group_354" data-name="Group 354" transform="translate(138.349 171.518)" opacity="0.3">
        <path id="Path_2074" data-name="Path 2074" d="M443.426,433.376l-10.334,7.543-.952-1.193L443,432.7Z" transform="translate(-432.14 -432.7)"/>
      </g>
      <path id="Path_2075" data-name="Path 2075" d="M379.046,448.594V441.96l13.016-.05.079,9.713-.812.05c-3.59.209-18.265.793-20.667.108C368,451.014,379.046,448.594,379.046,448.594Z" transform="translate(-285.963 -262.707)" fill="#7e57c2"/>
      <g id="Group_355" data-name="Group 355" transform="translate(84.252 187.255)" opacity="0.4">
        <path id="Path_2076" data-name="Path 2076" d="M373.643,451.56s-3.878,1.076-3.389,1.669,15.348.551,21.9,0v-.275l-17.331.209S374.394,451.585,373.643,451.56Z" transform="translate(-370.211 -451.56)" fill="#fff"/>
      </g>
      <path id="Path_2077" data-name="Path 2077" d="M392.341,453.2h-.874l-2.358.109c-2,.075-4.761.15-7.809.167s-5.818,0-7.818-.092l-2.359-.084h2.367c1.992,0,4.761.058,7.809.05s5.809-.075,7.8-.125l2.367-.058h.874Z" transform="translate(-285.964 -264.572)" fill="#263238"/>
      <path id="Path_2078" data-name="Path 2078" d="M375.288,453.321a5.059,5.059,0,0,0-.454-1.076,4.9,4.9,0,0,0-.8-.834,1.725,1.725,0,0,1,.943.784A1.613,1.613,0,0,1,375.288,453.321Z" transform="translate(-286.442 -264.28)" fill="#263238"/>
      <path id="Path_2079" data-name="Path 2079" d="M379.749,451.246a2.77,2.77,0,0,1-.411-.476c-.192-.284-.314-.534-.28-.551s.218.184.411.476S379.784,451.229,379.749,451.246Z" transform="translate(-287.077 -264.083)" fill="#263238"/>
      <path id="Path_2080" data-name="Path 2080" d="M380.941,450.671a2.037,2.037,0,0,1-.463-.292c-.227-.192-.384-.367-.358-.4s.236.1.463.292S380.967,450.638,380.941,450.671Z" transform="translate(-287.212 -264.042)" fill="#263238"/>
      <path id="Path_2081" data-name="Path 2081" d="M381.614,449.385a1.487,1.487,0,0,1-.673.083,1.533,1.533,0,0,1-.681-.067,1.631,1.631,0,0,1,.673-.083A1.7,1.7,0,0,1,381.614,449.385Z" transform="translate(-287.23 -263.932)" fill="#263238"/>
      <path id="Path_2082" data-name="Path 2082" d="M381.847,448.41a1.418,1.418,0,0,1-.76.209,1.367,1.367,0,0,1-.777-.092,4.236,4.236,0,0,1,.769-.058A4.642,4.642,0,0,1,381.847,448.41Z" transform="translate(-287.236 -263.783)" fill="#263238"/>
      <path id="Path_2083" data-name="Path 2083" d="M378.982,449.942a2.632,2.632,0,0,1-.873,0,4.764,4.764,0,0,1-.874-.184,2.41,2.41,0,0,1-.507-.192.472.472,0,0,1-.21-.25.3.3,0,0,1,.131-.317,1.575,1.575,0,0,1,1.9.417,1.369,1.369,0,0,1,.271.534.454.454,0,0,1,0,.217,2.2,2.2,0,0,0-.384-.684,1.556,1.556,0,0,0-.716-.442,1.33,1.33,0,0,0-1,.075c-.131.092-.079.242.07.326a2.113,2.113,0,0,0,.472.184,5.456,5.456,0,0,0,.874.217C378.685,449.917,378.982,449.917,378.982,449.942Z" transform="translate(-286.756 -263.855)" fill="#263238"/>
      <path id="Path_2084" data-name="Path 2084" d="M379.074,449.894a.8.8,0,0,1-.1-.551,1.258,1.258,0,0,1,.227-.584.879.879,0,0,1,.69-.409.325.325,0,0,1,.213.13.3.3,0,0,1,.049.237.894.894,0,0,1-.14.359,2.4,2.4,0,0,1-.393.484,1.184,1.184,0,0,1-.481.325c-.017-.017.166-.142.4-.4a2.929,2.929,0,0,0,.349-.476c.114-.175.183-.476,0-.509s-.419.175-.542.334a1.256,1.256,0,0,0-.236.526,4.845,4.845,0,0,0-.044.534Z" transform="translate(-287.066 -263.773)" fill="#263238"/>
      <path id="Path_2085" data-name="Path 2085" d="M394.543,449.1h-.961a4.372,4.372,0,0,0-2.088.834,3.951,3.951,0,0,0-1.3,1.777,8.29,8.29,0,0,0-.245.893.62.62,0,0,1,0-.25,2.83,2.83,0,0,1,.131-.676,3.961,3.961,0,0,1,1.31-1.861,4.1,4.1,0,0,1,2.184-.834,3.158,3.158,0,0,1,.716,0A.643.643,0,0,1,394.543,449.1Z" transform="translate(-288.453 -263.875)" fill="#263238"/>
      <path id="Path_2086" data-name="Path 2086" d="M393.635,442.94a20.191,20.191,0,0,1,.131,2.553,22.382,22.382,0,0,1,0,2.553,19.282,19.282,0,0,1-.122-2.553A21.365,21.365,0,0,1,393.635,442.94Z" transform="translate(-288.917 -262.878)" fill="#263238"/>
      <path id="Path_2087" data-name="Path 2087" d="M387.45,452a7.867,7.867,0,0,1-1.9.184,8.173,8.173,0,0,1-1.9-.133c0-.042.873,0,1.9,0S387.45,452,387.45,452Z" transform="translate(-287.659 -264.378)" fill="#263238"/>
      <path id="Path_2088" data-name="Path 2088" d="M390.946,452s-.061.175-.148.359-.14.351-.183.351-.061-.2,0-.409A.44.44,0,0,1,390.946,452Z" transform="translate(-288.534 -264.378)" fill="#263238"/>
      <path id="Path_2089" data-name="Path 2089" d="M391.988,450.619a.777.777,0,0,1-.183.284c-.131.125-.271.217-.306.192s.052-.167.192-.292S391.936,450.585,391.988,450.619Z" transform="translate(-288.65 -264.148)" fill="#263238"/>
      <path id="Path_2090" data-name="Path 2090" d="M393.523,449.986a.845.845,0,0,0-.376.108c-.192.109-.323.167-.358.134s.07-.2.315-.275S393.54,449.936,393.523,449.986Z" transform="translate(-288.814 -264.033)" fill="#263238"/>
      <path id="Path_2091" data-name="Path 2091" d="M394.693,449.675c0,.042-.061.109-.166.15s-.21.042-.227,0,.061-.1.166-.142S394.675,449.642,394.693,449.675Z" transform="translate(-289.005 -263.989)" fill="#263238"/>
      <g id="Group_356" data-name="Group 356" transform="translate(93.074 183.166)" opacity="0.3">
        <path id="Path_2092" data-name="Path 2092" d="M393.43,448.22l-13.12.017.009-1.5,13.059-.075Z" transform="translate(-380.31 -446.66)"/>
      </g>
      <path id="Path_2093" data-name="Path 2093" d="M410.755,311.555l-5.241,15.02c-1.406,4.047-5.11,4.74-9.609,4.74H367v-6.208l26.485-3.613,6.307-15.4Z" transform="translate(-285.553 -240.218)" fill="#b78876"/>
      <path id="Path_2094" data-name="Path 2094" d="M361.233,326.211l-2.3-1.035s-2.481-4.581-3.049-4.4-.742,1.527.253,3.638l-3.049-.834s-6.63,2.92-6.333,3.338a1.508,1.508,0,0,0,.984.831,1.588,1.588,0,0,0,1.3-.205c1.441-.709,3.328-1.535,3.328-1.535l3.573.976-4.6.559-4.368,3.763a2.2,2.2,0,0,0,2.621-.067l11.356,2.286,3.494.184V327.5Z" transform="translate(-282.991 -242.649)" fill="#b78876"/>
      <path id="Path_2095" data-name="Path 2095" d="M350.07,332.858a7.215,7.215,0,0,0,.664-.709,3.157,3.157,0,0,1,.821-.6,3.561,3.561,0,0,1,1.214-.309,16.593,16.593,0,0,0,3.372-.551,17.914,17.914,0,0,0-3.415.217,3.517,3.517,0,0,0-1.336.375,2.816,2.816,0,0,0-.874.718,2.034,2.034,0,0,0-.446.859Z" transform="translate(-283.411 -244.289)" fill="#aa6550"/>
      <path id="Path_2096" data-name="Path 2096" d="M352.082,333.641c.044,0,.079-.225.393-.292s.83-.108,1.363-.159a12.543,12.543,0,0,0,1.974-.192,4.133,4.133,0,0,0-2.009-.15,6.309,6.309,0,0,0-1.415.284.555.555,0,0,0-.341.334C352,333.582,352.056,333.641,352.082,333.641Z" transform="translate(-283.659 -244.639)" fill="#aa6550"/>
      <path id="Path_2097" data-name="Path 2097" d="M417.529,302.686,415.3,309.9l-14.151-6.15c.515-1.51,2.856-8.236,7.329-18.908a19.059,19.059,0,0,1,14.667-11.3,87.786,87.786,0,0,1,13.548-1.268c7.94.083,19.619,4.823,21.183,12.249,1.205,5.674.044,15.687.044,27.853l-1,23.272-40.662,1.31Z" transform="translate(-289.872 -234.62)" fill="#7e57c2"/>
      <g id="Group_357" data-name="Group 357" transform="translate(137.868 71.974)" opacity="0.3">
        <path id="Path_2098" data-name="Path 2098" d="M461.726,313.834c-4.944.968-10.028,0-15.068-.292-3.057-.175-6.447-.492-8.866,1.3-1.913,1.427-2.682,3.822-3.241,6.075-2.105,8.611-2.49,14.377-2.961,23.205l24.459,1.418Z" transform="translate(-431.59 -313.403)"/>
      </g>
      <path id="Path_2099" data-name="Path 2099" d="M418.71,278.488a5.811,5.811,0,0,1,1.083.309,5.567,5.567,0,0,1,2.341,1.811,7.287,7.287,0,0,1,1.4,4.047,23.94,23.94,0,0,1-.428,5.324,86.779,86.779,0,0,1-2.271,9.521c-.332,1.168-.612,2.128-.821,2.862a5.912,5.912,0,0,0-.262,1.06,5.735,5.735,0,0,0,.393-1.026c.227-.668.55-1.627.926-2.829a69.892,69.892,0,0,0,2.385-9.537,23.341,23.341,0,0,0,.4-5.4,7.458,7.458,0,0,0-1.52-4.172,5.573,5.573,0,0,0-2.5-1.794,4.967,4.967,0,0,0-.83-.184C418.815,278.48,418.71,278.471,418.71,278.488Z" transform="translate(-292.093 -235.646)" fill="#263238"/>
      <path id="Path_2100" data-name="Path 2100" d="M401.66,307.83a14.391,14.391,0,0,0,1.992,1.093c1.258.626,3.014,1.452,4.988,2.3s3.791,1.56,5.119,2.044a12.622,12.622,0,0,0,2.175.7,17.036,17.036,0,0,0-2.088-.918c-1.293-.542-3.092-1.285-5.058-2.136s-3.739-1.669-5.023-2.211a15.76,15.76,0,0,0-2.105-.876Z" transform="translate(-289.936 -240.506)" fill="#263238"/>
      <path id="Path_2101" data-name="Path 2101" d="M393.146,351.92a13.534,13.534,0,0,0-5.914,18.541l35.4,58.042,16.326-9.421-27.481-52.4,19.89-12.424" transform="translate(-287.904 -247.807)" fill="#263238"/>
      <path id="Path_2102" data-name="Path 2102" d="M434.511,348.47l-48.585,1.669c-7.887.267-14.1,6.514-13.976,14.052l2.018,66.278H394.4l-.681-62.665,40.794-1.026Z" transform="translate(-286.178 -247.235)" fill="#263238"/>
      <path id="Path_2103" data-name="Path 2103" d="M396.87,374.27a3.069,3.069,0,0,1,.061.617q0,.668.079,1.752c.061,1.527.122,3.738.183,6.475.122,5.465.2,13.017.245,21.353s.087,15.854.114,21.353c0,2.7,0,4.9.044,6.475v1.761a3.106,3.106,0,0,1,0,.617,3.2,3.2,0,0,1-.061-.617c0-.442-.044-1.026-.079-1.761-.061-1.527-.122-3.738-.183-6.467-.122-5.465-.2-13.017-.245-21.361s-.087-15.854-.114-21.353v-8.236A3.036,3.036,0,0,1,396.87,374.27Z" transform="translate(-289.33 -251.507)" fill="#455a64"/>
      <path id="Path_2104" data-name="Path 2104" d="M458.661,298.07h-14.7A10.478,10.478,0,0,0,433.25,308.3v48.955H403.926a7.256,7.256,0,0,0-7.416,7.084h67.043a5.968,5.968,0,0,0,5.861-5.841V308.3a10,10,0,0,0-3.152-7.249A10.973,10.973,0,0,0,458.661,298.07Z" transform="translate(-289.285 -238.89)" fill="#455a64"/>
      <path id="Path_2105" data-name="Path 2105" d="M443.427,300c.122,0,.227,14.394.227,32.15s-.1,32.15-.227,32.15-.227-14.394-.227-32.15S443.3,300,443.427,300Z" transform="translate(-295.19 -239.21)" fill="#263238"/>
      <path id="Path_2106" data-name="Path 2106" d="M438.014,428.944V377.56h-4.778v51.384c-2.918,5.491-9.775,9.179-18.126,12.249H457.7C449.081,437.838,441.22,435.26,438.014,428.944Z" transform="translate(-291.638 -252.052)" fill="#455a64"/>
    </g>
    <g id="freepik--Plant--inject-2" transform="translate(96.287 237.573)">
      <path id="Path_2107" data-name="Path 2107" d="M131.417,406.972l.14-.3.428-.876a22.36,22.36,0,0,0,1.258-3.488,29.477,29.477,0,0,0-.114-13.476,70.427,70.427,0,0,0-2.621-9.053c-1.109-3.213-2.393-6.617-3.494-10.305a38.252,38.252,0,0,1-1.695-11.849c.157-4.172,1.459-8.344,2.883-12.516s2.9-8.244,3.346-12.349a18.1,18.1,0,0,0-2.376-11.406c-1.887-3.338-4.263-6.175-6.045-9.12a30.894,30.894,0,0,1-3.643-8.77,31.319,31.319,0,0,1-.227-13.584,24.193,24.193,0,0,1,1.485-4.8,2.263,2.263,0,0,1-.087.317c-.079.225-.175.526-.306.918a34.661,34.661,0,0,0-.874,3.588,31.566,31.566,0,0,0,.349,13.468,30.683,30.683,0,0,0,3.651,8.661c1.747,2.912,4.167,5.749,6.115,9.12a18.426,18.426,0,0,1,2.446,11.632c-.446,4.172-1.931,8.277-3.354,12.441s-2.708,8.344-2.874,12.425a38.241,38.241,0,0,0,1.66,11.732c1.039,3.663,2.306,7.076,3.407,10.3a68.371,68.371,0,0,1,2.568,9.1,29.159,29.159,0,0,1,0,13.576,19.731,19.731,0,0,1-1.389,3.479c-.2.359-.349.643-.472.834a1.2,1.2,0,0,1-.166.3Z" transform="translate(-109.448 -285.08)" fill="#263238"/>
      <path id="Path_2108" data-name="Path 2108" d="M126.464,317.568s-3.616-11.039,2.865-17.523a.414.414,0,0,1,.407-.108.391.391,0,0,1,.283.3C130.36,302.073,130.8,307.63,126.464,317.568Z" transform="translate(-110.313 -287.538)" fill="#7e57c2"/>
      <path id="Path_2109" data-name="Path 2109" d="M128.75,304.5a9.826,9.826,0,0,1-.245,2.036c-.245,1.4-.524,3.054-.874,4.873s-.577,3.471-.8,4.873a11.292,11.292,0,0,1-.384,2.011,8.093,8.093,0,0,1,.061-2.053c.122-1.26.349-3,.681-4.9s.673-3.621.961-4.865A8.2,8.2,0,0,1,128.75,304.5Z" transform="translate(-110.432 -288.296)" fill="#263238"/>
      <path id="Path_2110" data-name="Path 2110" d="M131.47,349.471s2.21-11.373,11.111-14.185a.407.407,0,0,1,.411.085.364.364,0,0,1,.1.391C142.5,337.547,140.17,342.62,131.47,349.471Z" transform="translate(-111.073 -293.389)" fill="#7e57c2"/>
      <path id="Path_2111" data-name="Path 2111" d="M140.143,338.8a9.917,9.917,0,0,1-1.214,1.669l-3.11,3.938-3.1,3.939a10.511,10.511,0,0,1-1.328,1.61,8.531,8.531,0,0,1,1.066-1.786c.725-1.06,1.747-2.5,3-4.03s2.376-2.9,3.223-3.863a8.907,8.907,0,0,1,1.468-1.477Z" transform="translate(-111.063 -293.975)" fill="#263238"/>
      <path id="Path_2112" data-name="Path 2112" d="M128.7,383.164s-1.336-11.5,6.316-16.688a.418.418,0,0,1,.421-.03.382.382,0,0,1,.216.347C135.624,368.67,134.943,374.2,128.7,383.164Z" transform="translate(-110.711 -298.545)" fill="#7e57c2"/>
      <path id="Path_2113" data-name="Path 2113" d="M133.6,370.7a9.78,9.78,0,0,1-.646,1.953l-1.747,4.631c-.664,1.736-1.258,3.338-1.747,4.639a11.273,11.273,0,0,1-.777,1.9,8.023,8.023,0,0,1,.472-2c.367-1.218.943-2.879,1.642-4.689s1.389-3.43,1.913-4.589A8.576,8.576,0,0,1,133.6,370.7Z" transform="translate(-110.72 -299.257)" fill="#263238"/>
      <path id="Path_2114" data-name="Path 2114" d="M136.386,417.624s-.874-11.54,6.936-16.438a.408.408,0,0,1,.421-.021.372.372,0,0,1,.2.355C143.846,403.372,142.955,408.871,136.386,417.624Z" transform="translate(-111.691 -304.293)" fill="#7e57c2"/>
      <path id="Path_2115" data-name="Path 2115" d="M141.754,405.31a10.1,10.1,0,0,1-.725,1.936c-.559,1.318-1.223,2.862-1.948,4.564s-1.389,3.254-1.948,4.573a10.3,10.3,0,0,1-.874,1.877,8.76,8.76,0,0,1,.55-1.986c.411-1.2,1.048-2.837,1.826-4.623s1.511-3.388,2.079-4.531a8.867,8.867,0,0,1,1.039-1.811Z" transform="translate(-111.679 -304.988)" fill="#263238"/>
      <path id="Path_2116" data-name="Path 2116" d="M119.074,306.531s-10.736-5.382-10.954-14.31a.38.38,0,0,1,.206-.353.418.418,0,0,1,.423.019C110.347,292.938,114.767,296.576,119.074,306.531Z" transform="translate(-108.12 -286.196)" fill="#7e57c2"/>
      <path id="Path_2117" data-name="Path 2117" d="M110.68,296a10.276,10.276,0,0,1,1.336,1.61l3.022,4,3.04,3.989a10.587,10.587,0,0,1,1.223,1.669,8.4,8.4,0,0,1-1.476-1.494c-.874-.968-1.974-2.353-3.153-3.922s-2.2-3.012-2.918-4.08A8.979,8.979,0,0,1,110.68,296Z" transform="translate(-108.443 -286.888)" fill="#263238"/>
      <path id="Path_2118" data-name="Path 2118" d="M132.146,335.078s-11.059-4.723-11.836-13.651a.37.37,0,0,1,.183-.361.409.409,0,0,1,.42,0C122.572,322.028,127.21,325.39,132.146,335.078Z" transform="translate(-109.661 -291.029)" fill="#7e57c2"/>
      <path id="Path_2119" data-name="Path 2119" d="M123.08,325a10.573,10.573,0,0,1,1.433,1.519l3.276,3.822c1.232,1.419,2.341,2.7,3.284,3.8a11.182,11.182,0,0,1,1.328,1.6,8.828,8.828,0,0,1-1.564-1.4c-.874-.918-2.123-2.236-3.4-3.738s-2.393-2.879-3.18-3.9A9.149,9.149,0,0,1,123.08,325Z" transform="translate(-110.012 -291.69)" fill="#263238"/>
      <path id="Path_2120" data-name="Path 2120" d="M125.849,366.1s-7.591-9.02-4.027-17.306a.391.391,0,0,1,.334-.243.4.4,0,0,1,.373.184C123.552,350.31,126.085,355.325,125.849,366.1Z" transform="translate(-109.732 -295.589)" fill="#7e57c2"/>
      <path id="Path_2121" data-name="Path 2121" d="M122.82,353.24a9.909,9.909,0,0,1,.55,1.986c.323,1.385.69,3.021,1.1,4.823s.786,3.421,1.109,4.815a10.609,10.609,0,0,1,.419,2.011,7.689,7.689,0,0,1-.725-1.936c-.376-1.218-.821-2.912-1.249-4.806s-.76-3.6-.97-4.848a8.789,8.789,0,0,1-.236-2.044Z" transform="translate(-109.979 -296.366)" fill="#263238"/>
      <path id="Path_2122" data-name="Path 2122" d="M133.5,404.062s-10.971-4.915-11.592-13.843a.38.38,0,0,1,.194-.353.418.418,0,0,1,.417,0C124.164,390.853,128.75,394.291,133.5,404.062Z" transform="translate(-109.864 -302.421)" fill="#7e57c2"/>
      <path id="Path_2123" data-name="Path 2123" d="M124.62,393.87a10.767,10.767,0,0,1,1.406,1.552l3.215,3.863c1.2,1.444,2.289,2.745,3.215,3.855a11.946,11.946,0,0,1,1.3,1.669,9.258,9.258,0,0,1-1.546-1.435c-.874-.935-2.079-2.27-3.328-3.788s-2.341-2.912-3.11-3.947A9.026,9.026,0,0,1,124.62,393.87Z" transform="translate(-110.206 -303.093)" fill="#263238"/>
      <path id="Path_2124" data-name="Path 2124" d="M157.167,352.36v1q-.052,1.035-.131,2.8c-.14,2.5-.341,5.908-.577,10.013h0c-.786,4.172-3.014,8.82-6.019,13.351-2.2,3.338-4.5,6.342-6.49,9.179a63.449,63.449,0,0,0-4.866,7.693,31.258,31.258,0,0,0-2.28,5.641c-.192.693-.341,1.227-.419,1.594a2.994,2.994,0,0,1-.166.559,2.592,2.592,0,0,1,.07-.576c.061-.376.175-.918.341-1.619a29.008,29.008,0,0,1,2.166-5.732,59.915,59.915,0,0,1,4.8-7.777c1.974-2.829,4.272-5.841,6.455-9.179,2.987-4.481,5.241-9.053,6.019-13.175h0c.3-4.114.55-7.51.734-10.013.1-1.168.175-2.1.236-2.8a6.653,6.653,0,0,1,.079-.734A.93.93,0,0,1,157.167,352.36Z" transform="translate(-111.674 -296.22)" fill="#263238"/>
      <path id="Path_2125" data-name="Path 2125" d="M152.371,380.361s4.647-10.681-1.2-17.681a.4.4,0,0,0-.391-.149.386.386,0,0,0-.308.274C149.995,364.59,149,370.089,152.371,380.361Z" transform="translate(-113.411 -297.903)" fill="#7e57c2"/>
      <path id="Path_2126" data-name="Path 2126" d="M151.754,367.17a9.092,9.092,0,0,1,.367,2.019c.166,1.26.349,3,.489,4.923s.218,3.68.21,4.94a8.729,8.729,0,0,1-.122,2.053,10.152,10.152,0,0,1-.192-2.036c-.1-1.419-.218-3.087-.349-4.923s-.253-3.5-.358-4.923a9.146,9.146,0,0,1-.044-2.053Z" transform="translate(-113.634 -298.672)" fill="#263238"/>
      <g id="Group_358" data-name="Group 358" transform="translate(36.546 64.621)" opacity="0.3">
        <path id="Path_2127" data-name="Path 2127" d="M152.371,380.361s4.647-10.681-1.2-17.681a.4.4,0,0,0-.391-.149.386.386,0,0,0-.308.274C149.995,364.59,149,370.089,152.371,380.361Z" transform="translate(-149.957 -362.524)"/>
      </g>
      <path id="Path_2128" data-name="Path 2128" d="M135.728,411.258s3.721-11.006-2.7-17.523a.414.414,0,0,0-.4-.11.392.392,0,0,0-.286.294C132.016,395.73,131.483,401.278,135.728,411.258Z" transform="translate(-111.156 -303.05)" fill="#7e57c2"/>
      <path id="Path_2129" data-name="Path 2129" d="M133.919,398.17a8.605,8.605,0,0,1,.542,1.986c.271,1.235.6,2.954.874,4.865s.524,3.646.629,4.906a7.974,7.974,0,0,1,0,2.053,11.092,11.092,0,0,1-.358-2.019c-.218-1.4-.48-3.054-.76-4.873s-.55-3.479-.777-4.881a9.678,9.678,0,0,1-.149-2.036Z" transform="translate(-111.382 -303.805)" fill="#263238"/>
      <g id="Group_359" data-name="Group 359" transform="translate(20.971 90.56)" opacity="0.3">
        <path id="Path_2130" data-name="Path 2130" d="M135.728,411.258s3.721-11.006-2.7-17.523a.414.414,0,0,0-.4-.11.392.392,0,0,0-.286.294C132.016,395.73,131.483,401.278,135.728,411.258Z" transform="translate(-132.126 -393.611)"/>
      </g>
      <path id="Path_2131" data-name="Path 2131" d="M159.5,365.1s9.923-6.634,8.919-15.537a.387.387,0,0,0-.252-.318.416.416,0,0,0-.412.068C166.313,350.554,162.426,354.7,159.5,365.1Z" transform="translate(-114.618 -295.7)" fill="#7e57c2"/>
      <g id="Group_360" data-name="Group 360" transform="translate(44.882 53.517)" opacity="0.3">
        <path id="Path_2132" data-name="Path 2132" d="M159.5,365.1s9.923-6.634,8.919-15.537a.387.387,0,0,0-.252-.318.416.416,0,0,0-.412.068C166.313,350.554,162.426,354.7,159.5,365.1Z" transform="translate(-159.5 -349.217)"/>
      </g>
      <path id="Path_2133" data-name="Path 2133" d="M166.639,353.61a9.221,9.221,0,0,1-.83,1.894c-.559,1.143-1.38,2.712-2.341,4.406s-1.887,3.212-2.621,4.281a8.016,8.016,0,0,1-1.258,1.669,12.094,12.094,0,0,1,.987-1.819c.716-1.243,1.546-2.7,2.472-4.322s1.747-3.087,2.463-4.339A9.765,9.765,0,0,1,166.639,353.61Z" transform="translate(-114.629 -296.427)" fill="#263238"/>
      <path id="Path_2134" data-name="Path 2134" d="M140.83,399.553s11.967-1.786,15.173-10.2a.371.371,0,0,0-.076-.4.414.414,0,0,0-.4-.113C153.653,389.365,148.246,391.476,140.83,399.553Z" transform="translate(-112.257 -302.26)" fill="#7e57c2"/>
      <g id="Group_361" data-name="Group 361" transform="translate(28.573 86.574)" opacity="0.3">
        <path id="Path_2135" data-name="Path 2135" d="M140.83,399.553s11.967-1.786,15.173-10.2a.371.371,0,0,0-.076-.4.414.414,0,0,0-.4-.113C153.653,389.365,148.246,391.476,140.83,399.553Z" transform="translate(-140.83 -388.834)"/>
      </g>
      <path id="Path_2136" data-name="Path 2136" d="M152.869,392.13a9.491,9.491,0,0,1-1.616,1.36c-1.031.784-2.49,1.844-4.141,2.962s-3.171,2.086-4.3,2.754a8.693,8.693,0,0,1-1.9.96,10.742,10.742,0,0,1,1.747-1.218l4.21-2.845,4.21-2.862A11.2,11.2,0,0,1,152.869,392.13Z" transform="translate(-112.267 -302.805)" fill="#263238"/>
      <path id="Path_2137" data-name="Path 2137" d="M127.254,426.9l-3.494,22.446h21.759L142.7,426.9Z" transform="translate(-110.098 -308.563)" fill="#455a64"/>
      <path id="Path_2138" data-name="Path 2138" d="M143.9,435.182a86.839,86.839,0,0,1-8.735.217,86.839,86.839,0,0,1-8.735-.217q4.359-.321,8.735-.217,4.37-.1,8.735.217Z" transform="translate(-110.435 -309.894)" fill="#263238"/>
      <path id="Path_2139" data-name="Path 2139" d="M144.306,437.327q-4.525.33-9.067.217-4.532.113-9.058-.217c0-.117,4.053-.217,9.058-.217S144.306,437.21,144.306,437.327Z" transform="translate(-110.404 -310.253)" fill="#263238"/>
    </g>
  </g>
</svg>
