<svg id="Component_28_1" data-name="Component 28 – 1" xmlns="http://www.w3.org/2000/svg" width="298.862" height="178.962" viewBox="0 0 298.862 178.962">
  <path id="Path_823" data-name="Path 823" d="M337.861,453.745c0,.066-65.74.115-146.812.115s-146.83-.049-146.83-.115,65.727-.115,146.83-.115S337.861,453.683,337.861,453.745Z" transform="translate(-40.676 -275.385)" fill="#263238"/>
  <path id="Path_897" data-name="Path 897" d="M526.768,449.572l.022-.562,5.726.164-.049,1.863h-.354c-1.575.04-8.014.093-9.058-.23C521.9,450.457,526.768,449.572,526.768,449.572Z" transform="translate(-306.628 -272.81)" fill="#7e57c2"/>
  <path id="Path_898" data-name="Path 898" d="M539.88,451.521a1.849,1.849,0,0,1,.761-1.111,2.04,2.04,0,0,1,1.328-.35l-.044,1.482Z" transform="translate(-316.107 -273.391)" fill="#fff"/>
  <path id="Path_899" data-name="Path 899" d="M524.363,451.44s-1.708.407-1.5.673,6.713.443,9.589.279v-.12l-7.6-.142S524.682,451.462,524.363,451.44Z" transform="translate(-306.608 -274.164)" fill="#fff"/>
  <path id="Path_900" data-name="Path 900" d="M532.553,453.013h-1.416c-.885,0-2.088,0-3.425-.035s-2.544-.089-3.42-.142l-1.036-.066h0l1.035.044c.885.04,2.084.088,3.421.124s2.544.044,3.42.053h1.416Z" transform="translate(-306.629 -274.906)" fill="#263238"/>
  <path id="Path_901" data-name="Path 901" d="M526.712,452.131a1.327,1.327,0,0,0-.522-.841.717.717,0,0,1,.4.345A.663.663,0,0,1,526.712,452.131Z" transform="translate(-308.475 -274.081)" fill="#263238"/>
  <path id="Path_902" data-name="Path 902" d="M530.863,450.936a1.149,1.149,0,0,1-.173-.208c-.079-.124-.133-.23-.115-.239s.093.084.173.208S530.881,450.927,530.863,450.936Z" transform="translate(-310.918 -273.634)" fill="#263238"/>
  <path id="Path_903" data-name="Path 903" d="M531.847,450.61a1.007,1.007,0,0,1-.2-.133c-.1-.084-.164-.164-.151-.177a.539.539,0,0,1,.2.133C531.794,450.526,531.861,450.61,531.847,450.61Z" transform="translate(-311.433 -273.529)" fill="#263238"/>
  <path id="Path_904" data-name="Path 904" d="M532.253,449.848a.725.725,0,0,1-.3.031.7.7,0,0,1-.3-.04.681.681,0,0,1,.3-.027A.773.773,0,0,1,532.253,449.848Z" transform="translate(-311.525 -273.254)" fill="#263238"/>
  <path id="Path_905" data-name="Path 905" d="M532.377,449.11a.575.575,0,0,1-.332.084.611.611,0,0,1-.345-.053,2.054,2.054,0,0,1,.341,0A1.85,1.85,0,0,1,532.377,449.11Z" transform="translate(-311.546 -272.865)" fill="#263238"/>
  <path id="Path_906" data-name="Path 906" d="M529.48,449.842a1.272,1.272,0,0,1-.363,0,2.649,2.649,0,0,1-.389-.089,1.322,1.322,0,0,1-.221-.093.189.189,0,0,1-.089-.111.128.128,0,0,1,.062-.133.7.7,0,0,1,.823.2.58.58,0,0,1,.115.23v.093a.926.926,0,0,0-.155-.3.69.69,0,0,0-.31-.195.6.6,0,0,0-.443,0c-.058.035-.035.1.027.137a1.044,1.044,0,0,0,.2.089,2.7,2.7,0,0,0,.376.1C529.342,449.824,529.48,449.829,529.48,449.842Z" transform="translate(-309.715 -273.004)" fill="#263238"/>
  <path id="Path_907" data-name="Path 907" d="M530.554,449.661a.319.319,0,0,1-.035-.239.54.54,0,0,1,.106-.248.385.385,0,0,1,.31-.164.137.137,0,0,1,.111.159.361.361,0,0,1-.066.15,1.2,1.2,0,0,1-.181.2.575.575,0,0,1-.212.133s.075-.062.177-.164a.985.985,0,0,0,.159-.2c.053-.071.093-.2,0-.217a.341.341,0,0,0-.243.142.482.482,0,0,0-.111.217A.988.988,0,0,0,530.554,449.661Z" transform="translate(-310.882 -272.81)" fill="#263238"/>
  <path id="Path_908" data-name="Path 908" d="M541.942,449.934H541.5a2.012,2.012,0,0,0-.929.327,1.742,1.742,0,0,0-.6.743c-.093.221-.106.376-.119.372a.273.273,0,0,1,0-.106,1.288,1.288,0,0,1,.071-.283,1.634,1.634,0,0,1,.6-.774,1.851,1.851,0,0,1,.969-.323,1.5,1.5,0,0,1,.31,0A.294.294,0,0,1,541.942,449.934Z" transform="translate(-316.089 -273.295)" fill="#263238"/>
  <path id="Path_909" data-name="Path 909" d="M536.2,452.114a3.344,3.344,0,0,1-.836.058,3.746,3.746,0,0,1-.832-.084c0-.022.376,0,.832,0A6.11,6.11,0,0,1,536.2,452.114Z" transform="translate(-313.124 -274.52)" fill="#263238"/>
  <path id="Path_910" data-name="Path 910" d="M540.6,452.227s-.031.071-.071.15-.066.146-.084.146-.027-.084,0-.177S540.591,452.214,540.6,452.227Z" transform="translate(-316.415 -274.602)" fill="#263238"/>
  <path id="Path_911" data-name="Path 911" d="M541.528,451.147a.343.343,0,0,1-.089.119c-.062.053-.119.089-.133.075s.027-.066.084-.12S541.515,451.133,541.528,451.147Z" transform="translate(-316.901 -273.999)" fill="#263238"/>
  <path id="Path_912" data-name="Path 912" d="M542.77,450.638a.425.425,0,0,0-.164.04c-.084.04-.146.066-.159.053s.035-.084.137-.115S542.779,450.624,542.77,450.638Z" transform="translate(-317.537 -273.698)" fill="#263238"/>
  <path id="Path_913" data-name="Path 913" d="M543.942,450.455a.141.141,0,0,1-.075.057.211.211,0,0,1-.1,0,.121.121,0,0,1,.075-.057C543.893,450.442,543.933,450.438,543.942,450.455Z" transform="translate(-318.275 -273.609)" fill="#263238"/>
  <path id="Path_921" data-name="Path 921" d="M593.567,445.475l1.562,3.629-6.983-.084-.146-3.7Z" transform="translate(-342.934 -270.752)" fill="#7e57c2"/>
  <path id="Path_922" data-name="Path 922" d="M588.22,452.135a6.36,6.36,0,0,0,.973.049h2.363l2.354-.049a6.823,6.823,0,0,0,.978-.053,6.906,6.906,0,0,0-.978-.044h-2.358l-2.359.044a8.3,8.3,0,0,0-.974.053Z" transform="translate(-343.056 -274.496)" fill="#263238"/>
  <path id="Path_923" data-name="Path 923" d="M594.7,445.49a4.8,4.8,0,0,0-.027,1.469,4.934,4.934,0,0,0,.19,1.46,4.8,4.8,0,0,0,.027-1.469A4.933,4.933,0,0,0,594.7,445.49Z" transform="translate(-346.63 -270.847)" fill="#263238"/>
  <path id="Path_924" data-name="Path 924" d="M595.238,452.908l-6.974-.234-.044-.664,6.669.058.354.761" transform="translate(-343.056 -274.482)" fill="#fff" opacity="0.6"/>
  <path id="Path_964" data-name="Path 964" d="M431.173,449.011a2.706,2.706,0,0,0-.531-.31,2.587,2.587,0,0,0-.6-.106,1.064,1.064,0,0,1,1.133.416Z" transform="translate(-255.284 -272.554)" fill="#263238"/>
  <path id="Path_965" data-name="Path 965" d="M433.895,444.832c0,.022-.15,0-.323-.066s-.3-.124-.292-.146.15,0,.319.071a.757.757,0,0,1,.3.142Z" transform="translate(-257.089 -270.357)" fill="#263238"/>
  <path id="Path_966" data-name="Path 966" d="M434.523,443.786c0,.022-.128.035-.279.027s-.274-.035-.274-.057.124-.035.279-.022A.6.6,0,0,1,434.523,443.786Z" transform="translate(-257.474 -269.865)" fill="#263238"/>
  <path id="Path_967" data-name="Path 967" d="M434.264,442.287a1.417,1.417,0,0,1-.243.248c-.151.12-.279.2-.292.186s.1-.128.243-.248S434.251,442.269,434.264,442.287Z" transform="translate(-257.339 -269.06)" fill="#263238"/>
  <path id="Path_968" data-name="Path 968" d="M433.805,441.349a.982.982,0,0,1-.575.531,2.875,2.875,0,0,1,.292-.266C433.681,441.468,433.788,441.336,433.805,441.349Z" transform="translate(-257.062 -268.538)" fill="#263238"/>
  <path id="Path_969" data-name="Path 969" d="M431.9,444.269a1.143,1.143,0,0,1-.332.261,2.62,2.62,0,0,1-.416.2,1.138,1.138,0,0,1-.27.08.257.257,0,0,1-.164-.04.164.164,0,0,1-.053-.173.774.774,0,0,1,.885-.416.735.735,0,0,1,.283.133c.057.049.084.08.08.084a1.117,1.117,0,0,0-.376-.164.744.744,0,0,0-.443.04.664.664,0,0,0-.376.341.107.107,0,0,0,.137.115,1.714,1.714,0,0,0,.248-.066,3.872,3.872,0,0,0,.416-.181C431.763,444.358,431.887,444.256,431.9,444.269Z" transform="translate(-255.627 -270.104)" fill="#263238"/>
  <path id="Path_970" data-name="Path 970" d="M432.888,443.439a.478.478,0,0,1-.221-.2.712.712,0,0,1-.1-.319.442.442,0,0,1,.142-.385.168.168,0,0,1,.226.071.476.476,0,0,1,.062.195,1.324,1.324,0,0,1,0,.323.615.615,0,0,1-.084.288,2.176,2.176,0,0,1,.027-.292,1.283,1.283,0,0,0,0-.31c0-.106-.08-.257-.173-.2a.372.372,0,0,0-.106.314.686.686,0,0,0,.075.288A1.577,1.577,0,0,0,432.888,443.439Z" transform="translate(-256.689 -269.19)" fill="#263238"/>
  <path id="Path_973" data-name="Path 973" d="M439.566,440.5a3.54,3.54,0,0,1-.695.673,3.774,3.774,0,0,1-.8.535s.341-.266.752-.6S439.552,440.481,439.566,440.5Z" transform="translate(-259.76 -268.064)" fill="#263238"/>
  <path id="Path_974" data-name="Path 974" d="M443.7,438.68c.022,0,.031.093.058.2s.062.19.044.2-.093-.062-.124-.186S443.679,438.675,443.7,438.68Z" transform="translate(-262.878 -267.05)" fill="#263238"/>
  <path id="Path_979" data-name="Path 979" d="M374.7,445.455v-3.518l6.593-.027.04,5.151-.412.026c-1.819.111-9.253.42-10.47.058C369.106,446.738,374.7,445.455,374.7,445.455Z" transform="translate(-221.949 -268.851)" fill="#7e57c2"/>
  <path id="Path_980" data-name="Path 980" d="M371.95,451.56s-1.965.571-1.717.885,7.775.292,11.094,0V452.3l-8.779.111S372.33,451.573,371.95,451.56Z" transform="translate(-221.929 -274.231)" fill="#fff"/>
  <path id="Path_981" data-name="Path 981" d="M381.441,453.188H381l-1.195.058c-1.013.04-2.412.08-3.956.089s-2.947,0-3.96-.049l-1.195-.044h1.2c1.009,0,2.412.031,3.956.027s2.943-.04,3.952-.066l1.2-.031h.443Z" transform="translate(-221.951 -275.129)" fill="#263238"/>
  <path id="Path_982" data-name="Path 982" d="M374.667,452.423a2.755,2.755,0,0,0-.23-.571,2.551,2.551,0,0,0-.407-.442,1.07,1.07,0,0,1,.637,1.013Z" transform="translate(-224.058 -274.147)" fill="#263238"/>
  <path id="Path_983" data-name="Path 983" d="M379.406,450.764a1.446,1.446,0,0,1-.208-.252c-.1-.15-.159-.283-.142-.292s.111.1.208.252S379.423,450.755,379.406,450.764Z" transform="translate(-226.859 -273.483)" fill="#263238"/>
  <path id="Path_984" data-name="Path 984" d="M380.534,450.344a1.029,1.029,0,0,1-.235-.155c-.115-.1-.195-.195-.181-.212s.119.053.235.155S380.547,450.326,380.534,450.344Z" transform="translate(-227.452 -273.347)" fill="#263238"/>
  <path id="Path_985" data-name="Path 985" d="M380.946,449.349a.722.722,0,0,1-.341.044.744.744,0,0,1-.345-.035.792.792,0,0,1,.341-.044.825.825,0,0,1,.345.035Z" transform="translate(-227.532 -272.976)" fill="#263238"/>
  <path id="Path_986" data-name="Path 986" d="M381.089,448.41a.7.7,0,0,1-.385.111.664.664,0,0,1-.394-.049,2.038,2.038,0,0,1,.389-.031A2.242,2.242,0,0,1,381.089,448.41Z" transform="translate(-227.559 -272.475)" fill="#263238"/>
  <path id="Path_987" data-name="Path 987" d="M377.763,449.427a1.274,1.274,0,0,1-.442,0,2.318,2.318,0,0,1-.443-.1,1.19,1.19,0,0,1-.257-.1.248.248,0,0,1-.106-.133.164.164,0,0,1,.066-.168.775.775,0,0,1,.96.221.739.739,0,0,1,.137.283.252.252,0,0,1,0,.115,1.185,1.185,0,0,0-.195-.363.784.784,0,0,0-.363-.235.647.647,0,0,0-.5.04c-.066.049-.04.128.035.173a1.037,1.037,0,0,0,.239.1,2.651,2.651,0,0,0,.443.115C377.613,449.414,377.763,449.414,377.763,449.427Z" transform="translate(-225.442 -272.718)" fill="#263238"/>
  <path id="Path_988" data-name="Path 988" d="M379.02,449.169a.442.442,0,0,1-.049-.292.686.686,0,0,1,.115-.31.443.443,0,0,1,.35-.217.164.164,0,0,1,.133.195.487.487,0,0,1-.071.19,1.262,1.262,0,0,1-.2.257c-.133.128-.235.181-.243.173s.084-.075.2-.212a1.554,1.554,0,0,0,.177-.252c.058-.093.093-.252,0-.27s-.212.093-.274.177a.681.681,0,0,0-.12.279,2.716,2.716,0,0,0-.022.283Z" transform="translate(-226.809 -272.442)" fill="#263238"/>
  <path id="Path_989" data-name="Path 989" d="M392.269,449.038h-.487a2.16,2.16,0,0,0-1.058.443,2.093,2.093,0,0,0-.659.942,4.552,4.552,0,0,0-.124.474.346.346,0,0,1,0-.133,1.563,1.563,0,0,1,.066-.358,2.1,2.1,0,0,1,.664-.987,2.022,2.022,0,0,1,1.106-.442,1.528,1.528,0,0,1,.363,0A.32.32,0,0,1,392.269,449.038Z" transform="translate(-232.925 -272.785)" fill="#263238"/>
  <path id="Path_990" data-name="Path 990" d="M393.618,442.94a11.2,11.2,0,0,1,.066,1.354,12.447,12.447,0,0,1,0,1.354,10.73,10.73,0,0,1-.062-1.354A11.874,11.874,0,0,1,393.618,442.94Z" transform="translate(-234.969 -269.425)" fill="#263238"/>
  <path id="Path_991" data-name="Path 991" d="M385.575,452a3.812,3.812,0,0,1-.96.1,3.955,3.955,0,0,1-.965-.071c0-.022.443,0,.965,0S385.575,452,385.575,452Z" transform="translate(-229.421 -274.477)" fill="#263238"/>
  <path id="Path_992" data-name="Path 992" d="M390.763,452s-.031.093-.075.19-.071.186-.093.186-.031-.106,0-.217A.226.226,0,0,1,390.763,452Z" transform="translate(-233.282 -274.477)" fill="#263238"/>
  <path id="Path_993" data-name="Path 993" d="M391.743,450.615a.415.415,0,0,1-.093.15c-.066.066-.137.115-.155.1s.027-.088.1-.155S391.716,450.6,391.743,450.615Z" transform="translate(-233.793 -273.703)" fill="#263238"/>
  <path id="Path_994" data-name="Path 994" d="M393.158,449.954a.413.413,0,0,0-.19.058c-.1.057-.164.088-.181.071s.035-.106.159-.146S393.166,449.927,393.158,449.954Z" transform="translate(-234.512 -273.315)" fill="#263238"/>
  <path id="Path_995" data-name="Path 995" d="M394.5,449.664c0,.022-.031.058-.084.08s-.106.022-.115,0,.031-.053.084-.075S394.489,449.646,394.5,449.664Z" transform="translate(-235.357 -273.167)" fill="#263238"/>
  <path id="Path_996" data-name="Path 996" d="M386.956,447.487l-6.646.009,0-.8,6.615-.04Z" transform="translate(-227.56 -271.499)"/>
  <rect id="Rectangle_294" data-name="Rectangle 294" width="2.487" height="18.607" transform="translate(191.146 112.391) rotate(-90)" fill="#e0e0e0"/>
  <path id="Path_794" data-name="Path 794" d="M472.379,299.42a5.942,5.942,0,0,1,0,2.328A5.727,5.727,0,0,1,472.379,299.42Z" transform="translate(-278.729 -189.414)" fill="#fafafa"/>
  <path id="Path_795" data-name="Path 795" d="M471.465,299.31a5.942,5.942,0,0,1,0,2.328A5.942,5.942,0,0,1,471.465,299.31Z" transform="translate(-278.222 -189.352)" fill="#fafafa"/>
  <path id="Path_796" data-name="Path 796" d="M505.445,299.42a5.728,5.728,0,0,1,0,2.328A5.94,5.94,0,0,1,505.445,299.42Z" transform="translate(-297.121 -189.414)" fill="#fafafa"/>
  <ellipse id="Ellipse_140" data-name="Ellipse 140" cx="0.115" cy="1.164" rx="0.115" ry="1.164" transform="translate(207.805 109.958)" fill="#fafafa"/>
  <path id="Path_797" data-name="Path 797" d="M487.188,302c0,.062-2.128.115-4.757.115s-4.761-.053-4.761-.115a94.845,94.845,0,0,1,9.518,0Z" transform="translate(-281.719 -190.777)" fill="#fafafa"/>
  <rect id="Rectangle_295" data-name="Rectangle 295" width="4.969" height="18.607" transform="translate(191.066 126.065) rotate(-90)" fill="#e0e0e0"/>
  <path id="Path_798" data-name="Path 798" d="M485.495,328.591a.442.442,0,0,1-.1.058c-.066.035-.172.084-.31.142a5.311,5.311,0,0,1-1.261.363,3.265,3.265,0,0,1-2.044-.292,2.7,2.7,0,0,1-.974-.885,2.053,2.053,0,0,1-.341-1.434,1.5,1.5,0,0,1,.345-.739.96.96,0,0,1,.783-.354,1.119,1.119,0,0,1,.788.442,1.535,1.535,0,0,1,.363.845,2.27,2.27,0,0,1-.642,1.77,2.85,2.85,0,0,1-1.77.885,4.792,4.792,0,0,1-2.08-.257,3.844,3.844,0,0,1-1.827-1.23,1.986,1.986,0,0,1-.442-1.071,1.394,1.394,0,0,1,.4-1.12.885.885,0,0,1,.58-.252,1.044,1.044,0,0,1,.611.168,1.61,1.61,0,0,1,.681,1,2.34,2.34,0,0,1-.73,2.19,3.673,3.673,0,0,1-2.1.854,5.209,5.209,0,0,1-2.173-.217,3,3,0,0,1-1.651-1.283,2.213,2.213,0,0,1-.208-1.974,1.036,1.036,0,0,1,.761-.642,1.177,1.177,0,0,1,.938.226,1.557,1.557,0,0,1,.442,1.673,2.907,2.907,0,0,1-.938,1.328,4.265,4.265,0,0,1-2.553.991,4.1,4.1,0,0,1-2.018-.442,3.982,3.982,0,0,1-1.058-.783,2.544,2.544,0,0,1-.221-.257c-.049-.062-.071-.093-.066-.1a4.732,4.732,0,0,0,1.385,1.058,4.049,4.049,0,0,0,1.974.407,4.1,4.1,0,0,0,2.451-.987,2.726,2.726,0,0,0,.885-1.243,1.368,1.368,0,0,0-.389-1.469,1,1,0,0,0-.779-.186.832.832,0,0,0-.611.527,2,2,0,0,0,.2,1.77,2.77,2.77,0,0,0,1.54,1.181,4.867,4.867,0,0,0,2.075.2,3.412,3.412,0,0,0,1.96-.8,2.111,2.111,0,0,0,.664-1.965,1.386,1.386,0,0,0-.58-.859.712.712,0,0,0-.907.058,1.15,1.15,0,0,0-.327.929,1.769,1.769,0,0,0,.376.951,3.619,3.619,0,0,0,1.7,1.146,4.562,4.562,0,0,0,1.978.252,2.624,2.624,0,0,0,1.664-.8,2.08,2.08,0,0,0,.6-1.6,1.19,1.19,0,0,0-.965-1.115.81.81,0,0,0-.646.292,1.38,1.38,0,0,0-.31.655,1.9,1.9,0,0,0,.3,1.328,2.585,2.585,0,0,0,.912.845,3.2,3.2,0,0,0,1.969.314,5.871,5.871,0,0,0,1.257-.314A2.8,2.8,0,0,1,485.495,328.591Z" transform="translate(-275.587 -203.924)" fill="#fafafa"/>
  <rect id="Rectangle_296" data-name="Rectangle 296" width="8.624" height="16.943" transform="translate(192.727 121.087) rotate(-90)" fill="#ebebeb"/>
  <path id="Path_799" data-name="Path 799" d="M476.568,305.64a72.947,72.947,0,0,1,0,8.346,75.729,75.729,0,0,1,0-8.346Z" transform="translate(-281.052 -192.881)" fill="#e0e0e0"/>
  <path id="Path_800" data-name="Path 800" d="M479.471,305.39a73.9,73.9,0,0,1,0,8.244,71.125,71.125,0,0,1,0-8.244Z" transform="translate(-282.664 -192.742)" fill="#e0e0e0"/>
  <path id="Path_801" data-name="Path 801" d="M504.168,304.77a78.859,78.859,0,0,1,0,8.677,81.868,81.868,0,0,1,0-8.677Z" transform="translate(-296.403 -192.396)" fill="#e0e0e0"/>
  <path id="Path_802" data-name="Path 802" d="M500.756,305a74.816,74.816,0,0,1,0,8.456,77.748,77.748,0,0,1,0-8.456Z" transform="translate(-294.504 -192.525)" fill="#e0e0e0"/>
  <rect id="Rectangle_297" data-name="Rectangle 297" width="114.228" height="75.77" transform="translate(91.676 14.266)" fill="#e0e0e0"/>
  <path id="Path_803" data-name="Path 803" d="M36.218,70.9A19.355,19.355,0,1,1,55.883,90.033,19.355,19.355,0,0,1,36.218,70.9Zm28.6-.443a9.469,9.469,0,1,1,0-.022Z" transform="translate(-36.215 -51.102)" fill="#1d4a6c"/>
  <path id="Path_804" data-name="Path 804" d="M36.216,70.683A19.426,19.426,0,0,1,55.244,50.93l.143,10.259a9.176,9.176,0,0,0-9.124,9.324A9.294,9.294,0,0,0,55.7,79.657L55.868,89.8A19.422,19.422,0,0,1,36.216,70.683Z" transform="translate(-36.213 -50.882)" fill="#fafafa"/>
  <path id="Path_805" data-name="Path 805" d="M79.194,50.824c12.487-.2,19.475,8.01,19.674,20.55l-10.1.074c-.093-6-3.458-10.418-9.423-10.32Z" transform="translate(-60.174 -50.82)" fill="#ebebeb"/>
  <path id="Path_806" data-name="Path 806" d="M244.11,434.6a2.734,2.734,0,0,1-.748-3.35,2.987,2.987,0,0,1,1.58-1.115,6.363,6.363,0,0,0,1.739-.885c.938-.8,1.2-2.133,1.823-3.2a4,4,0,0,1,3.469-2.08,4.387,4.387,0,0,1,3.584,2.9,12.96,12.96,0,0,1,.646,4.814,3.346,3.346,0,0,1-.695,2.522,3.115,3.115,0,0,1-2.354.544l-8.85-.274" transform="translate(-151.235 -258.851)" fill="#f5f5f5"/>
  <path id="Path_807" data-name="Path 807" d="M254.386,393H231.11l4.191,25a2.792,2.792,0,0,0,1.987,2.212l.084.022a1.3,1.3,0,0,1,.208.053,3.238,3.238,0,0,0,.474.057v.022h10.492a2.959,2.959,0,0,0,.566-.058,2.8,2.8,0,0,0,2.354-2.443l2.022-17.227.093-.686h0l.8-6.819Zm-4.394,15.93h-2.385l.239-7.253h2.766Zm.854-7.253h2.288l-.832,7.253h-2.053Zm-6.823,15.3-.128-6.3h3.438l-.208,6.306Zm-3.721-6.306h3.345l.146,6.306h-3Zm.261,6.306h-2.8c-.27-1.7-.615-3.916-.991-6.306h3.3Zm-.394-8.045-.566-7.253h3.85l.168,7.253Zm3.668,0-.168-7.253h3.947l-.243,7.253Zm-.208-9-.155-6.717H247.9l-.221,6.717Zm-.23,0h-3.929l-.522-6.717h4.3Zm-4.16,0h-4.16c-.146-.925-.288-1.805-.411-2.593-.443-2.717-.6-3.739-.69-4.124h4.739Zm.133,1.743.566,7.253H236.5c-.119-.735-.235-1.478-.354-2.213-.266-1.712-.535-3.425-.792-5.027Zm-3.1,7.253h-2.248l-1.217-7.253h2.319c.358,2.244.739,4.739,1.137,7.253Zm.27,1.739c.345,2.182.681,4.332.991,6.306h-2.159l-1.058-6.306Zm10.8,6.306.212-6.306h2.3l-.54,6.306Zm.566-17.041.226-6.717h3.208l-.575,6.717Zm-14.16-6.717c.093.487.518,3.128,1.084,6.717H232.5l-1.124-6.717Zm17.576,23.758h-1.8l.558-6.3h2Zm2-17.041h-2.354l.575-6.717h2.558Z" transform="translate(-144.587 -241.584)" fill="#e0e0e0"/>
  <rect id="Rectangle_298" data-name="Rectangle 298" width="5.014" height="20.019" transform="translate(273.833 26.072)" fill="#e0e0e0"/>
  <rect id="Rectangle_299" data-name="Rectangle 299" width="5.014" height="15.651" transform="translate(281.205 30.44)" fill="#e0e0e0"/>
  <rect id="Rectangle_300" data-name="Rectangle 300" width="5.014" height="12.076" transform="translate(288.689 34.015)" fill="#e0e0e0"/>
  <path id="Path_808" data-name="Path 808" d="M658.774,205.442a17.337,17.337,0,0,0-24.378.823,17.094,17.094,0,0,0,.827,24.236,17.342,17.342,0,0,0,24.382-.828,17.089,17.089,0,0,0-.832-24.232Zm-5.753,18.143a8.293,8.293,0,0,1-11.656.394,8.178,8.178,0,0,1-.4-11.589,8.3,8.3,0,0,1,11.66-.394,8.173,8.173,0,0,1,.4,11.571Z" transform="translate(-366.214 -134.451)" fill="#f5f5f5"/>
  <path id="Path_809" data-name="Path 809" d="M634.4,206.265a17.337,17.337,0,0,1,24.378-.823l-6.142,6.527a8.3,8.3,0,0,0-11.66.394,8.177,8.177,0,0,0,.4,11.589l-6.146,6.54a17.094,17.094,0,0,1-.828-24.227Z" transform="translate(-366.219 -134.451)" fill="#ebebeb"/>
  <path id="Path_810" data-name="Path 810" d="M684.848,204.91c8.514,7.908,9.536,20.762,1.58,29.205l-8.638-7.483c3.806-4.044,4.629-9.447.558-13.231Z" transform="translate(-392.991 -136.725)" fill="#fafafa"/>
  <rect id="Rectangle_302" data-name="Rectangle 302" width="48.875" height="13.766" rx="3.23" transform="translate(57.371 99.351)" fill="#e0e0e0"/>
  <ellipse id="Ellipse_141" data-name="Ellipse 141" cx="2.978" cy="2.991" rx="2.978" ry="2.991" transform="translate(62.356 103.67)" fill="#f5f5f5"/>
  <path id="Path_811" data-name="Path 811" d="M183,289.56a12.323,12.323,0,0,1-1.6,1.73c-.133.133-.266.257-.394.381l-.08.08-.075-.08a8.321,8.321,0,0,1-1.195-1.358,8.6,8.6,0,0,1,1.354,1.2h-.159l.389-.385A12.222,12.222,0,0,1,183,289.56Z" transform="translate(-115.986 -183.917)" fill="#e0e0e0"/>
  <path id="Path_812" data-name="Path 812" d="M228.083,288.375c0,.062-6.562.115-14.651.115s-14.651-.053-14.651-.115,6.558-.115,14.651-.115S228.083,288.309,228.083,288.375Z" transform="translate(-126.604 -183.192)" fill="#fafafa"/>
  <path id="Path_813" data-name="Path 813" d="M228.353,294.005c0,.066-6.562.115-14.651.115s-14.651-.049-14.651-.115,6.558-.115,14.651-.115S228.353,293.939,228.353,294.005Z" transform="translate(-126.755 -186.331)" fill="#fafafa"/>
  <path id="Path_814" data-name="Path 814" d="M612.944,298.25l-.894,69.473h39.971V299.2Z" transform="translate(-356.341 -188.761)" fill="#f5f5f5"/>
  <path id="Path_815" data-name="Path 815" d="M662.294,299.43l-.354,68.951h17.895V299.855Z" transform="translate(-384.155 -189.419)" fill="#e0e0e0"/>
  <path id="Path_816" data-name="Path 816" d="M616.91,301.08v14.209h18.935V301.753Z" transform="translate(-359.051 -190.339)" fill="#e0e0e0"/>
  <path id="Path_817" data-name="Path 817" d="M631.66,309.67v2.1h5.792V309.48Z" transform="translate(-367.274 -195.022)" fill="#f5f5f5"/>
  <rect id="Rectangle_303" data-name="Rectangle 303" width="5.983" height="0.858" transform="translate(264.386 118.511)" fill="#f5f5f5"/>
  <path id="Path_818" data-name="Path 818" d="M616.91,413.61v14.209h18.935V414.283Z" transform="translate(-359.051 -253.074)" fill="#e0e0e0"/>
  <path id="Path_819" data-name="Path 819" d="M631.66,422.2v2.1h5.792V422.01Z" transform="translate(-367.274 -257.757)" fill="#f5f5f5"/>
  <rect id="Rectangle_304" data-name="Rectangle 304" width="5.983" height="0.858" transform="translate(264.386 168.306)" fill="#f5f5f5"/>
  <path id="Path_820" data-name="Path 820" d="M616.91,337.28v14.209h18.935V337.953Z" transform="translate(-359.051 -210.52)" fill="#e0e0e0"/>
  <path id="Path_821" data-name="Path 821" d="M631.66,345.87v2.1h5.792V345.68Z" transform="translate(-367.274 -215.203)" fill="#f5f5f5"/>
  <rect id="Rectangle_305" data-name="Rectangle 305" width="5.983" height="0.858" transform="translate(264.386 134.53)" fill="#f5f5f5"/>
  <rect id="Rectangle_306" data-name="Rectangle 306" width="18.935" height="14.209" transform="translate(257.612 143.774)" fill="#e0e0e0"/>
  <path id="Path_822" data-name="Path 822" d="M631.39,389.977v1.974h5.447V389.8Z" transform="translate(-367.123 -239.8)" fill="#f5f5f5"/>
  <rect id="Rectangle_307" data-name="Rectangle 307" width="5.624" height="0.805" transform="translate(264.267 153.81)" fill="#f5f5f5"/>
  <rect id="Rectangle_308" data-name="Rectangle 308" width="118.295" height="77.593" transform="translate(84.807 16.164)" fill="#fafafa"/>
  <path id="Path_824" data-name="Path 824" d="M345.1,164.77c0-.748-.035-30.267-.093-77.593l.093.093H226.817l.115-.115v77.593l-.106-.106,118.295.106-118.295.106h-.106V87.04h.124l118.286.027h.093v.088C345.138,134.5,345.1,164.018,345.1,164.77Z" transform="translate(-142.002 -71.013)" fill="#263238"/>
  <path id="Path_825" data-name="Path 825" d="M308.531,184.18l11.633.164A11.584,11.584,0,0,1,308.531,195.6h-.071Z" transform="translate(-187.621 -125.168)" fill="#455a64"/>
  <path id="Path_826" data-name="Path 826" d="M332.939,208.69a1.424,1.424,0,0,1-.252,0h-.708l-2.6.031h-.022l-.022-.027c-1.04-1.305-2.376-3-3.837-4.837l-3.1-3.943.062.027-3.425-.031-.965.022a1.6,1.6,0,0,1-.341,0,2.071,2.071,0,0,1,.341-.022h.956l3.425-.031h.035v.027l3.1,3.934,3.806,4.868-.053-.027,2.6.031h.708A1.151,1.151,0,0,1,332.939,208.69Z" transform="translate(-192.768 -133.921)" fill="#263238"/>
  <path id="Path_827" data-name="Path 827" d="M352.041,222.709c0,.049-1.686.089-3.766.089s-3.766-.04-3.766-.089,1.686-.088,3.766-.088S352.041,222.66,352.041,222.709Z" transform="translate(-207.667 -146.598)" fill="#263238"/>
  <path id="Path_828" data-name="Path 828" d="M352.041,225.888c0,.049-1.686.089-3.766.089s-3.766-.04-3.766-.089,1.686-.088,3.766-.088A35.418,35.418,0,0,1,352.041,225.888Z" transform="translate(-207.667 -148.371)" fill="#263238"/>
  <path id="Path_829" data-name="Path 829" d="M289.8,166.062l-.164,11.417a11.419,11.419,0,1,1,11.8-11.417Z" transform="translate(-170.761 -108.705)" fill="#7e57c2"/>
  <path id="Path_830" data-name="Path 830" d="M280.955,163.024a.831.831,0,0,1-.2.044l-.58.093-2.089.3h-.035l-.027-.027-2.788-2.713c-1.327-1.328-2.544-2.509-3.412-3.381l-1.018-1.04a3.034,3.034,0,0,1-.358-.4,2.841,2.841,0,0,1,.407.35l1.058,1c.885.85,2.106,2.031,3.447,3.345l2.766,2.735h-.062l2.1-.23.58-.053A.57.57,0,0,1,280.955,163.024Z" transform="translate(-166.494 -109.402)" fill="#263238"/>
  <path id="Path_831" data-name="Path 831" d="M254.307,154.669c0,.049-1.686.088-3.766.088s-3.761-.04-3.761-.088,1.682-.089,3.761-.089S254.307,154.62,254.307,154.669Z" transform="translate(-153.338 -108.666)" fill="#263238"/>
  <path id="Path_832" data-name="Path 832" d="M254.307,157.819c0,.049-1.686.089-3.766.089s-3.761-.04-3.761-.089,1.682-.089,3.761-.089S254.307,157.77,254.307,157.819Z" transform="translate(-153.338 -110.422)" fill="#263238"/>
  <path id="Path_833" data-name="Path 833" d="M385.39,120.56l-.044-7.08a9.071,9.071,0,0,0-5.854,2.283,8.408,8.408,0,0,0-2.819,7.346,9.786,9.786,0,0,0,.168,1.031.057.057,0,0,0,0,.027h0l8.545-1.925Z" transform="translate(-225.51 -85.753)" fill="#7e57c2"/>
  <path id="Path_834" data-name="Path 834" d="M385.39,120.56l-.044-7.08a9.071,9.071,0,0,0-5.854,2.283,8.408,8.408,0,0,0-2.819,7.346,9.786,9.786,0,0,0,.168,1.031.057.057,0,0,0,0,.027h0l8.545-1.925Z" transform="translate(-225.51 -85.753)" fill="#fff"/>
  <path id="Path_835" data-name="Path 835" d="M406.4,118.434a8.407,8.407,0,0,0-6.9-4.828l-.27-.027H398.5l.049,7.08v1.664l8.58,1.854h0a8.217,8.217,0,0,0,.19-1.836,9.164,9.164,0,0,0-.916-3.907Z" transform="translate(-237.677 -85.809)" fill="#7e57c2"/>
  <path id="Path_836" data-name="Path 836" d="M406.4,118.434a8.407,8.407,0,0,0-6.9-4.828l-.27-.027H398.5l.049,7.08v1.664l8.58,1.854h0a8.217,8.217,0,0,0,.19-1.836,9.164,9.164,0,0,0-.916-3.907Z" transform="translate(-237.677 -85.809)"/>
  <path id="Path_837" data-name="Path 837" d="M386.719,135.25l-8.549,1.925a8.762,8.762,0,0,0,17.107-.058l-8.549-1.867" transform="translate(-226.36 -97.89)" fill="#7e57c2"/>
  <path id="Path_838" data-name="Path 838" d="M447.8,132.219c0,.062-4.425.115-9.868.115s-9.872-.053-9.872-.115,4.425-.119,9.872-.119S447.8,132.153,447.8,132.219Z" transform="translate(-254.084 -96.133)" fill="#263238"/>
  <path id="Path_839" data-name="Path 839" d="M447.8,127.135c0,.062-4.425.115-9.868.115s-9.872-.053-9.872-.115,4.425-.115,9.872-.115S447.8,127.073,447.8,127.135Z" transform="translate(-254.084 -93.301)" fill="#263238"/>
  <path id="Path_840" data-name="Path 840" d="M447.8,122.055c0,.062-4.425.115-9.868.115s-9.872-.053-9.872-.115,4.425-.115,9.872-.115S447.8,121.989,447.8,122.055Z" transform="translate(-254.084 -90.469)" fill="#263238"/>
  <path id="Path_841" data-name="Path 841" d="M447.8,136.949c0,.062-4.425.115-9.868.115s-9.872-.053-9.872-.115,4.425-.119,9.872-.119S447.8,136.905,447.8,136.949Z" transform="translate(-254.084 -98.77)" fill="#263238"/>
  <path id="Path_842" data-name="Path 842" d="M441.778,142.1c0,.066-3.036.115-6.779.115s-6.779-.049-6.779-.115,3.036-.115,6.779-.115S441.778,142.033,441.778,142.1Z" transform="translate(-254.188 -101.642)" fill="#263238"/>
  <rect id="Rectangle_309" data-name="Rectangle 309" width="2.031" height="22.705" transform="translate(153.166 56.742)" fill="#7e57c2"/>
  <rect id="Rectangle_310" data-name="Rectangle 310" width="2.031" height="14.992" transform="translate(157.106 64.451)" fill="#7e57c2"/>
  <rect id="Rectangle_311" data-name="Rectangle 311" width="2.031" height="19.997" transform="translate(161.044 59.561)" fill="#7e57c2"/>
  <rect id="Rectangle_312" data-name="Rectangle 312" width="2.031" height="21.829" transform="translate(164.983 57.618)" fill="#7e57c2"/>
  <rect id="Rectangle_313" data-name="Rectangle 313" width="2.031" height="14.532" transform="translate(168.917 64.911)" fill="#7e57c2"/>
  <rect id="Rectangle_314" data-name="Rectangle 314" width="2.031" height="11.682" transform="translate(172.857 67.76)" fill="#7e57c2"/>
  <rect id="Rectangle_315" data-name="Rectangle 315" width="2.031" height="20.373" transform="translate(176.795 59.07)" fill="#7e57c2"/>
  <rect id="Rectangle_316" data-name="Rectangle 316" width="2.031" height="16.7" transform="translate(180.734 62.742)" fill="#7e57c2"/>
  <rect id="Rectangle_317" data-name="Rectangle 317" width="2.031" height="19.634" transform="translate(184.673 59.809)" fill="#7e57c2"/>
  <rect id="Rectangle_318" data-name="Rectangle 318" width="2.031" height="13.377" transform="translate(188.612 66.066)" fill="#7e57c2"/>
  <rect id="Rectangle_319" data-name="Rectangle 319" width="2.031" height="15.921" transform="translate(192.551 63.521)" fill="#7e57c2"/>
  <path id="Path_843" data-name="Path 843" d="M422.183,233.824c0,.044-9.642.084-21.537.084s-21.537-.04-21.537-.084,9.642-.084,21.537-.084S422.183,233.775,422.183,233.824Z" transform="translate(-226.822 -152.797)" fill="#263238"/>
  <path id="Path_844" data-name="Path 844" d="M384.038,237.894a14.328,14.328,0,0,1-3.018,0A13.583,13.583,0,0,1,384.038,237.894Z" transform="translate(-227.971 -155.066)" fill="#263238"/>
  <path id="Path_845" data-name="Path 845" d="M394.606,238.064a19.38,19.38,0,0,1-3.606,0,19.381,19.381,0,0,1,3.606,0Z" transform="translate(-233.518 -155.161)" fill="#263238"/>
  <path id="Path_846" data-name="Path 846" d="M404.256,238.064a19.38,19.38,0,0,1-3.606,0A19.38,19.38,0,0,1,404.256,238.064Z" transform="translate(-238.883 -155.161)" fill="#263238"/>
  <path id="Path_847" data-name="Path 847" d="M413.9,238.064a19.381,19.381,0,0,1-3.606,0A19.381,19.381,0,0,1,413.9,238.064Z" transform="translate(-244.242 -155.161)" fill="#263238"/>
  <path id="Path_848" data-name="Path 848" d="M423.546,238.064a19.381,19.381,0,0,1-3.606,0A19.381,19.381,0,0,1,423.546,238.064Z" transform="translate(-249.607 -155.161)" fill="#263238"/>
  <path id="Path_849" data-name="Path 849" d="M433.186,238.064a19.38,19.38,0,0,1-3.606,0A19.38,19.38,0,0,1,433.186,238.064Z" transform="translate(-254.966 -155.161)" fill="#263238"/>
  <path id="Path_850" data-name="Path 850" d="M442.836,238.064a19.38,19.38,0,0,1-3.606,0A19.38,19.38,0,0,1,442.836,238.064Z" transform="translate(-260.331 -155.161)" fill="#263238"/>
  <path id="Path_851" data-name="Path 851" d="M452.456,238.064a19.38,19.38,0,0,1-3.606,0A19.38,19.38,0,0,1,452.456,238.064Z" transform="translate(-265.678 -155.161)" fill="#263238"/>
  <path id="Path_852" data-name="Path 852" d="M462.127,238.064a19.381,19.381,0,0,1-3.606,0A19.381,19.381,0,0,1,462.127,238.064Z" transform="translate(-271.054 -155.161)" fill="#263238"/>
  <path id="Path_853" data-name="Path 853" d="M471.776,238.064a19.381,19.381,0,0,1-3.606,0A19.381,19.381,0,0,1,471.776,238.064Z" transform="translate(-276.419 -155.161)" fill="#263238"/>
  <rect id="Rectangle_320" data-name="Rectangle 320" width="2.031" height="14.992" transform="translate(157.106 64.451)" fill="#fff"/>
  <rect id="Rectangle_321" data-name="Rectangle 321" width="2.031" height="21.829" transform="translate(164.983 57.618)" fill="#fff"/>
  <rect id="Rectangle_322" data-name="Rectangle 322" width="2.031" height="11.682" transform="translate(172.857 67.76)" fill="#fff"/>
  <rect id="Rectangle_323" data-name="Rectangle 323" width="2.031" height="16.7" transform="translate(180.734 62.742)" fill="#fff"/>
  <rect id="Rectangle_324" data-name="Rectangle 324" width="2.031" height="13.377" transform="translate(188.612 66.066)" fill="#fff"/>
  <path id="Path_854" data-name="Path 854" d="M254.461,117.846a1.96,1.96,0,1,1-1.956-1.956A1.96,1.96,0,0,1,254.461,117.846Z" transform="translate(-155.433 -87.096)" fill="#7e57c2"/>
  <path id="Path_855" data-name="Path 855" d="M298.3,116.675c0,.066-6.6.115-14.735.115s-14.735-.049-14.735-.115,6.593-.115,14.735-.115S298.3,116.613,298.3,116.675Z" transform="translate(-165.568 -87.47)" fill="#7e57c2"/>
  <path id="Path_856" data-name="Path 856" d="M280.959,122.025a1.632,1.632,0,0,1-.442.044l-1.243.04c-1.053,0-2.5.031-4.106.031s-3.058,0-4.106-.031l-1.248-.04a1.668,1.668,0,0,1-.443-.044,1.926,1.926,0,0,1,.443-.044c.3,0,.721-.027,1.248-.035,1.049,0,2.5-.035,4.106-.035s3.053,0,4.106.035c.527,0,.951.022,1.243.035A1.881,1.881,0,0,1,280.959,122.025Z" transform="translate(-165.891 -90.453)" fill="#7e57c2"/>
  <rect id="Rectangle_325" data-name="Rectangle 325" width="61.911" height="70.659" transform="translate(20.067 23.191)" fill="#fafafa"/>
  <path id="Path_857" data-name="Path 857" d="M143.33,173.756v-5.129c0-3.336,0-8.217-.027-14.417,0-12.39-.031-30.042-.049-51.109l.1.1H81.45l.115-.115v70.655l-.1-.1,44.834.066,12.558.027h.04l-12.536.027-44.967.049h-.1V103h62.132v.1c-.022,21.094-.04,38.768-.053,51.176,0,6.2-.022,11.063-.027,14.39v4.766A1.711,1.711,0,0,1,143.33,173.756Z" transform="translate(-61.348 -79.91)" fill="#263238"/>
  <path id="Path_858" data-name="Path 858" d="M147.668,182.75c0,.044-.686-.345-1.991-.757a12.833,12.833,0,0,0-5.708-.442,12.549,12.549,0,0,0-3.766,1.212,17.531,17.531,0,0,0-3.7,2.655c-1.212,1.071-2.421,2.288-3.81,3.412a13.134,13.134,0,0,1-4.868,2.628,7.239,7.239,0,0,1-2.836.173,9.351,9.351,0,0,1-2.633-.81,46.376,46.376,0,0,1-4.425-2.624,13.6,13.6,0,0,0-4.142-1.854,12.245,12.245,0,0,0-3.943-.305,12.656,12.656,0,0,0-5.443,1.77c-1.168.712-1.717,1.248-1.77,1.212a2.213,2.213,0,0,1,.394-.389,9.732,9.732,0,0,1,1.266-.965,12.443,12.443,0,0,1,9.554-1.673,14.05,14.05,0,0,1,4.266,1.867,45.979,45.979,0,0,0,4.381,2.575,7.483,7.483,0,0,0,5.191.611,12.908,12.908,0,0,0,4.761-2.513c1.372-1.1,2.58-2.31,3.814-3.385a17.793,17.793,0,0,1,3.8-2.682,12.585,12.585,0,0,1,9.686-.628,9.783,9.783,0,0,1,1.46.628A2.853,2.853,0,0,1,147.668,182.75Z" transform="translate(-71.009 -123.481)" fill="#7e57c2"/>
  <rect id="Rectangle_326" data-name="Rectangle 326" width="5.261" height="14.235" transform="translate(37.108 68.761)" fill="#7e57c2"/>
  <rect id="Rectangle_327" data-name="Rectangle 327" width="5.261" height="14.235" transform="translate(59.445 68.761)" fill="#7e57c2"/>
  <rect id="Rectangle_328" data-name="Rectangle 328" width="5.261" height="22.594" transform="translate(67.056 60.397)" fill="#7e57c2"/>
  <rect id="Rectangle_329" data-name="Rectangle 329" width="5.261" height="4.792" transform="translate(30.297 78.513)" fill="#7e57c2"/>
  <rect id="Rectangle_330" data-name="Rectangle 330" width="5.266" height="7.806" transform="translate(44.555 75.186)" fill="#7e57c2"/>
  <rect id="Rectangle_331" data-name="Rectangle 331" width="5.261" height="9.598" transform="translate(51.997 73.394)" fill="#7e57c2"/>
  <path id="Path_859" data-name="Path 859" d="M125.281,241.9a9.81,9.81,0,0,1-2.845.212,9.81,9.81,0,0,1-2.845-.212,9.808,9.808,0,0,1,2.845-.212A9.629,9.629,0,0,1,125.281,241.9Z" transform="translate(-82.695 -157.229)" fill="#263238"/>
  <path id="Path_860" data-name="Path 860" d="M110.481,241.9a9.809,9.809,0,0,1-2.845.212,9.81,9.81,0,0,1-2.845-.212,9.808,9.808,0,0,1,2.845-.212A9.629,9.629,0,0,1,110.481,241.9Z" transform="translate(-74.444 -157.229)" fill="#263238"/>
  <path id="Path_861" data-name="Path 861" d="M193.51,241.9a24.435,24.435,0,0,1-6.43,0,12.47,12.47,0,0,1,3.217-.212A12.193,12.193,0,0,1,193.51,241.9Z" transform="translate(-120.152 -157.229)" fill="#263238"/>
  <ellipse id="Ellipse_142" data-name="Ellipse 142" cx="3.213" cy="0.212" rx="3.213" ry="0.212" transform="translate(58.945 84.461)" fill="#263238"/>
  <path id="Path_862" data-name="Path 862" d="M158.451,241.9a19.164,19.164,0,0,1-5.691,0,9.808,9.808,0,0,1,2.845-.212A9.629,9.629,0,0,1,158.451,241.9Z" transform="translate(-101.187 -157.229)" fill="#263238"/>
  <path id="Path_863" data-name="Path 863" d="M141.066,241.9a9.766,9.766,0,0,1-2.841.212,9.809,9.809,0,0,1-2.845-.212,9.808,9.808,0,0,1,2.845-.212A9.587,9.587,0,0,1,141.066,241.9Z" transform="translate(-91.498 -157.229)" fill="#263238"/>
  <rect id="Rectangle_332" data-name="Rectangle 332" width="43.016" height="17.864" transform="translate(30.173 33.493)" fill="#e0e0e0"/>
  <path id="Path_864" data-name="Path 864" d="M119.538,136.735a2.009,2.009,0,1,1-2.009-2A2.009,2.009,0,0,1,119.538,136.735Z" transform="translate(-80.426 -97.6)" fill="#263238"/>
  <rect id="Rectangle_333" data-name="Rectangle 333" width="13.974" height="0.774" transform="translate(41.117 37.75)" fill="#263238"/>
  <rect id="Rectangle_334" data-name="Rectangle 334" width="27.183" height="0.774" transform="translate(41.117 39.515)" fill="#fff"/>
  <path id="Path_865" data-name="Path 865" d="M119.538,150.675a2,2,0,1,1-.589-1.419A2.009,2.009,0,0,1,119.538,150.675Z" transform="translate(-80.426 -105.371)" fill="#7e57c2"/>
  <rect id="Rectangle_335" data-name="Rectangle 335" width="7.133" height="0.774" transform="translate(41.117 43.918)" fill="#7e57c2"/>
  <rect id="Rectangle_336" data-name="Rectangle 336" width="27.183" height="0.774" transform="translate(41.117 45.68)" fill="#fff"/>
  <rect id="Rectangle_337" data-name="Rectangle 337" width="67.986" height="77.593" transform="translate(209.383 10.505)" fill="#fafafa"/>
  <path id="Path_866" data-name="Path 866" d="M575.252,152.008v-5.633c0-3.664,0-9.023-.027-15.828,0-13.607-.031-32.993-.049-56.132l.1.1H507.3l.119-.115c0,28.608,0,55.286-.022,77.593l-.1-.1,49.317.049,13.784.027h.04l-13.771.075-49.379.049h-.1V74.3H575.4v.1c0,23.165-.04,42.573-.053,56.2,0,6.8,0,12.151-.027,15.811v5.23A1.615,1.615,0,0,0,575.252,152.008Z" transform="translate(-297.882 -63.91)" fill="#263238"/>
  <rect id="Rectangle_338" data-name="Rectangle 338" width="55.074" height="44.184" transform="translate(214.826 16.709)" fill="#e0e0e0"/>
  <rect id="Rectangle_339" data-name="Rectangle 339" width="1.805" height="0.522" transform="translate(218.47 53.038)" fill="#263238"/>
  <rect id="Rectangle_340" data-name="Rectangle 340" width="2.31" height="0.522" transform="translate(222.579 55.822)" fill="#263238"/>
  <rect id="Rectangle_341" data-name="Rectangle 341" width="2.31" height="0.522" transform="translate(230.809 55.822)" fill="#263238"/>
  <rect id="Rectangle_342" data-name="Rectangle 342" width="2.31" height="0.522" transform="translate(238.859 55.822)" fill="#263238"/>
  <rect id="Rectangle_343" data-name="Rectangle 343" width="2.31" height="0.522" transform="translate(246.903 55.822)" fill="#263238"/>
  <rect id="Rectangle_344" data-name="Rectangle 344" width="2.31" height="0.522" transform="translate(254.953 55.822)" fill="#263238"/>
  <rect id="Rectangle_345" data-name="Rectangle 345" width="2.31" height="0.522" transform="translate(262.996 55.822)" fill="#263238"/>
  <rect id="Rectangle_346" data-name="Rectangle 346" width="1.805" height="0.522" transform="translate(218.47 46.078)" fill="#263238"/>
  <rect id="Rectangle_347" data-name="Rectangle 347" width="1.805" height="0.522" transform="translate(218.47 32.988)" fill="#263238"/>
  <rect id="Rectangle_348" data-name="Rectangle 348" width="1.805" height="0.522" transform="translate(218.47 26.409)" fill="#263238"/>
  <rect id="Rectangle_349" data-name="Rectangle 349" width="1.805" height="0.522" transform="translate(218.564 39.533)" fill="#263238"/>
  <path id="Path_867" data-name="Path 867" d="M578.246,132.452a1.108,1.108,0,0,1-.195,0h-2.779l-8.04.04-26.55.031H534.31v-.115c0-8.85.031-16.678.04-22.28,0-2.788.027-5.027.035-6.58v-2.213a.6.6,0,0,1,0-.155.6.6,0,0,1,0,.155v2.213c0,1.553.022,3.792.036,6.58,0,5.6,0,13.412.04,22.28l-.115-.111h6.288l26.55.035,8.04.035,2.213.022H578Z" transform="translate(-313.002 -78.896)" fill="#263238"/>
  <path id="Path_868" data-name="Path 868" d="M581.1,140.605c0,.062-9.531.115-21.289.115s-21.293-.053-21.293-.115,9.531-.115,21.293-.115S581.1,140.543,581.1,140.605Z" transform="translate(-315.348 -100.811)" fill="#263238"/>
  <path id="Path_869" data-name="Path 869" d="M581.1,125.855c0,.066-9.531.115-21.289.115s-21.293-.049-21.293-.115,9.531-.115,21.293-.115S581.1,125.771,581.1,125.855Z" transform="translate(-315.348 -92.588)" fill="#263238"/>
  <path id="Path_870" data-name="Path 870" d="M581.1,110.935c0,.066-9.531.115-21.289.115s-21.293-.049-21.293-.115,9.531-.115,21.293-.115S581.1,110.873,581.1,110.935Z" transform="translate(-315.348 -84.27)" fill="#263238"/>
  <path id="Path_871" data-name="Path 871" d="M581.1,155.4c0,.066-9.531.115-21.289.115s-21.293-.049-21.293-.115,9.531-.115,21.293-.115S581.1,155.333,581.1,155.4Z" transform="translate(-315.348 -109.056)" fill="#263238"/>
  <path id="Path_872" data-name="Path 872" d="M539.51,131.686v-5.81l3.62-5.62,2.46,1.885,5.04-7.832L553.6,116.4l4.137-7.226,3.363,2.739,5.04-9.585,5.443,10.713,4.394-5.359,5.173-1.482v25.484Z" transform="translate(-315.9 -79.537)" fill="#455a64"/>
  <path id="Path_873" data-name="Path 873" d="M581.654,106.309h-1.411l-3.983.031.053-.027-4.248,5.562-.027.035H561.383l.093-.053c-1.4,2.332-2.912,4.868-4.474,7.452l-4.4,7.306-.084.142-.1-.133c-2.1-2.894-4.044-5.571-5.753-7.934h.142l-5.288,8.231-1.474,2.261-.394.589c-.088.133-.142.2-.142.2s.035-.075.119-.212l.367-.606,1.434-2.288,5.2-8.235.075-.119.08.115,5.775,7.925h-.186l4.39-7.31,4.483-7.447.031-.053H571.99l-.071.035,4.288-5.527v-.027h.031l3.983.031h1.319Z" transform="translate(-315.9 -81.706)" fill="#7e57c2"/>
  <path id="Path_874" data-name="Path 874" d="M558.693,138.114a.411.411,0,1,1-.411-.394A.4.4,0,0,1,558.693,138.114Z" transform="translate(-326.136 -99.267)" fill="#7e57c2"/>
  <path id="Path_875" data-name="Path 875" d="M586.444,122.339a.412.412,0,1,1-.407-.389.4.4,0,0,1,.407.389Z" transform="translate(-341.607 -90.475)" fill="#7e57c2"/>
  <path id="Path_876" data-name="Path 876" d="M608.024,118.5a.412.412,0,1,1-.412-.394A.4.4,0,0,1,608.024,118.5Z" transform="translate(-353.638 -88.334)" fill="#7e57c2"/>
  <path id="Path_877" data-name="Path 877" d="M573.11,203.125c0,.066-11.62.115-25.953.115s-25.957-.049-25.957-.115,11.62-.115,25.957-.115S573.11,203.063,573.11,203.125Z" transform="translate(-305.692 -135.665)" fill="#263238"/>
  <path id="Path_878" data-name="Path 878" d="M573.11,209.465c0,.066-11.62.115-25.953.115s-25.957-.049-25.957-.115,11.62-.115,25.957-.115S573.11,209.4,573.11,209.465Z" transform="translate(-305.692 -139.2)" fill="#263238"/>
  <path id="Path_879" data-name="Path 879" d="M573.11,215.855c0,.062-11.62.115-25.953.115s-25.957-.053-25.957-.115,11.62-.115,25.957-.115S573.11,215.771,573.11,215.855Z" transform="translate(-305.692 -142.762)" fill="#263238"/>
  <path id="Path_880" data-name="Path 880" d="M573.11,222.155c0,.062-11.62.115-25.953.115s-25.957-.053-25.957-.115,11.62-.115,25.957-.115S573.11,222.089,573.11,222.155Z" transform="translate(-305.692 -146.275)" fill="#263238"/>
  <path id="Path_881" data-name="Path 881" d="M587,200.067c1.42-2.385,1.836-5.562,2.213-8.315.168-1.3.469-3.137-.443-3.952s-1.062-2.213-2.182-2.881a3.443,3.443,0,0,0-3.7.031" transform="translate(-340.085 -125.289)" fill="#263238"/>
  <path id="Path_882" data-name="Path 882" d="M573.437,210.163h0a3.832,3.832,0,0,1-4.124-3.673c-.08-2.089-.151-4.195-.151-4.195a3.765,3.765,0,0,1-3.39-3.425c-.23-3.129-.124-10.35-.124-10.35h0a10.9,10.9,0,0,1,11.018.708l-.195,11.009v5.925C576.451,208.149,575.42,210.012,573.437,210.163Z" transform="translate(-330.46 -126.937)" fill="#ffbe9d"/>
  <path id="Path_883" data-name="Path 883" d="M565.543,191.745a1.6,1.6,0,0,1,2.137-.469,1.823,1.823,0,0,1,.606,2.274,2.4,2.4,0,0,1-1.535,1.159,1.208,1.208,0,0,0-.943,1.3c.093.783,1.4,1.08,1.987,1.73.916,1.009,2.929,1.438,4.288,1.6s1.168.168,1.943-.925a4.164,4.164,0,0,0,.761-2.54l.146-6.921a9.912,9.912,0,0,0-.159-2.482,3.328,3.328,0,0,0-1.328-2.053,10.222,10.222,0,0,0-2.589-.823A21.37,21.37,0,0,1,567.84,182a3.72,3.72,0,0,0-3.274-.319c-.73.367-1.221,1.1-1.934,1.5-1.009.575-2.385.443-2.876,1.934a2.473,2.473,0,0,0,0,1.589,3.671,3.671,0,0,0,5,1.965,4.993,4.993,0,0,0,.058,2.19c.115.345.159.885.7.885" transform="translate(-327.114 -123.631)" fill="#263238"/>
  <path id="Path_884" data-name="Path 884" d="M574.261,207.243a.551.551,0,0,0,.394.15.734.734,0,0,0,.584-.717.783.783,0,0,0-.536-.779c-.261-.093-.442-.044-.442-.08s.173-.142.5-.075a.961.961,0,0,1,.491.283.921.921,0,0,1,.23.664.859.859,0,0,1-.814.885.469.469,0,0,1-.35-.173C574.248,207.3,574.248,207.248,574.261,207.243Z" transform="translate(-335.27 -137.177)" fill="#eb996e"/>
  <path id="Path_885" data-name="Path 885" d="M581.63,187.014a.982.982,0,0,1,.261-.266,2.151,2.151,0,0,1,.951-.367,2.735,2.735,0,0,1,1.5.226,3.424,3.424,0,0,1,1.381,1.235,7.017,7.017,0,0,1,.974,3.168,8.352,8.352,0,0,1,.084,1.367,7.653,7.653,0,0,1-.248-1.328,7.523,7.523,0,0,0-1-3.062,3.332,3.332,0,0,0-1.279-1.168,2.527,2.527,0,0,0-2.62.212Z" transform="translate(-339.382 -126.382)" fill="#455a64"/>
  <path id="Path_886" data-name="Path 886" d="M560.566,189.4a.3.3,0,0,1-.119,0,.946.946,0,0,1-.31-.142,1.144,1.144,0,0,1-.363-.407,1.036,1.036,0,0,1-.1-.726,1.191,1.191,0,0,1,.5-.73,1.708,1.708,0,0,1,.991-.195,1.354,1.354,0,0,0,.943-.239,6.652,6.652,0,0,0,.765-.823,3.877,3.877,0,0,1,1.951-1.124,4.174,4.174,0,0,1,1.832-.044,3.539,3.539,0,0,1,1.155.442,1.415,1.415,0,0,1,.359.274,5.533,5.533,0,0,0-1.54-.558,4.164,4.164,0,0,0-1.77.084,3.761,3.761,0,0,0-1.828,1.075,6.572,6.572,0,0,1-.8.85,1.3,1.3,0,0,1-.54.243,2.549,2.549,0,0,1-.544.027,1.535,1.535,0,0,0-.885.142,1.026,1.026,0,0,0-.443.611,1,1,0,0,0,.354,1.022,2.6,2.6,0,0,0,.385.217Z" transform="translate(-327.128 -125.562)" fill="#455a64"/>
  <path id="Path_887" data-name="Path 887" d="M577.044,202.412c0-.022.155-.08.412-.252a2.589,2.589,0,0,0,.854-.965,2.368,2.368,0,0,0,.142-1.832,2.34,2.34,0,0,0-.566-.943,4.563,4.563,0,0,0-.978-.712c-.367-.212-.739-.412-1.075-.642a3.574,3.574,0,0,1-.885-.819,3.778,3.778,0,0,1-.734-1.85,3.455,3.455,0,0,1,.106-1.327,1.486,1.486,0,0,1,.124-.341c.035-.08.058-.115.062-.111a4.726,4.726,0,0,0-.128,1.77,3.739,3.739,0,0,0,.739,1.743,3.583,3.583,0,0,0,.823.761c.328.217.695.412,1.067.628a4.6,4.6,0,0,1,1.027.757,2.545,2.545,0,0,1,.606,1.031,2.509,2.509,0,0,1-.2,1.978,2.478,2.478,0,0,1-.947.947,1.216,1.216,0,0,1-.442.177Z" transform="translate(-335.234 -129.873)" fill="#455a64"/>
  <path id="Path_888" data-name="Path 888" d="M583.574,197.474a1.356,1.356,0,0,1-.4.093,6.163,6.163,0,0,1-1.128.031,6.934,6.934,0,0,1-3.487-1.2,5.531,5.531,0,0,1-2.292-2.881,2.4,2.4,0,0,1-.044-1.133.886.886,0,0,1,.155-.385,2.8,2.8,0,0,0,.049,1.474,5.655,5.655,0,0,0,2.261,2.735,7.341,7.341,0,0,0,3.372,1.226C582.986,197.536,583.57,197.43,583.574,197.474Z" transform="translate(-336.339 -129.528)" fill="#455a64"/>
  <path id="Path_889" data-name="Path 889" d="M593.388,197.065a5.536,5.536,0,0,1,4.314-1.956,3.976,3.976,0,0,1,3.615,2.8,10.031,10.031,0,0,1-.217,3.655c-.15,1.217,0,2.655.987,3.367a5.666,5.666,0,0,0,2.1.69,2.288,2.288,0,0,1,1.735,1.235,1.762,1.762,0,0,1-1.075,2.049,3.982,3.982,0,0,1-2.5.035,2.093,2.093,0,0,1-.929,2.5,2.766,2.766,0,0,1-2.779-.115,4.151,4.151,0,0,1-1.695-2.3,2.06,2.06,0,0,1-2.845.54,2.973,2.973,0,0,1-1.15-2.859,5.531,5.531,0,0,1,1.443-2.859,7.179,7.179,0,0,0,1-1.283,1.624,1.624,0,0,0,.062-1.562.938.938,0,0,0-1.389-.279" transform="translate(-345.667 -131.26)" fill="#263238"/>
  <path id="Path_890" data-name="Path 890" d="M595.331,201.542a1.08,1.08,0,0,1-.938,0,2.252,2.252,0,0,1-1.363-1.77,2.319,2.319,0,0,1,.146-1.27,2.4,2.4,0,0,1,.6-.85,1.517,1.517,0,0,1,.823-.443,7.127,7.127,0,0,0-.708.575,2.319,2.319,0,0,0-.637,1.969,2.213,2.213,0,0,0,1.2,1.664A2.283,2.283,0,0,0,595.331,201.542Z" transform="translate(-345.72 -132.432)" fill="#7e57c2"/>
  <path id="Path_891" data-name="Path 891" d="M569.1,217.209a1.474,1.474,0,0,1-.717-.071,3.867,3.867,0,0,1-2.531-2.239,1.455,1.455,0,0,1-.159-.7,5.1,5.1,0,0,1,.305.633,4.448,4.448,0,0,0,1.013,1.328,4.542,4.542,0,0,0,1.421.845A4.484,4.484,0,0,1,569.1,217.209Z" transform="translate(-330.495 -141.904)" fill="#eb996e"/>
  <path id="Path_892" data-name="Path 892" d="M596.823,212.93h-.155a1.475,1.475,0,0,1-.407-.181,2.213,2.213,0,0,1-.885-1.35,2.85,2.85,0,0,1-.04-1.137,4.491,4.491,0,0,1,.416-1.23c.394-.827,1.013-1.611,1.473-2.518a4.43,4.43,0,0,0,.443-1.394,2.7,2.7,0,0,0-1.739-2.9,2.867,2.867,0,0,0-1.549-.093c-.367.075-.553.177-.562.159s.04-.035.128-.089a2.358,2.358,0,0,1,.411-.159,2.783,2.783,0,0,1,3.359,1.677,2.926,2.926,0,0,1,.177,1.434,4.7,4.7,0,0,1-.482,1.469c-.478.938-1.1,1.712-1.491,2.509a3.346,3.346,0,0,0-.407,2.239,2.212,2.212,0,0,0,.779,1.327A3.428,3.428,0,0,0,596.823,212.93Z" transform="translate(-346.177 -135.063)" fill="#455a64"/>
  <path id="Path_893" data-name="Path 893" d="M601.557,214.672a.941.941,0,0,1-.195,0,2.212,2.212,0,0,1-.557-.1,3.155,3.155,0,0,1-1.633-1.27,4.832,4.832,0,0,1-.7-2.982,29.621,29.621,0,0,1,.6-3.7,8.809,8.809,0,0,0,.133-1.907,4.961,4.961,0,0,0-.4-1.708,3.1,3.1,0,0,0-2.213-1.832,4.517,4.517,0,0,0-2.013,0c-.473.106-.721.212-.73.19s.057-.04.173-.093a4.656,4.656,0,0,1,.535-.186,4.386,4.386,0,0,1,2.071-.075,3.288,3.288,0,0,1,1.327.593,3.406,3.406,0,0,1,1.031,1.327,5,5,0,0,1,.443,1.77,8.413,8.413,0,0,1-.128,1.956,34.144,34.144,0,0,0-.62,3.677,4.748,4.748,0,0,0,.628,2.881,3.124,3.124,0,0,0,1.522,1.274A4.869,4.869,0,0,0,601.557,214.672Z" transform="translate(-346.194 -134.499)" fill="#455a64"/>
  <path id="Path_894" data-name="Path 894" d="M605.01,264.17l-6.66,5.2,2.792,4.593,8.027-5.912Z" transform="translate(-348.704 -169.762)" fill="#ffbe9d"/>
  <path id="Path_895" data-name="Path 895" d="M552.82,219s.035-.558-1.42-.637a14.882,14.882,0,0,0-1.615-.053,3.691,3.691,0,0,1-.695-1.328,4.077,4.077,0,0,1,.31-1.372l1.473-.133-.4-1-1.04.071-2.925.354-1.164,5.115-7.992,14.912a3.854,3.854,0,0,0,1.527,5.607h0c2.067,1,4.832-1.12,5.6-3.283l4.425-16.589,1.558-1.212,2.212-.407" transform="translate(-314.338 -142.06)" fill="#ffbe9d"/>
  <path id="Path_896" data-name="Path 896" d="M532,357.621l10.863-62.57h0c.027-.093.049-.181.071-.27h0c1.854-7.341,4.708-9.691,4.708-9.691l16.643,1.044c1.416,2.544,1.6,8.647,1.6,8.647.195.748-3.518,61.384-3.518,61.384l-5.584-.173-3.018-57.366-16.2,59.238Z" transform="translate(-311.714 -181.425)" fill="#ffbe9d"/>
  <path id="Path_914" data-name="Path 914" d="M594.87,228.68a10.969,10.969,0,0,1,4.425,1.735c5.261,3.412,14.063,10.62,13.333,13.97-.637,2.841-7.523,6.3-7.523,6.3l-4.425-5.363,2.73-1.562-6.713-4.469Z" transform="translate(-346.763 -149.976)" fill="#263238"/>
  <path id="Path_915" data-name="Path 915" d="M565.222,239.148l-.217.8-.774,3.7-.181,5.421c3.982,5.142,4.053,9.47,4.053,9.47l-20.165,2.354a39.164,39.164,0,0,1,1.456-9c1.164-1.978,1.111-7.9.885-8.116-1.257-1.248-1.562-2.164-.558-3.761,0,0-6.253,6.567-6.894,7.155-2.213,2.027-4.337,1.46-5.31.58-2.761-2.465.071-5.642.071-5.642l10.532-12.067a5.253,5.253,0,0,1,2.735-1.668,22.716,22.716,0,0,1,2.257-.4l7.031.058a11.908,11.908,0,0,1,2.093.257,5.022,5.022,0,0,1,3.071,3.806A23.039,23.039,0,0,1,565.222,239.148Z" transform="translate(-314.115 -149.581)" fill="#263238"/>
  <path id="Path_916" data-name="Path 916" d="M600.344,242.3a2.693,2.693,0,0,1,.044.584c0,.376,0,.925-.04,1.6a41.836,41.836,0,0,1-.695,5.208c-.128.686-.27,1.35-.416,1.965v-.022c-.062,1.566-.124,2.921-.177,3.885-.031.443-.053.823-.071,1.124a1.688,1.688,0,0,1-.053.407,1.567,1.567,0,0,1-.022-.407v-1.128c0-.965.049-2.323.1-3.89V251.6c.137-.606.274-1.27.4-1.956.385-2.009.642-3.845.761-5.182.058-.668.089-1.208.111-1.584A3.1,3.1,0,0,1,600.344,242.3Z" transform="translate(-349.016 -157.57)" fill="#455a64"/>
  <path id="Path_917" data-name="Path 917" d="M602.3,254.55a84.382,84.382,0,0,1,7.235,5,40.883,40.883,0,0,1-3.682-2.407,42.232,42.232,0,0,1-3.553-2.6Z" transform="translate(-350.906 -164.399)" fill="#455a64"/>
  <path id="Path_918" data-name="Path 918" d="M566.819,236.69a.518.518,0,0,1,.106.08,2.11,2.11,0,0,1,.248.274,3.058,3.058,0,0,1,.549,1.248,4.124,4.124,0,0,1-.115,2.022,8.262,8.262,0,0,1-1.133,2.213,7.8,7.8,0,0,1-.832.978c-.292.3-.606.54-.885.792-.558.5-1.036.974-1.434,1.381s-.712.739-.929.969-.341.363-.354.35a2.17,2.17,0,0,1,.288-.407c.195-.248.491-.6.885-1.027s.854-.885,1.411-1.42c.279-.261.584-.509.885-.8a7.789,7.789,0,0,0,.805-.956,8.475,8.475,0,0,0,1.115-2.124,4.135,4.135,0,0,0,.159-1.929A3.617,3.617,0,0,0,566.819,236.69Z" transform="translate(-328.461 -154.442)" fill="#455a64"/>
  <path id="Path_919" data-name="Path 919" d="M567.54,273.568l.234-2.708h13.753l-.075,2.115Z" transform="translate(-331.527 -173.492)" fill="#455a64"/>
  <path id="Path_920" data-name="Path 920" d="M538.733,258.707a8.784,8.784,0,0,0-.766.8,3.66,3.66,0,0,0,.195,4.8,10.591,10.591,0,0,0,.827.735.562.562,0,0,1-.283-.119,3.13,3.13,0,0,1-.659-.5,3.633,3.633,0,0,1-.2-5.022,3.032,3.032,0,0,1,.615-.553C538.636,258.738,538.733,258.694,538.733,258.707Z" transform="translate(-314.464 -166.715)" fill="#455a64"/>
  <path id="Path_925" data-name="Path 925" d="M561.733,281.614c5.253,16.572-1.518,36.688.106,56,.159,1.9.929,4.164-.845,5.244a2.894,2.894,0,0,1-1.6.394,11.629,11.629,0,0,1-3.867-1.288,11.505,11.505,0,0,0-7.611-.3c-1.673.522-3.336,1.447-5.071,1.186-2.306-.35-3.8-2.628-5.916-3.593-1.987-.885-4.279-.566-6.461-.62H530.4a4.894,4.894,0,0,1-4.522-6.2c3.173-11.611,13.682-49.322,18.337-56.2l13.921-.606A20.364,20.364,0,0,1,561.733,281.614Z" transform="translate(-308.201 -176.156)" fill="#7e57c2"/>
  <path id="Path_926" data-name="Path 926" d="M588.13,306.77a6.188,6.188,0,0,1-.757.951,22.472,22.472,0,0,1-2.053,2.1,13.74,13.74,0,0,1-2.425,1.664,5.487,5.487,0,0,1-1.106.513,36.964,36.964,0,0,0,3.376-2.354c.858-.743,1.562-1.5,2.089-2.036A6.269,6.269,0,0,1,588.13,306.77Z" transform="translate(-339.47 -193.511)" fill="#263238"/>
  <path id="Path_927" data-name="Path 927" d="M571.911,320.9a59.249,59.249,0,0,0-2.319,35.471,3.852,3.852,0,0,1-.075,3.036c-.743,1.124-2.553,1.049-3.575.164a6.137,6.137,0,0,1-1.686-3.6c-1.912-9.885,1.549-19.824,5.284-29.174" transform="translate(-329.394 -201.389)"/>
  <rect id="Rectangle_350" data-name="Rectangle 350" width="26.369" height="1.283" transform="translate(136.829 125.096)" fill="#263238"/>
  <path id="Path_928" data-name="Path 928" d="M328.863,313.072,323.92,294.54h20.585l4.478,18.532Z" transform="translate(-196.122 -186.693)" fill="#263238"/>
  <path id="Path_929" data-name="Path 929" d="M349.21,312.745H330.819L326.54,296.47h18.483Z" transform="translate(-197.583 -187.769)" fill="#f5f5f5"/>
  <path id="Path_930" data-name="Path 930" d="M326.845,297.643h18.483l-.314-1.173H326.54Z" transform="translate(-197.583 -187.769)" fill="#ebebeb"/>
  <path id="Path_931" data-name="Path 931" d="M331.74,297.544a.2.2,0,1,0,.2-.2A.2.2,0,0,0,331.74,297.544Z" transform="translate(-200.482 -188.254)" fill="#fafafa"/>
  <path id="Path_932" data-name="Path 932" d="M330.17,297.544a.2.2,0,1,0,.2-.2A.2.2,0,0,0,330.17,297.544Z" transform="translate(-199.606 -188.254)" fill="#fafafa"/>
  <path id="Path_933" data-name="Path 933" d="M328.6,297.544a.189.189,0,1,0,.2-.2A.2.2,0,0,0,328.6,297.544Z" transform="translate(-198.731 -188.254)" fill="#fafafa"/>
  <path id="Path_934" data-name="Path 934" d="M354.5,311.511l2.027,2.319a2.863,2.863,0,0,0,1.235-2.332,3.285,3.285,0,0,0-6.536.027Z" transform="translate(-211.347 -194.509)" fill="#7e57c2"/>
  <path id="Path_935" data-name="Path 935" d="M353.919,316.027a4.53,4.53,0,0,1,.58.58c.363.389.885.956,1.5,1.646l.071.08-.089.062a3.483,3.483,0,0,1-3.412.336,3.363,3.363,0,0,1-1.407-1.128,2.88,2.88,0,0,1-.518-1.522V316h2.429a5.283,5.283,0,0,1,.854.04,6.043,6.043,0,0,1-.885.071c-.558.027-1.328.053-2.292.08l.1-.106a2.779,2.779,0,0,0,.5,1.4,3.136,3.136,0,0,0,1.327,1.044,3.354,3.354,0,0,0,3.208-.279v.142c-.589-.686-1.071-1.266-1.407-1.677A5.879,5.879,0,0,1,353.919,316.027Z" transform="translate(-211.018 -198.653)" fill="#263238"/>
  <path id="Path_936" data-name="Path 936" d="M355.06,311.051a.19.19,0,0,0,.186.186.186.186,0,0,0,.181-.186.184.184,0,0,0-.367,0Z" transform="translate(-213.482 -195.797)" fill="#263238"/>
  <path id="Path_937" data-name="Path 937" d="M346.83,308.117a10.281,10.281,0,0,1,2.19-.124h.336l.035.031a8.757,8.757,0,0,1,1.266,1.416,8.925,8.925,0,0,1-1.429-1.252l.084.031h-.292a10.7,10.7,0,0,1-2.19-.1Z" transform="translate(-208.894 -194.186)" fill="#263238"/>
  <path id="Path_938" data-name="Path 938" d="M336.555,309.25a5.73,5.73,0,0,1-.212-.854c-.124-.562-.3-1.381-.5-2.385l-.022-.111h.115l4.575-.04c-.026,0,.217.181.115.1h0v.212l.04.217c.027.146.057.288.084.443.053.283.1.562.155.836.1.544.195,1.066.288,1.562l.022.124h-.124c-1.376,0-2.531-.022-3.337-.035l-.925-.027a1.294,1.294,0,0,1-.314-.027,1.993,1.993,0,0,1,.354-.026l.947-.031c.81-.022,1.938-.049,3.275-.062l-.1.124-.266-1.575c-.053-.27-.106-.549-.159-.832-.027-.142-.058-.288-.084-.442l-.04-.217-.022-.111v-.1h0c-.1-.084.137.115.111.1h-4.593l.093-.111c.173.969.305,1.77.4,2.354S336.563,309.236,336.555,309.25Z" transform="translate(-202.756 -193.004)" fill="#263238"/>
  <path id="Path_939" data-name="Path 939" d="M354.45,319.376a.184.184,0,1,0,.181-.186.181.181,0,0,0-.181.186Z" transform="translate(-213.142 -200.435)" fill="#263238"/>
  <path id="Path_940" data-name="Path 940" d="M347.35,319.463a5.965,5.965,0,0,1,1.664-.124,5.863,5.863,0,0,1,1.659.111,6.048,6.048,0,0,1-1.659.12A6.194,6.194,0,0,1,347.35,319.463Z" transform="translate(-209.184 -200.509)" fill="#263238"/>
  <path id="Path_941" data-name="Path 941" d="M336.6,319.711a4.07,4.07,0,0,1-.2-.611c-.12-.407-.292-1.009-.5-1.77l-.026-.106h.111c1.248-.022,2.907-.04,4.722-.044l.111.084h0v.155l.04.159.08.31c.053.208.106.412.155.611.1.4.2.788.292,1.159l.035.133h-.137c-1.4,0-2.593,0-3.425-.035l-.965-.027a1.532,1.532,0,0,1-.332-.027,2.574,2.574,0,0,1,.372-.031l.987-.031c.836-.027,2-.049,3.363-.062l-.106.133c-.1-.372-.2-.757-.3-1.155l-.159-.611-.08-.314-.04-.155-.022-.08v-.071h0c-.027,0,.212.164.111.088h-4.717l.08-.111c.177.726.31,1.328.4,1.739A4.41,4.41,0,0,1,336.6,319.711Z" transform="translate(-202.784 -199.315)" fill="#263238"/>
  <path id="Path_942" data-name="Path 942" d="M338.3,308.238a5.559,5.559,0,0,1,1.562-.119,5.222,5.222,0,0,1,1.566.111,5.579,5.579,0,0,1-1.566.119A5.2,5.2,0,0,1,338.3,308.238Z" transform="translate(-204.139 -194.254)" fill="#263238"/>
  <path id="Path_943" data-name="Path 943" d="M338.38,309.4a5.668,5.668,0,0,1,1.575-.119,5.56,5.56,0,0,1,1.575.106,10.62,10.62,0,0,1-3.151,0Z" transform="translate(-204.183 -194.902)" fill="#263238"/>
  <path id="Path_944" data-name="Path 944" d="M338.59,310.517a5.015,5.015,0,0,1,1.522-.124,5.278,5.278,0,0,1,1.518.111,4.975,4.975,0,0,1-1.518.124A5.311,5.311,0,0,1,338.59,310.517Z" transform="translate(-204.3 -195.523)" fill="#263238"/>
  <path id="Path_945" data-name="Path 945" d="M338.51,319.368a5.032,5.032,0,0,1,1.491-.119,4.749,4.749,0,0,1,1.491.111,5.081,5.081,0,0,1-1.491.119A4.754,4.754,0,0,1,338.51,319.368Z" transform="translate(-204.255 -200.459)" fill="#263238"/>
  <path id="Path_946" data-name="Path 946" d="M338.92,320.675a7.113,7.113,0,0,1,2.549,0A7.117,7.117,0,0,1,338.92,320.675Z" transform="translate(-204.485 -201.199)" fill="#263238"/>
  <path id="Path_947" data-name="Path 947" d="M273.76,336.29v2.429h1.593V387.93h3.266V338.719h17.333V387.93h3.266V338.719h75.195v49.2h3.27v-49.2h1.412V336.29Z" transform="translate(-168.158 -209.968)" fill="#263238"/>
  <path id="Path_948" data-name="Path 948" d="M433.8,377.609a24.339,24.339,0,0,0,4.248,0A25.53,25.53,0,0,0,433.8,377.609Z" transform="translate(-257.379 -232.954)" fill="#263238"/>
  <ellipse id="Ellipse_143" data-name="Ellipse 143" cx="0.115" cy="0.058" rx="0.115" ry="0.058" transform="translate(145.37 145.044)" fill="#455a64"/>
  <path id="Path_949" data-name="Path 949" d="M387.576,256.213l-12.2-12.39-.266-1.328c-.049-.243-.1-.518-.15-.832a3.328,3.328,0,0,1,.022-1.089,4.867,4.867,0,0,1,.376-1.3c.2-.358-.124-.792-.465-.642a3.452,3.452,0,0,0-1.058,2.46c-.128,1.341-1.27-.443-1.695-1.08a12.556,12.556,0,0,0-2.137-2.575c-.442-.035-.54.442-.1,1.062s1.637,2.611,1.3,2.819h0a1.593,1.593,0,0,0-1.686.836c-.31.589-.65,1.429-.372,1.814a22,22,0,0,0,1.947,2.062l.407.35s10.554,15.293,12.855,15.793c1.429.305,23.546,2.142,23.546,2.142l1.668-6.093Z" transform="translate(-221.28 -154.858)" fill="#b78876"/>
  <path id="Path_950" data-name="Path 950" d="M369,250.51l1.128,1.084a1.393,1.393,0,0,0,.442.314.469.469,0,0,0,.5-.08.478.478,0,0,0,.066-.442,1.327,1.327,0,0,0-.261-.4l-1.1-1.328" transform="translate(-221.254 -161.673)" fill="#b78876"/>
  <path id="Path_951" data-name="Path 951" d="M369.795,249.648c.027-.022.234.186.558.544.181.2.367.412.558.633a2.039,2.039,0,0,1,.314.42.6.6,0,0,1-.031.624.553.553,0,0,1-.619.142,1.254,1.254,0,0,1-.443-.31l-.588-.6c-.332-.345-.527-.571-.5-.6a2.682,2.682,0,0,1,.615.482l.624.562a1.067,1.067,0,0,0,.372.252.341.341,0,0,0,.363-.071.385.385,0,0,0,0-.385,2.165,2.165,0,0,0-.27-.385c-.181-.226-.354-.443-.522-.664A2.565,2.565,0,0,1,369.795,249.648Z" transform="translate(-221.274 -161.665)" fill="#aa6550"/>
  <path id="Path_952" data-name="Path 952" d="M370.85,248.718l1.128,1.084a1.328,1.328,0,0,0,.443.31.443.443,0,0,0,.5-.08.469.469,0,0,0,.066-.443,1.4,1.4,0,0,0-.261-.4l-1.1-1.327" transform="translate(-222.286 -160.669)" fill="#b78876"/>
  <path id="Path_953" data-name="Path 953" d="M371.612,247.86a3.454,3.454,0,0,1,.558.549l.558.628a2.044,2.044,0,0,1,.314.42.611.611,0,0,1-.031.628.553.553,0,0,1-.62.142,1.253,1.253,0,0,1-.442-.31l-.584-.6a2.733,2.733,0,0,1-.5-.6,2.726,2.726,0,0,1,.615.478l.624.566a1.067,1.067,0,0,0,.372.252.341.341,0,0,0,.363-.071.394.394,0,0,0,0-.389,1.959,1.959,0,0,0-.274-.381l-.518-.664a2.455,2.455,0,0,1-.429-.65Z" transform="translate(-222.291 -160.669)" fill="#aa6550"/>
  <path id="Path_954" data-name="Path 954" d="M372.84,247.247l1.128,1.084a1.227,1.227,0,0,0,.442.31.4.4,0,0,0,.558-.531,1.328,1.328,0,0,0-.261-.4c-.363-.443-.73-.885-1.093-1.328" transform="translate(-223.395 -159.844)" fill="#b78876"/>
  <path id="Path_955" data-name="Path 955" d="M373.613,246.4a2.884,2.884,0,0,1,.558.544l.557.633a2.03,2.03,0,0,1,.31.42.589.589,0,0,1-.031.628.544.544,0,0,1-.615.142,1.252,1.252,0,0,1-.443-.31l-.58-.6a2.619,2.619,0,0,1-.5-.6,2.659,2.659,0,0,1,.615.478l.624.566a1.093,1.093,0,0,0,.367.252.336.336,0,0,0,.363-.071.372.372,0,0,0,0-.389,2.143,2.143,0,0,0-.27-.381l-.518-.664a2.453,2.453,0,0,1-.438-.651Z" transform="translate(-223.412 -159.855)" fill="#aa6550"/>
  <path id="Path_956" data-name="Path 956" d="M376.87,250.262c0-.04.279-.093.686.031l-.128.111a1.929,1.929,0,0,1-.031-.774,1.97,1.97,0,0,1,.443-.943c.173-.2.319-.283.336-.261a4,4,0,0,0-.531,1.239,2.337,2.337,0,0,0,0,.7l.022.177-.15-.066C377.135,250.324,376.865,250.306,376.87,250.262Z" transform="translate(-225.641 -160.982)" fill="#aa6550"/>
  <path id="Path_957" data-name="Path 957" d="M433.082,235.249l.053,16.979-6.638.314-.266-4.067s-3.195.482-3.863-1.92c-.442-1.535-.319-13.395-.319-13.395Z" transform="translate(-250.82 -152.474)" fill="#b78876"/>
  <path id="Path_958" data-name="Path 958" d="M418.063,231.48a14.357,14.357,0,0,0,2.828,2.872l1.058,2.828c.916-.717,2.146-.677,2.381.934.168,1.168-1.279,1.4-1.279,1.4a20.3,20.3,0,0,0,2.655,3.956,3.91,3.91,0,0,0,3.513,1.651h1.589s3.248-2.717,2.606-9.868-7.089-5.076-8.624-6.846C422.3,225.493,416.425,228.1,418.063,231.48Z" transform="translate(-248.448 -149.122)" fill="#263238"/>
  <path id="Path_959" data-name="Path 959" d="M433.47,244.678a2.262,2.262,0,0,1-.783-.035,4.071,4.071,0,0,1-1.9-.974,10.344,10.344,0,0,1-1.916-2.536,9.162,9.162,0,0,0-2.434-2.978,9.39,9.39,0,0,0-3.668-1.164,6.948,6.948,0,0,1-2.96-1.128,3.173,3.173,0,0,1-1.186-1.77,1.77,1.77,0,0,1-.031-.783,2.441,2.441,0,0,0,.066.774,3.168,3.168,0,0,0,1.19,1.717,6.96,6.96,0,0,0,2.938,1.093,9.748,9.748,0,0,1,3.7,1.173,8.732,8.732,0,0,1,2.452,3.009,10.5,10.5,0,0,0,1.889,2.531,4.128,4.128,0,0,0,1.859.987,3.193,3.193,0,0,0,.575.071Z" transform="translate(-248.885 -152.558)" fill="#455a64"/>
  <path id="Path_960" data-name="Path 960" d="M433.933,237.662l-.341-.106a5.722,5.722,0,0,0-1-.221,2.212,2.212,0,0,0-1.531.345,1.256,1.256,0,0,0-.535.805,1.124,1.124,0,0,0,.31,1.013.885.885,0,0,0,.535.212,1.088,1.088,0,0,0,.589-.164,1.8,1.8,0,0,0,.8-1.022,2.527,2.527,0,0,0-2.137-3.319,4.477,4.477,0,0,0-1.642.212,11.67,11.67,0,0,1-1.7.411,6.847,6.847,0,0,1-1.805,0,6,6,0,0,1-1.744-.482,2.1,2.1,0,0,1-1.19-1.257,1.651,1.651,0,0,1,.4-1.606,1.416,1.416,0,0,1,1.558-.226,1.177,1.177,0,0,1,.575.54,1.327,1.327,0,0,1,.124.761,1.739,1.739,0,0,1-.774,1.212,2.5,2.5,0,0,1-1.327.367,3.884,3.884,0,0,1-1.239-.19,4.478,4.478,0,0,1-1.823-1.124,4.617,4.617,0,0,1-.929-1.328,4.836,4.836,0,0,1-.332-.973c-.04-.23-.053-.354-.053-.354s.027.12.071.35a5.1,5.1,0,0,0,.345.96,4.539,4.539,0,0,0,.934,1.328,4.368,4.368,0,0,0,1.805,1.1,3.779,3.779,0,0,0,1.221.186,2.438,2.438,0,0,0,1.266-.358,1.651,1.651,0,0,0,.735-1.159,1.137,1.137,0,0,0-.65-1.217,1.327,1.327,0,0,0-1.46.217,1.557,1.557,0,0,0-.381,1.513,2.027,2.027,0,0,0,1.146,1.2,5.788,5.788,0,0,0,1.73.456,6.68,6.68,0,0,0,1.77,0,11.328,11.328,0,0,0,1.69-.4,4.474,4.474,0,0,1,1.682-.217,2.615,2.615,0,0,1,2.212,3.434,1.889,1.889,0,0,1-.841,1.058,1.16,1.16,0,0,1-.624.168.916.916,0,0,1-.58-.23,1.2,1.2,0,0,1-.323-1.071,1.328,1.328,0,0,1,.562-.841,2.284,2.284,0,0,1,1.567-.336,4.95,4.95,0,0,1,1,.239C433.818,237.613,433.933,237.662,433.933,237.662Z" transform="translate(-248.972 -151.364)" fill="#455a64"/>
  <path id="Path_961" data-name="Path 961" d="M430.827,434.979l-2.159-2.774,5.173-4.084,3.208,4.027-.305.274c-1.363,1.2-7.027,6.04-8.208,6.5C427.216,439.444,430.827,434.979,430.827,434.979Z" transform="translate(-254.283 -261.163)" fill="#7e57c2"/>
  <path id="Path_962" data-name="Path 962" d="M429.126,442.175s-1.19,1.664-.8,1.77,6.3-4.567,8.722-6.854l-.1-.111-6.841,5.5S429.436,441.949,429.126,442.175Z" transform="translate(-254.285 -266.103)" fill="#fff"/>
  <path id="Path_963" data-name="Path 963" d="M437.04,436.82a.509.509,0,0,1-.08.08l-.243.217-.907.783c-.774.655-1.85,1.549-3.062,2.509s-2.328,1.805-3.142,2.4l-.974.708-.265.186-.1.057.088-.071.257-.2.956-.726c.805-.611,1.916-1.46,3.129-2.42s2.292-1.845,3.071-2.491l.925-.761.252-.208Z" transform="translate(-254.296 -266.014)" fill="#263238"/>
  <path id="Path_971" data-name="Path 971" d="M443.986,433.81a2.352,2.352,0,0,0-.367.314,2.08,2.08,0,0,0-.5,2.151,4.707,4.707,0,0,0,.195.443c-.013,0-.035-.031-.084-.1a2.125,2.125,0,0,1-.164-.323,2.08,2.08,0,0,1-.084-1.186,2,2,0,0,1,.6-1.027,1.724,1.724,0,0,1,.288-.217.4.4,0,0,1,.119-.053Z" transform="translate(-262.468 -264.335)" fill="#263238"/>
  <path id="Path_972" data-name="Path 972" d="M440.27,429.9a12.12,12.12,0,0,1,.885,1.027c.469.584.836,1.066.823,1.08a11.249,11.249,0,0,1-.885-1.027A10.222,10.222,0,0,1,440.27,429.9Z" transform="translate(-260.987 -262.156)" fill="#263238"/>
  <path id="Path_975" data-name="Path 975" d="M443.655,436.93c.022,0,.031.08,0,.177s-.035.173-.058.173-.031-.084-.022-.181S443.633,436.925,443.655,436.93Z" transform="translate(-262.828 -266.075)" fill="#263238"/>
  <path id="Path_976" data-name="Path 976" d="M444.31,435.452s-.057.075-.111.159-.08.173-.1.168-.035-.106.031-.212S444.305,435.429,444.31,435.452Z" transform="translate(-263.11 -265.247)" fill="#263238"/>
  <path id="Path_977" data-name="Path 977" d="M445.179,434.528v.111a.09.09,0,0,1-.089.075c-.018-.009,0-.062,0-.115A.082.082,0,0,1,445.179,434.528Z" transform="translate(-263.67 -264.735)" fill="#263238"/>
  <path id="Path_978" data-name="Path 978" d="M437.857,433.058l-5.235,4-.482-.633,5.5-3.726Z" transform="translate(-256.454 -263.717)"/>
  <path id="Path_997" data-name="Path 997" d="M389.165,308.988l-2.655,7.965c-.712,2.146-2.589,2.513-4.868,2.513H367v-3.292l13.417-1.916,3.195-8.169Z" transform="translate(-220.139 -193.132)" fill="#b78876"/>
  <path id="Path_998" data-name="Path 998" d="M354.086,323.657l-1.164-.549s-1.257-2.429-1.544-2.332-.376.81.128,1.929l-1.544-.443s-3.359,1.549-3.208,1.77a.774.774,0,0,0,1.155.332c.73-.376,1.686-.814,1.686-.814l1.81.518-2.332.3-2.213,2a1.075,1.075,0,0,0,1.328-.035l5.753,1.212,1.77.1v-3.292Z" transform="translate(-208.849 -201.318)" fill="#b78876"/>
  <path id="Path_999" data-name="Path 999" d="M350.07,331.834a3.786,3.786,0,0,0,.336-.376,1.6,1.6,0,0,1,.416-.319,1.739,1.739,0,0,1,.615-.164,8.057,8.057,0,0,0,1.708-.292,8.668,8.668,0,0,0-1.73.115,1.721,1.721,0,0,0-.677.2,1.443,1.443,0,0,0-.442.381A1.1,1.1,0,0,0,350.07,331.834Z" transform="translate(-210.701 -206.84)" fill="#aa6550"/>
  <path id="Path_1000" data-name="Path 1000" d="M352.057,333.24c.022,0,.04-.119.2-.155s.42-.058.69-.084a6.1,6.1,0,0,0,1-.1,2,2,0,0,0-1.018-.08,3.073,3.073,0,0,0-.717.15.288.288,0,0,0-.173.177C352.017,333.209,352.044,333.24,352.057,333.24Z" transform="translate(-211.794 -208.016)" fill="#aa6550"/>
  <path id="Path_1001" data-name="Path 1001" d="M409.447,288.4l-1.128,3.828-7.169-3.261c.261-.8,1.447-4.368,3.713-10.027a9.735,9.735,0,0,1,7.43-5.991,42.53,42.53,0,0,1,6.863-.673c4.022.044,9.939,2.558,10.731,6.5.611,3.009.022,8.319.022,14.771l-.5,12.341-20.6.695Z" transform="translate(-239.177 -174.283)" fill="#7e57c2"/>
  <path id="Path_1002" data-name="Path 1002" d="M446.856,313.632c-2.5.513-5.08,0-7.633-.155-1.549-.093-3.266-.261-4.491.69a5.53,5.53,0,0,0-1.642,3.221,61.482,61.482,0,0,0-1.5,12.306l12.39.752Z" transform="translate(-256.147 -197.209)"/>
  <path id="Path_1003" data-name="Path 1003" d="M418.71,278.483a2.714,2.714,0,0,1,1.735,1.124,3.983,3.983,0,0,1,.708,2.146,13.278,13.278,0,0,1-.217,2.823,47.812,47.812,0,0,1-1.151,5.049c-.168.62-.31,1.128-.416,1.518a3.251,3.251,0,0,0-.133.562,3.129,3.129,0,0,0,.2-.544c.115-.354.279-.863.469-1.5a38.505,38.505,0,0,0,1.208-5.058,12.944,12.944,0,0,0,.2-2.863,4.071,4.071,0,0,0-.77-2.212,2.832,2.832,0,0,0-1.266-.951,2.425,2.425,0,0,0-.42-.1C418.763,278.479,418.71,278.474,418.71,278.483Z" transform="translate(-248.967 -177.738)" fill="#263238"/>
  <path id="Path_1004" data-name="Path 1004" d="M401.66,307.83a7.192,7.192,0,0,0,1.009.58c.637.332,1.527.77,2.527,1.221s1.92.828,2.593,1.084a6.2,6.2,0,0,0,1.1.372,8.44,8.44,0,0,0-1.058-.487c-.655-.288-1.566-.681-2.562-1.133s-1.894-.885-2.544-1.173A7.784,7.784,0,0,0,401.66,307.83Z" transform="translate(-239.462 -194.102)" fill="#263238"/>
  <path id="Path_1005" data-name="Path 1005" d="M389.42,351.92a7.341,7.341,0,0,0-3,9.832l17.935,30.781,8.27-5-13.921-27.789,10.076-6.589" transform="translate(-230.505 -218.682)" fill="#263238"/>
  <path id="Path_1006" data-name="Path 1006" d="M403.641,348.47l-24.612.885a7.341,7.341,0,0,0-7.08,7.452l1.022,35.148h10.35l-.345-33.232,20.665-.544Z" transform="translate(-222.897 -216.759)" fill="#263238"/>
  <path id="Path_1007" data-name="Path 1007" d="M396.869,374.27a1.719,1.719,0,0,1,.031.327q0,.354.04.929c.031.81.062,1.982.093,3.434.062,2.9.1,6.9.124,11.324s.044,8.408.057,11.324c0,1.434,0,2.6.022,3.434v.934a1.731,1.731,0,0,1,0,.327,1.767,1.767,0,0,1-.031-.327c0-.234-.022-.544-.04-.934-.031-.81-.062-1.982-.093-3.429-.062-2.9-.1-6.9-.124-11.328s-.044-8.408-.058-11.324v-4.368A1.686,1.686,0,0,1,396.869,374.27Z" transform="translate(-236.791 -231.142)" fill="#455a64"/>
  <path id="Path_1008" data-name="Path 1008" d="M427.994,298.07h-7.447a5.425,5.425,0,0,0-5.425,5.425v25.962H400.267a3.757,3.757,0,0,0-3.757,3.757h33.962a3.1,3.1,0,0,0,2.969-3.1V303.5a5.425,5.425,0,0,0-5.447-5.425Z" transform="translate(-236.59 -188.661)" fill="#455a64"/>
  <path id="Path_1009" data-name="Path 1009" d="M443.315,300c.062,0,.115,7.633.115,17.05s-.053,17.05-.115,17.05-.115-7.633-.115-17.05S443.253,300,443.315,300Z" transform="translate(-262.621 -189.737)" fill="#263238"/>
  <path id="Path_1010" data-name="Path 1010" d="M426.712,404.809V377.56h-2.421v27.249c-1.478,2.912-4.952,4.868-9.182,6.5h21.576C432.319,409.526,428.336,408.159,426.712,404.809Z" transform="translate(-246.961 -232.977)" fill="#455a64"/>
  <path id="Path_1011" data-name="Path 1011" d="M125.1,349.721l.071-.159.217-.465a12.223,12.223,0,0,0,.637-1.85,16.346,16.346,0,0,0-.058-7.146,38.705,38.705,0,0,0-1.328-4.8c-.562-1.7-1.212-3.509-1.77-5.465a21.169,21.169,0,0,1-.858-6.284,24.681,24.681,0,0,1,1.46-6.638,32.47,32.47,0,0,0,1.695-6.549,9.974,9.974,0,0,0-1.2-6.049c-.956-1.77-2.159-3.275-3.062-4.837a16.814,16.814,0,0,1-1.845-4.651,17.369,17.369,0,0,1-.115-7.2,13.274,13.274,0,0,1,.752-2.544,1.245,1.245,0,0,1-.044.168c-.04.119-.089.279-.155.487a19.1,19.1,0,0,0-.442,1.9,17.506,17.506,0,0,0,.177,7.142,16.692,16.692,0,0,0,1.85,4.593c.885,1.544,2.111,3.049,3.1,4.837a10.151,10.151,0,0,1,1.239,6.169,32.248,32.248,0,0,1-1.7,6.6,24.879,24.879,0,0,0-1.456,6.589,21.165,21.165,0,0,0,.841,6.222c.527,1.943,1.168,3.752,1.726,5.46a37.583,37.583,0,0,1,1.3,4.828,16.169,16.169,0,0,1,0,7.2,10.751,10.751,0,0,1-.7,1.845c-.1.19-.177.341-.239.443A.648.648,0,0,1,125.1,349.721Z" transform="translate(-82.156 -181.419)" fill="#263238"/>
  <path id="Path_1012" data-name="Path 1012" d="M125.968,309.28s-1.832-5.854,1.451-9.293a.2.2,0,0,1,.35.1C127.942,301.063,128.163,304.01,125.968,309.28Z" transform="translate(-85.967 -189.694)" fill="#7e57c2"/>
  <path id="Path_1013" data-name="Path 1013" d="M127.594,304.5a5.443,5.443,0,0,1-.124,1.08c-.124.743-.265,1.62-.443,2.584s-.292,1.841-.407,2.584a6.24,6.24,0,0,1-.195,1.066,4.493,4.493,0,0,1,.031-1.089c.062-.668.177-1.589.345-2.6s.341-1.92.487-2.58A4.5,4.5,0,0,1,127.594,304.5Z" transform="translate(-86.496 -192.246)" fill="#263238"/>
  <path id="Path_1014" data-name="Path 1014" d="M131.47,342.8s1.12-6.031,5.629-7.522a.2.2,0,0,1,.257.252C137.059,336.474,135.877,339.164,131.47,342.8Z" transform="translate(-89.319 -209.396)" fill="#7e57c2"/>
  <path id="Path_1015" data-name="Path 1015" d="M135.824,338.8a5.26,5.26,0,0,1-.615.885l-1.575,2.089-1.571,2.089a5.532,5.532,0,0,1-.673.854,4.569,4.569,0,0,1,.54-.947c.367-.562.885-1.327,1.518-2.137s1.2-1.536,1.633-2.049a4.621,4.621,0,0,1,.743-.783Z" transform="translate(-89.274 -211.368)" fill="#263238"/>
  <path id="Path_1016" data-name="Path 1016" d="M128.653,375.291s-.677-6.1,3.2-8.85a.2.2,0,0,1,.323.168C132.162,367.6,131.817,370.539,128.653,375.291Z" transform="translate(-87.722 -226.756)" fill="#7e57c2"/>
  <path id="Path_1017" data-name="Path 1017" d="M131.171,370.7a5.358,5.358,0,0,1-.327,1.035l-.885,2.456c-.336.92-.637,1.77-.885,2.46a6.139,6.139,0,0,1-.394,1.009,4.426,4.426,0,0,1,.239-1.062c.186-.646.478-1.527.832-2.487s.7-1.819.969-2.434A4.642,4.642,0,0,1,131.171,370.7Z" transform="translate(-87.763 -229.152)" fill="#263238"/>
  <path id="Path_1018" data-name="Path 1018" d="M136.371,409.871s-.443-6.12,3.513-8.717a.2.2,0,0,1,.314.177C140.15,402.313,139.7,405.229,136.371,409.871Z" transform="translate(-92.043 -246.109)" fill="#7e57c2"/>
  <path id="Path_1019" data-name="Path 1019" d="M139.043,405.31a5.518,5.518,0,0,1-.367,1.027c-.283.7-.62,1.518-.987,2.421s-.7,1.726-.987,2.425a5.588,5.588,0,0,1-.443,1,4.82,4.82,0,0,1,.279-1.053c.208-.637.531-1.5.925-2.451s.766-1.8,1.053-2.4A4.761,4.761,0,0,1,139.043,405.31Z" transform="translate(-91.989 -248.447)" fill="#263238"/>
  <path id="Path_1020" data-name="Path 1020" d="M113.669,299.621s-5.438-2.854-5.549-7.589a.2.2,0,0,1,.319-.177C109.248,292.412,111.487,294.342,113.669,299.621Z" transform="translate(-76.3 -185.176)" fill="#7e57c2"/>
  <path id="Path_1021" data-name="Path 1021" d="M110.68,296a5.4,5.4,0,0,1,.677.854l1.531,2.12,1.54,2.115a5.612,5.612,0,0,1,.619.885,4.361,4.361,0,0,1-.748-.792c-.443-.513-1-1.248-1.6-2.08s-1.115-1.6-1.478-2.164A4.814,4.814,0,0,1,110.68,296Z" transform="translate(-77.728 -187.507)" fill="#263238"/>
  <path id="Path_1022" data-name="Path 1022" d="M126.3,328.47s-5.6-2.5-6-7.239a.2.2,0,0,1,.305-.19C121.454,321.549,123.8,323.332,126.3,328.47Z" transform="translate(-83.095 -201.449)" fill="#7e57c2"/>
  <path id="Path_1023" data-name="Path 1023" d="M123.08,325a5.508,5.508,0,0,1,.726.805l1.659,2.027c.624.752,1.186,1.434,1.664,2.018a5.883,5.883,0,0,1,.673.85,4.549,4.549,0,0,1-.792-.743c-.442-.487-1.075-1.186-1.721-1.982s-1.212-1.527-1.611-2.067A4.87,4.87,0,0,1,123.08,325Z" transform="translate(-84.641 -203.674)" fill="#263238"/>
  <path id="Path_1024" data-name="Path 1024" d="M123.392,357.854s-3.845-4.784-2.04-9.178a.2.2,0,0,1,.358-.031C122.229,349.482,123.512,352.142,123.392,357.854Z" transform="translate(-83.409 -216.802)" fill="#7e57c2"/>
  <path id="Path_1025" data-name="Path 1025" d="M122.82,353.24a5.446,5.446,0,0,1,.279,1.053c.164.735.35,1.6.558,2.558s.4,1.814.562,2.553a5.86,5.86,0,0,1,.212,1.066,4.2,4.2,0,0,1-.367-1.027c-.19-.646-.416-1.544-.633-2.549s-.385-1.912-.491-2.571A4.868,4.868,0,0,1,122.82,353.24Z" transform="translate(-84.497 -219.418)" fill="#263238"/>
  <path id="Path_1026" data-name="Path 1026" d="M127.782,397.369s-5.558-2.606-5.872-7.341a.2.2,0,0,1,.31-.186C123.051,390.364,125.374,392.187,127.782,397.369Z" transform="translate(-83.989 -239.807)" fill="#7e57c2"/>
  <path id="Path_1027" data-name="Path 1027" d="M124.62,393.87a5.627,5.627,0,0,1,.712.823l1.628,2.049c.606.766,1.159,1.456,1.628,2.044a6.306,6.306,0,0,1,.659.885,4.782,4.782,0,0,1-.783-.761c-.443-.5-1.053-1.2-1.686-2.009s-1.186-1.544-1.575-2.093A4.815,4.815,0,0,1,124.62,393.87Z" transform="translate(-85.5 -242.069)" fill="#263238"/>
  <path id="Path_1028" data-name="Path 1028" d="M146.831,352.36v.531q-.027.549-.066,1.487c-.071,1.328-.173,3.133-.292,5.31h0a20.8,20.8,0,0,1-3.049,7.08c-1.115,1.77-2.279,3.363-3.288,4.868a33.912,33.912,0,0,0-2.465,4.08,17.032,17.032,0,0,0-1.155,2.991c-.1.367-.173.65-.212.845a1.645,1.645,0,0,1-.084.3,1.437,1.437,0,0,1,.035-.305c.031-.2.089-.487.173-.859a15.834,15.834,0,0,1,1.1-3.04,32.061,32.061,0,0,1,2.434-4.124c1-1.5,2.164-3.1,3.27-4.867a20.5,20.5,0,0,0,3.049-6.987h0c.15-2.182.279-3.983.372-5.31.049-.619.088-1.115.119-1.482a3.68,3.68,0,0,1,.04-.389A.515.515,0,0,1,146.831,352.36Z" transform="translate(-91.966 -218.927)" fill="#263238"/>
  <path id="Path_1029" data-name="Path 1029" d="M151.18,371.983s2.354-5.664-.606-9.377a.2.2,0,0,0-.354.066C149.976,363.62,149.472,366.536,151.18,371.983Z" transform="translate(-99.626 -224.594)" fill="#7e57c2"/>
  <path id="Path_1030" data-name="Path 1030" d="M151.736,367.17a5.027,5.027,0,0,1,.186,1.071c.084.668.177,1.589.248,2.611s.111,1.951.106,2.62a4.84,4.84,0,0,1-.062,1.089,5.629,5.629,0,0,1-.1-1.08c-.053-.752-.111-1.637-.177-2.611s-.128-1.859-.181-2.611A5.077,5.077,0,0,1,151.736,367.17Z" transform="translate(-100.606 -227.184)" fill="#263238"/>
  <path id="Path_1031" data-name="Path 1031" d="M151.18,371.983s2.354-5.664-.606-9.377a.2.2,0,0,0-.354.066C149.976,363.62,149.472,366.536,151.18,371.983Z" transform="translate(-99.625 -224.594)"/>
  <path id="Path_1032" data-name="Path 1032" d="M133.951,402.969s1.885-5.837-1.367-9.293a.2.2,0,0,0-.35.1C132.07,394.734,131.8,397.677,133.951,402.969Z" transform="translate(-89.684 -241.925)" fill="#7e57c2"/>
  <path id="Path_1033" data-name="Path 1033" d="M133.917,398.17a4.732,4.732,0,0,1,.274,1.053c.137.655.305,1.566.443,2.58s.266,1.934.319,2.6a4.424,4.424,0,0,1,0,1.089,6.134,6.134,0,0,1-.181-1.071c-.111-.743-.243-1.62-.385-2.584s-.279-1.845-.394-2.589a5.372,5.372,0,0,1-.075-1.08Z" transform="translate(-90.681 -244.466)" fill="#263238"/>
  <path id="Path_1034" data-name="Path 1034" d="M133.951,402.969s1.885-5.837-1.367-9.293a.2.2,0,0,0-.35.1C132.07,394.734,131.8,397.677,133.951,402.969Z" transform="translate(-89.684 -241.925)"/>
  <path id="Path_1035" data-name="Path 1035" d="M159.5,357.639s5.027-3.518,4.518-8.239a.2.2,0,0,0-.336-.133C162.952,349.926,160.982,352.125,159.5,357.639Z" transform="translate(-104.945 -217.175)" fill="#7e57c2"/>
  <path id="Path_1036" data-name="Path 1036" d="M159.5,357.639s5.027-3.518,4.518-8.239a.2.2,0,0,0-.336-.133C162.952,349.926,160.982,352.125,159.5,357.639Z" transform="translate(-104.945 -217.175)"/>
  <path id="Path_1037" data-name="Path 1037" d="M163.161,353.61a5.009,5.009,0,0,1-.42,1c-.283.606-.7,1.438-1.186,2.336s-.956,1.7-1.327,2.27a4.24,4.24,0,0,1-.637.885,6.511,6.511,0,0,1,.5-.965c.363-.659.783-1.434,1.252-2.292s.885-1.637,1.248-2.3A5.22,5.22,0,0,1,163.161,353.61Z" transform="translate(-104.996 -219.624)" fill="#263238"/>
  <path id="Path_1038" data-name="Path 1038" d="M140.83,394.518s6.062-.947,7.686-5.407a.2.2,0,0,0-.243-.27C147.326,389.115,144.587,390.235,140.83,394.518Z" transform="translate(-94.537 -239.261)" fill="#7e57c2"/>
  <path id="Path_1039" data-name="Path 1039" d="M140.83,394.518s6.062-.947,7.686-5.407a.2.2,0,0,0-.243-.27C147.326,389.115,144.587,390.235,140.83,394.518Z" transform="translate(-94.537 -239.261)"/>
  <path id="Path_1040" data-name="Path 1040" d="M146.968,392.13a4.864,4.864,0,0,1-.819.721c-.522.416-1.261.978-2.1,1.571s-1.606,1.106-2.177,1.46a4.333,4.333,0,0,1-.965.509,5.443,5.443,0,0,1,.885-.646l2.133-1.509,2.133-1.518A5.644,5.644,0,0,1,146.968,392.13Z" transform="translate(-94.582 -241.099)" fill="#263238"/>
  <path id="Path_1041" data-name="Path 1041" d="M125.53,426.9l-1.77,11.9h11.023l-1.429-11.9Z" transform="translate(-85.02 -260.483)" fill="#455a64"/>
  <path id="Path_1042" data-name="Path 1042" d="M135.28,435.068a42.028,42.028,0,0,1-4.425.115,42.029,42.029,0,0,1-4.425-.115,43.5,43.5,0,0,1,4.425-.115,43.5,43.5,0,0,1,4.425.115Z" transform="translate(-86.508 -264.965)" fill="#263238"/>
  <path id="Path_1043" data-name="Path 1043" d="M135.362,437.225a44.981,44.981,0,0,1-4.593.115,44.833,44.833,0,0,1-4.589-.115c0-.062,2.053-.115,4.589-.115S135.362,437.163,135.362,437.225Z" transform="translate(-86.37 -266.175)" fill="#263238"/>
</svg>
